<svg width="64" height="64" viewBox="0 0 64 64" fill="none" xmlns="http://www.w3.org/2000/svg">
<g clip-path="url(#clip0_76_4200)">
<path d="M28.227 13.2509C29.4154 11.8503 28.9537 9.78442 28.9537 9.78442L25.4872 14.9087C25.4344 14.9087 26.7198 14.9615 28.227 13.2509Z" stroke="black" stroke-width="0.33599" stroke-miterlimit="10"/>
<path d="M16.5864 41.2302L17.003 39.1643C17.003 39.1643 15.2923 42.1604 15.1416 42.578C14.9823 43.0474 15.2482 43.872 15.9125 43.8192C16.5864 43.7664 17.411 42.7815 17.411 42.0634C17.411 41.1322 16.5864 41.2302 16.5864 41.2302Z" stroke="black" stroke-width="0.33599" stroke-miterlimit="10"/>
<path d="M47.3054 8.33966C47.3054 8.33966 49.8945 8.44622 52.5805 8.75629C46.525 3.99483 40.7892 2.60287 36.1352 2.60287C29.7255 2.60287 25.3816 5.24471 25.1157 5.39543L27.1364 2.18625C27.1364 2.18625 19.0689 1.40579 16.2235 9.94377C15.4968 8.13519 14.8315 5.49335 14.8315 5.49335C14.8315 5.49335 10.6384 9.17291 12.6063 15.2716C7.79208 13.5168 0.921567 11.0785 0.655655 11.0343C0.291826 10.9815 0.186229 11.1409 0.186229 11.1409C0.186229 11.1409 0.0796723 11.2916 0.389743 11.5575C0.965725 12.0096 11.8259 20.0331 14.2114 21.5844C13.6969 23.4458 13.6969 24.3241 14.2114 25.2015C14.9381 26.39 14.9823 27.0101 14.8853 27.8875C14.7787 28.765 13.8476 36.3718 13.6441 37.3029C13.4405 38.2341 11.2681 41.5402 11.366 42.5242C11.4726 43.5082 12.8108 47.6927 14.0079 48.1631C14.8853 48.4732 17.0577 49.1471 18.5025 49.1471C19.017 49.1471 19.4864 49.0405 19.6909 48.837C20.5683 48.0661 20.8256 47.9058 21.4467 47.9058H21.5974C21.8547 47.9058 22.1648 47.9586 22.5286 47.9586C23.3532 47.9586 24.4437 47.7993 25.2146 47.0812C26.3493 45.9465 28.3172 44.3952 28.9383 43.6675C29.7188 42.6836 30.1268 41.3444 29.9223 39.9976C29.7629 38.7563 30.4368 37.6658 31.2163 36.5839C32.2003 35.2899 34.0089 32.9667 34.0089 32.9667C37.5819 35.6441 39.8071 39.7307 39.8071 44.279C39.8071 52.3466 32.7772 58.8629 24.0885 58.8629C22.7407 58.8629 21.4553 58.7122 20.1613 58.4021C24.1423 59.7941 27.5022 60.2635 30.2506 60.2635C36.093 60.2635 39.1956 58.1449 39.1956 58.1449C39.1956 58.1449 38.1137 59.5455 36.3502 61.1409H36.403C46.0757 59.7931 50.7824 51.8321 50.7824 51.8321C50.7824 51.8321 50.4186 54.4211 49.9578 56.176C62.8214 46.5042 60.65 34.4029 60.5962 33.9949C60.7028 34.1456 61.9968 35.6969 62.6621 36.5302C64.7366 15.2178 47.3074 8.33774 47.3074 8.33774L47.3054 8.33966ZM27.5003 42.3735C27.2968 42.6308 26.4184 43.4112 25.7982 43.9786C25.1781 44.5459 24.5042 45.1133 23.9897 45.6364C23.7861 45.84 23.3695 45.9465 22.7484 45.9465H21.1971C21.9776 44.9088 24.2469 42.5329 25.0274 42.0193C25.9586 41.3991 26.428 40.778 25.852 39.6961C25.2847 38.6056 23.9551 39.0299 23.9551 39.0299C23.9551 39.0299 24.6636 38.5087 25.444 38.5087C24.46 38.2514 23.2188 38.5087 22.6515 39.076C22.0313 39.6433 22.1369 41.665 21.8806 42.9504C21.6233 44.2982 20.7459 44.9721 19.3981 46.2134C18.6714 46.8873 18.1569 47.0908 17.7403 47.0908C16.8628 46.9401 15.8251 46.6742 15.0984 46.4169C14.5839 45.743 13.8044 43.5178 13.5999 42.5866C13.7506 42.0721 14.3708 40.9815 14.6818 40.3614C15.3019 39.173 15.6658 38.5 15.7723 37.8789C15.9758 37.0015 16.6497 31.5671 16.907 29.2968C17.5809 30.1742 18.5121 31.6285 18.299 32.5597C19.7975 30.4411 18.7156 28.3666 18.1924 27.542C17.7316 26.7173 17.1105 25.0595 17.6251 23.3046C18.1396 21.5498 20.001 16.6818 20.001 16.6818C20.001 16.6818 20.6211 17.7723 21.4995 17.5592C22.3769 17.3557 29.4605 6.69907 29.4605 6.69907C29.4605 6.69907 31.3757 10.8836 29.354 13.942C27.2881 16.9919 25.2674 17.5592 25.2674 17.5592C25.2674 17.5592 28.1127 18.0738 30.7459 16.1586C31.8278 18.6939 32.8646 21.3271 32.9184 21.6909C32.759 22.0548 30.6931 27.0188 30.4896 27.3298C30.3831 27.4364 29.665 27.6399 29.1418 27.7464C28.2644 28.0037 27.7499 28.1631 27.5368 28.3138C27.1729 28.6238 25.5151 33.1722 24.7442 35.3974C23.813 35.6547 22.8828 36.1778 22.2089 37.206C22.5727 36.9487 23.7074 36.7893 24.5407 36.6914C25.2674 36.6386 27.484 37.8261 28.0599 40.0513V40.1579C28.1751 40.9739 27.9179 41.7534 27.5012 42.3745L27.5003 42.3735ZM22.6419 42.9946C23.1113 42.3207 23.0585 41.186 23.1113 40.8222C23.1641 40.4584 23.262 39.7845 23.6786 39.6875C24.0953 39.5809 25.0792 39.7403 25.0792 40.4584C25.0792 41.1323 24.3525 41.283 23.838 41.7524C23.4655 42.1066 22.7388 42.8871 22.6409 42.9936L22.6419 42.9946Z" stroke="black" stroke-width="0.33599" stroke-miterlimit="10"/>
<path d="M26.259 25.5116C27.243 24.3769 26.7284 22.2582 24.9112 21.8944C25.3806 20.8125 26.0459 18.6411 26.0459 18.6411C26.0459 18.6411 20.7709 26.9122 20.3101 27.0725C19.8406 27.2318 19.3789 25.4146 19.3789 25.4146C18.3949 29.1911 21.0368 29.7057 21.3468 28.5172C22.7916 28.1448 25.2741 26.5934 26.258 25.5116H26.259Z" stroke="black" stroke-width="0.33599" stroke-miterlimit="10"/>
<path d="M21.7548 27.5237L24.4408 22.9226C24.4408 22.9226 25.9921 23.7031 25.2117 24.9443C24.2364 26.3891 21.7539 27.5237 21.7539 27.5237H21.7548Z" stroke="black" stroke-width="0.33599" stroke-miterlimit="10"/>
<path d="M55.0092 48.837C54.2288 49.8747 53.3513 50.9557 52.3232 51.9934C58.9902 39.1653 52.6333 27.4277 52.376 26.966C52.8454 27.4354 53.3072 27.95 53.7238 28.4108C58.8395 34.0938 59.4596 42.6308 55.0092 48.837Z" stroke="black" stroke-width="0.33599" stroke-miterlimit="10"/>
<path d="M46.6315 6.73458C38.9278 5.28982 33.9628 6.00788 30.3898 7.35472C30.2832 6.93809 29.9204 6.11348 29.6093 5.43958C28.537 6.73362 27.3928 8.28493 26.6747 9.26986C24.7068 10.6177 23.8821 11.9117 23.8821 11.9117C25.0168 8.02862 28.3326 5.13815 32.3664 4.41145C33.501 4.20794 34.7423 4.10138 36.0901 4.10138C39.6545 4.15418 43.2179 5.03255 46.6315 6.73458Z" stroke="black" stroke-width="0.33599" stroke-miterlimit="10"/>
<path d="M18.1377 16.6635C12.0918 16.46 14.1039 9.42056 14.2105 9.01257C14.2105 9.06537 14.6184 14.5449 18.1377 16.6635Z" stroke="black" stroke-width="0.33599" stroke-miterlimit="10"/>
<path d="M24.0866 3.99487C19.4327 6.78743 20.3629 13.4544 20.3629 13.4544C15.9124 6.69047 23.7228 4.15423 24.0866 3.99487Z" stroke="black" stroke-width="0.33599" stroke-miterlimit="10"/>
</g>
<defs>
<clipPath id="clip0_76_4200">
<rect width="63" height="59.3099" fill="white" transform="translate(0 2)"/>
</clipPath>
</defs>
</svg>
