<svg width="64" height="64" viewBox="0 0 64 64" fill="none" xmlns="http://www.w3.org/2000/svg">
<g clip-path="url(#clip0_88_6375)">
<path d="M5.78566 19.456V44.544C5.78566 46.1568 6.63046 47.616 8.03846 48.4352L29.7729 60.9792C31.1553 61.7728 32.8705 61.7728 34.2529 60.9792L55.9873 48.4352C57.3697 47.6416 58.2401 46.1568 58.2401 44.544V19.456C58.2401 17.8432 57.3953 16.384 55.9873 15.5648L34.2529 3.02077C32.8705 2.22717 31.1553 2.22717 29.7729 3.02077L8.03846 15.5648C6.65606 16.3584 5.81126 17.8432 5.81126 19.456H5.78566Z" fill="#213147"/>
<path d="M36.7361 36.8641L33.6385 45.3633C33.5617 45.5937 33.5617 45.8497 33.6385 46.1057L38.9633 60.7233L45.1329 57.1649L37.7345 36.8641C37.5553 36.4033 36.9153 36.4033 36.7361 36.8641Z" fill="#12AAFF"/>
<path d="M42.9568 22.5792C42.7776 22.1184 42.1376 22.1184 41.9584 22.5792L38.8608 31.0784C38.784 31.3088 38.784 31.5648 38.8608 31.8208L47.5904 55.7568L53.76 52.1984L42.9568 22.6048V22.5792Z" fill="#12AAFF"/>
<path d="M32 3.968C32.1536 3.968 32.3072 4.0192 32.4352 4.096L55.936 17.664C56.2176 17.8176 56.3712 18.1248 56.3712 18.432V45.568C56.3712 45.8752 56.192 46.1824 55.936 46.336L32.4352 59.904C32.3072 59.9808 32.1536 60.032 32 60.032C31.8464 60.032 31.6928 59.9808 31.5648 59.904L8.06398 46.336C7.78238 46.1824 7.62878 45.8752 7.62878 45.568V18.4064C7.62878 18.0992 7.80798 17.792 8.06398 17.6384L31.5648 4.0704C31.6928 3.9936 31.8464 3.9424 32 3.9424V3.968ZM32 0C31.1552 0 30.336 0.2048 29.568 0.64L6.06718 14.208C4.55678 15.0784 3.63518 16.6656 3.63518 18.4064V45.5424C3.63518 47.2832 4.55678 48.8704 6.06718 49.7408L29.568 63.3088C30.3104 63.744 31.1552 63.9488 32 63.9488C32.8448 63.9488 33.664 63.744 34.432 63.3088L57.9328 49.7408C59.4432 48.8704 60.3648 47.2832 60.3648 45.5424V18.4064C60.3648 16.6656 59.4432 15.0784 57.9328 14.208L34.4064 0.64C33.664 0.2048 32.8192 0 31.9744 0H32Z" fill="#9DCCED"/>
<path d="M16.4353 55.7824L18.6113 49.8432L22.9633 53.4528L18.8929 57.1904L16.4353 55.7824Z" fill="#213147"/>
<path d="M30.0032 16.4864H24.0384C23.6032 16.4864 23.1936 16.768 23.04 17.1776L10.2656 52.1984L16.4352 55.7568L30.5152 17.1776C30.6432 16.8192 30.3872 16.4608 30.0288 16.4608L30.0032 16.4864Z" fill="white"/>
<path d="M40.4481 16.4864H34.4833C34.0481 16.4864 33.6385 16.768 33.4849 17.1776L18.8929 57.1648L25.0625 60.7232L40.9345 17.1776C41.0625 16.8192 40.8065 16.4608 40.4481 16.4608V16.4864Z" fill="white"/>
</g>
<defs>
<clipPath id="clip0_88_6375">
<rect width="64" height="64" fill="white"/>
</clipPath>
</defs>
</svg>
