<svg width="64" height="64" viewBox="0 0 64 64" fill="none" xmlns="http://www.w3.org/2000/svg">
<path d="M32.48 4.84C32.63 4.84 32.78 4.89 32.9 4.96L55.67 18.1C55.94 18.25 56.09 18.55 56.09 18.84V45.13C56.09 45.43 55.92 45.73 55.67 45.87L32.9 59.01C32.78 59.08 32.63 59.13 32.48 59.13C32.33 59.13 32.18 59.08 32.06 59.01L9.29 45.87C9.02 45.72 8.87 45.42 8.87 45.13V18.82C8.87 18.52 9.04 18.22 9.29 18.08L32.06 4.94C32.18 4.87 32.33 4.82 32.48 4.82V4.84ZM32.48 1C31.66 1 30.87 1.2 30.12 1.62L7.36 14.76C5.9 15.6 5 17.14 5 18.83V45.12C5 46.81 5.89 48.34 7.36 49.19L30.13 62.33C30.85 62.75 31.67 62.95 32.49 62.95C33.31 62.95 34.1 62.75 34.85 62.33L57.62 49.19C59.08 48.35 59.98 46.81 59.98 45.12V18.83C59.98 17.14 59.09 15.61 57.62 14.76L34.81 1.62C34.09 1.2 33.27 1 32.45 1H32.47H32.48Z" stroke="black" stroke-miterlimit="10"/>
<path d="M37.07 36.71L34.07 44.94C34 45.16 34 45.41 34.07 45.66L39.23 59.82L45.21 56.37L38.04 36.7C37.87 36.25 37.25 36.25 37.07 36.7V36.71Z" fill="white" stroke="black" stroke-miterlimit="10"/>
<path d="M43.09 22.87C42.92 22.42 42.3 22.42 42.12 22.87L39.12 31.1C39.05 31.32 39.05 31.57 39.12 31.82L47.58 55.01L53.56 51.56L43.09 22.89V22.87Z" fill="white" stroke="black" stroke-miterlimit="10"/>
<path d="M30.54 16.97H24.76C24.34 16.97 23.94 17.24 23.79 17.64L11.42 51.57L17.4 55.02L31.04 17.65C31.16 17.3 30.92 16.96 30.57 16.96L30.55 16.98L30.54 16.97Z" fill="white" stroke="black" stroke-miterlimit="10"/>
<path d="M40.66 16.97H34.88C34.46 16.97 34.06 17.24 33.91 17.64L19.77 56.38L25.75 59.83L41.13 17.65C41.25 17.3 41.01 16.96 40.66 16.96V16.98V16.97Z" fill="white" stroke="black" stroke-miterlimit="10"/>
</svg>
