<svg width="64" height="64" viewBox="0 0 64 64" fill="none" xmlns="http://www.w3.org/2000/svg">
<g clip-path="url(#clip0_76_4212)">
<g clip-path="url(#clip1_76_4212)">
<path d="M19.571 26.1631L13.069 19.6611L31.9997 0.729916L50.937 19.6677L44.435 26.1697L32.3647 14.0998L31.9997 13.7349L31.6348 14.0998L19.571 26.1631Z" stroke="black" stroke-width="1.03224"/>
<path d="M7.2321 25.4966L13.734 31.9985L7.23175 38.5007L0.729887 31.9988L7.2321 25.4966Z" stroke="black" stroke-width="1.03224"/>
<path d="M19.5704 37.8357L31.6347 49.8995L31.9996 50.2644L32.3646 49.8995L44.4346 37.8299L50.9405 44.3285L31.9996 63.2694L13.0589 44.3291L19.5704 37.8357Z" stroke="black" stroke-width="1.03224"/>
<path d="M63.2701 32.0018L56.7679 38.504L50.266 32.0022L56.7682 25.5L63.2701 32.0018Z" stroke="black" stroke-width="1.03224"/>
<path d="M31.9996 25.3872L38.612 31.9996L31.9996 38.6121L25.3872 31.9996L26.318 31.0688L26.3182 31.0687L26.7897 30.5967H26.7901L26.9413 30.4456L31.9996 25.3872Z" stroke="black" stroke-width="1.03224"/>
</g>
</g>
<defs>
<clipPath id="clip0_76_4212">
<rect width="64" height="64" fill="white"/>
</clipPath>
<clipPath id="clip1_76_4212">
<rect width="64" height="64" fill="white"/>
</clipPath>
</defs>
</svg>
