<svg width="64" height="64" viewBox="0 0 64 64" fill="none" xmlns="http://www.w3.org/2000/svg">
<g clip-path="url(#clip0_88_6385)">
<g clip-path="url(#clip1_88_6385)">
<path d="M19.2949 26.8933L31.7238 14.4649L44.1592 26.8998L51.3912 19.6679L31.7238 -6.10352e-05L12.0629 19.6613L19.2949 26.8933Z" fill="#F3BA2F"/>
<path d="M14.1877 31.9988L6.95584 24.7669L-0.276368 31.9991L6.95549 39.231L14.1877 31.9988Z" fill="#F3BA2F"/>
<path d="M19.2949 37.1066L31.7237 49.535L44.1587 37.1006L51.3947 44.3285L51.3912 44.3326L31.7237 64L12.0624 44.3391L12.0523 44.329L19.2949 37.1066Z" fill="#F3BA2F"/>
<path d="M56.4923 39.2344L63.7245 32.0022L56.4927 24.7703L49.2605 32.0025L56.4923 39.2344Z" fill="#F3BA2F"/>
<path d="M39.0593 31.9962H39.0624L31.7237 24.6575L26.3004 30.0809H26.2999L25.6771 30.7041L24.3917 31.9896L24.3816 31.9997L24.3917 32.0103L31.7237 39.3424L39.0624 32.0038L39.0659 31.9997L39.0593 31.9962Z" fill="#F3BA2F"/>
</g>
</g>
<defs>
<clipPath id="clip0_88_6385">
<rect width="64" height="64" fill="white"/>
</clipPath>
<clipPath id="clip1_88_6385">
<rect width="64" height="64" fill="white"/>
</clipPath>
</defs>
</svg>
