<svg width="64" height="64" viewBox="0 0 64 64" fill="none" xmlns="http://www.w3.org/2000/svg">
<g clip-path="url(#clip0_97_6989)">
<path d="M63.0425 39.741C58.7682 56.884 41.4032 67.3169 24.2562 63.042C7.11636 58.7681 -3.31773 41.4039 0.958461 24.2623C5.2309 7.11741 22.596 -3.31628 39.7376 0.957549C56.8834 5.23138 67.3169 22.5975 63.0421 39.7413L63.0424 39.741H63.0425Z" fill="#F7931A"/>
<path d="M46.1123 27.4408C46.7493 23.1823 43.5068 20.8932 39.0729 19.3661L40.5113 13.5976L36.9994 12.7226L35.5992 18.3392C34.676 18.109 33.7278 17.8921 32.7855 17.677L34.1959 12.0233L30.6862 11.1483L29.247 16.915C28.483 16.741 27.7326 16.5691 27.0046 16.388L27.0087 16.3699L22.1657 15.1606L21.2315 18.9111C21.2315 18.9111 23.837 19.5083 23.7821 19.545C25.2042 19.8999 25.4614 20.8412 25.4187 21.5873L23.7802 28.159C23.8782 28.1839 24.0052 28.2199 24.1454 28.2762C24.0282 28.2471 23.9035 28.2153 23.7741 28.1844L21.4776 37.3904C21.3038 37.8224 20.8627 38.4707 19.8684 38.2245C19.9036 38.2755 17.3159 37.5876 17.3159 37.5876L15.5723 41.6071L20.1425 42.7463C20.9927 42.9594 21.8258 43.1825 22.6463 43.3922L21.193 49.2269L24.7008 50.1019L26.14 44.3292C27.0983 44.5893 28.0283 44.8292 28.9387 45.0554L27.5044 50.8009L31.0164 51.6759L32.4695 45.8522C38.458 46.9854 42.9608 46.5285 44.8562 41.1125C46.3834 36.752 44.7801 34.2369 41.6296 32.5968C43.9243 32.0676 45.6527 30.5586 46.1136 27.4412L46.1125 27.4405L46.1123 27.4408ZM38.0885 38.6909C37.0032 43.0514 29.6606 40.6943 27.2801 40.1032L29.2086 32.3733C31.589 32.9675 39.2228 34.1434 38.0887 38.6909H38.0885ZM39.1746 27.3776C38.1845 31.3439 32.0733 29.3288 30.0908 28.8347L31.8392 21.8241C33.8217 22.3182 40.2059 23.2405 39.1749 27.3776H39.1746Z" fill="white"/>
</g>
<defs>
<clipPath id="clip0_97_6989">
<rect width="64" height="64" fill="white"/>
</clipPath>
</defs>
</svg>
