<svg width="64" height="64" viewBox="0 0 64 64" fill="none" xmlns="http://www.w3.org/2000/svg">
<g clip-path="url(#clip0_97_6982)">
<path d="M62.5569 39.6203L62.519 39.7723C58.2469 56.5568 41.2054 66.7523 24.3771 62.5568C7.50525 58.3498 -2.76574 41.257 1.44359 24.3833L1.44362 24.3832C5.64928 7.5063 22.743 -2.76433 39.6167 1.4427L39.7301 0.987973L39.6167 1.4427C56.4945 5.64974 66.7649 22.7444 62.5569 39.6203Z" stroke="black"/>
<path d="M45.6178 27.3668L45.6246 27.369L45.6189 27.3681C45.4003 28.847 44.888 29.9036 44.1935 30.6486C43.4986 31.3942 42.5889 31.8624 41.5173 32.1096L40.1961 32.4142L41.3987 33.0403C42.9174 33.8309 43.9979 34.7991 44.539 36.0351C45.0773 37.2644 45.1201 38.8463 44.3843 40.9472L44.3842 40.9474C43.4835 43.5212 41.9948 44.8623 40.0507 45.4604C38.0614 46.0725 35.5398 45.9243 32.5625 45.3609L32.0987 45.2731L31.9844 45.7311L30.6523 51.0699L28.1107 50.4367L29.4238 45.1765L29.5451 44.6908L29.0593 44.5701C28.1518 44.3447 27.2254 44.1057 26.271 43.8466L25.7783 43.7129L25.6549 44.2082L24.3367 49.4957L21.799 48.8628L23.1315 43.5131L23.2516 43.0309L22.7701 42.9078C22.4381 42.8229 22.0999 42.7348 21.7579 42.6457C21.2654 42.5173 20.7651 42.3869 20.2641 42.2613L20.2634 42.2611L16.2659 41.2647L17.6036 38.1808C17.8448 38.2442 18.1631 38.3275 18.4806 38.4094C18.8023 38.4923 19.1256 38.5743 19.3672 38.6326C19.4869 38.6615 19.5918 38.6858 19.6676 38.7014C19.7029 38.7087 19.744 38.7167 19.7803 38.7215L19.7815 38.7216C19.7867 38.7223 19.7981 38.7238 19.8134 38.7251C20.413 38.8571 20.9029 38.735 21.2736 38.4669C21.6361 38.2049 21.8362 37.8387 21.9415 37.577L21.9544 37.5449L21.9627 37.5114L24.2593 28.3054L24.1788 28.2853L24.1869 28.2604L24.2654 28.28L25.9039 21.7083L25.9152 21.6627L25.9179 21.6159C25.9429 21.1793 25.8832 20.6421 25.5719 20.1515C25.263 19.6649 24.7449 19.2848 23.9728 19.0779C23.9614 19.0729 23.9529 19.0695 23.9485 19.0677L23.9474 19.0673C23.91 19.0524 23.8673 19.039 23.8323 19.0284C23.7565 19.0056 23.6513 18.9773 23.5319 18.9464C23.2907 18.884 22.9664 18.805 22.6435 18.728C22.3577 18.6597 22.0708 18.5924 21.8396 18.5386L22.53 15.7669L26.414 16.7367L26.4099 16.7553L26.8839 16.8732C27.6174 17.0557 28.3723 17.2286 29.136 17.4025L29.6136 17.5112L29.7322 17.036L31.0503 11.7544L33.5897 12.3875L32.3004 17.556L32.1769 18.051L32.6742 18.1645C33.6172 18.3797 34.5606 18.5955 35.4782 18.8244L35.9634 18.9454L36.0844 18.4602L37.3637 13.3286L39.9052 13.9619L38.5878 19.2451L38.4769 19.6897L38.9101 19.8389C41.1025 20.5939 42.9349 21.5174 44.1392 22.7313C45.3187 23.9202 45.9118 25.4011 45.6178 27.3668ZM36.4765 41.2926C37.3779 40.8995 38.0958 40.2275 38.4604 39.1909H38.4793L38.5738 38.8119C38.8965 37.5181 38.5916 36.435 37.9083 35.5609C37.2432 34.7102 36.2371 34.0771 35.1732 33.5943C33.4705 32.8216 31.4674 32.3728 30.1547 32.0787C29.8335 32.0068 29.5537 31.9441 29.3296 31.8881L28.8445 31.767L28.7234 32.2522L26.7949 39.9822L26.6738 40.4678L27.1596 40.5885C27.3468 40.635 27.5696 40.6939 27.8214 40.7605C29.1202 41.1039 31.1913 41.6516 33.144 41.7532C34.3118 41.814 35.4955 41.7204 36.4765 41.2926ZM37.8349 29.7977C38.6063 29.4229 39.2182 28.804 39.546 27.8776H39.5656L39.6601 27.4985C39.9529 26.3234 39.7197 25.3391 39.1489 24.5427C38.5938 23.7683 37.7441 23.2043 36.8506 22.7826C35.4242 22.1094 33.7356 21.7363 32.642 21.4948C32.3751 21.4358 32.1437 21.3847 31.9602 21.339L31.4751 21.2181L31.3541 21.7031L29.6057 28.7137L29.4847 29.1989L29.9699 29.3199C30.1248 29.3585 30.3102 29.408 30.5205 29.4643C31.6009 29.7531 33.3399 30.218 34.9865 30.2785C35.9742 30.3147 36.9867 30.2099 37.8349 29.7977Z" fill="white" stroke="black"/>
</g>
<defs>
<clipPath id="clip0_97_6982">
<rect width="64" height="64" fill="white"/>
</clipPath>
</defs>
</svg>
