<svg width="64" height="64" viewBox="0 0 64 64" fill="none" xmlns="http://www.w3.org/2000/svg">
<path d="M31.8247 13.1047L31.5732 12.9596L31.3225 13.1061L15.458 22.3795L15.2103 22.5243V22.8112V41.2565V41.5455L15.4608 41.6898L31.3703 50.8504L31.6211 50.9948L31.8713 50.8492L47.747 41.6096L47.9955 41.465V41.1775V22.721V22.4321L47.7453 22.2878L31.8247 13.1047ZM31.5636 0.584445L37.1399 3.81703L37.1412 3.81776L53.0494 12.9776L53.0506 12.9783L58.6385 16.2176V47.6922L53.0494 50.9321L53.0483 50.9328L37.1849 60.183L37.1838 60.1836L31.5973 63.4221L26.0097 60.183L26.0088 60.1824L10.0891 50.9998L10.0881 50.9993L4.5 47.7599V16.3304L10.0891 13.0904L10.0902 13.0897L25.9873 3.81703L25.9884 3.81635L31.5636 0.584445Z" stroke="black"/>
</svg>
