<svg width="64" height="64" viewBox="0 0 64 64" fill="none" xmlns="http://www.w3.org/2000/svg">
<path fill-rule="evenodd" clip-rule="evenodd" d="M9.51202 49.2293C7.95373 48.2756 7 46.5818 7 44.7577V34.5741C7 33.365 7.985 32.3852 9.19411 32.3905C9.57977 32.3905 9.96022 32.4947 10.2938 32.6875L33.272 46.0867C34.6166 46.8684 35.4452 48.3069 35.4452 49.8651V60.4135C35.4504 61.8624 34.2778 63.0402 32.829 63.0402C32.3443 63.0402 31.8648 62.9047 31.4531 62.6546L9.51202 49.2293ZM43.763 29.8993C45.1076 30.681 45.9311 32.1247 45.9363 33.6777V55.0872C45.9363 55.7178 45.5975 56.3015 45.0451 56.609L40.0158 59.439C39.9533 59.4754 39.8856 59.5015 39.8126 59.5223V47.6346C39.8126 46.0971 39.0048 44.6691 37.681 43.8769L17.5015 31.8068V18.3867C17.5015 17.1776 18.4865 16.1978 19.6956 16.203C20.0813 16.203 20.4617 16.3073 20.7953 16.5001L43.763 29.8993ZM53.8215 14.0871C55.1713 14.8689 56 16.3125 56 17.8708V49.1407C55.9948 49.7818 55.6404 50.3707 55.0775 50.6782L50.3089 53.2527V31.4836C50.3089 29.9462 49.5011 28.5234 48.1877 27.7312L27.56 15.3588V2.63189C27.56 2.24623 27.6642 1.86578 27.8518 1.53223C28.4616 0.4899 29.801 0.135506 30.8433 0.740058L53.8215 14.0871Z" fill="#00D395"/>
</svg>
