<svg width="64" height="64" viewBox="0 0 64 64" fill="none" xmlns="http://www.w3.org/2000/svg">
<path d="M9.19195 32.8905H9.19411C9.49001 32.8905 9.78432 32.9706 10.0434 33.1203C10.0434 33.1203 10.0435 33.1204 10.0435 33.1204L33.0201 46.5186L33.0207 46.5189C34.2113 47.2112 34.9452 48.485 34.9452 49.8651L34.9452 60.4135L34.9452 60.4153C34.9494 61.5876 34.0007 62.5402 32.829 62.5402C32.4367 62.5402 32.0473 62.4303 31.7134 62.2277C31.7132 62.2275 31.713 62.2274 31.7127 62.2272L9.77303 48.8029C8.36235 47.9395 7.5 46.4067 7.5 44.7577V34.5741C7.5 33.6423 8.25954 32.8864 9.19195 32.8905ZM43.5111 30.3312L43.5117 30.3315C44.7007 31.0228 45.4313 32.301 45.4363 33.6783C45.4363 33.6787 45.4363 33.6791 45.4363 33.6794L45.4363 55.0872C45.4363 55.5385 45.194 55.9539 44.8019 56.1721L44.7999 56.1733L40.3126 58.6983V47.6346C40.3126 45.9213 39.4125 44.3304 37.9378 43.4479L37.9377 43.4479L18.0015 31.5232V18.3867C18.0015 17.4549 18.761 16.699 19.6934 16.703H19.6956C19.9912 16.703 20.2852 16.783 20.5441 16.9325C20.5444 16.9326 20.5447 16.9328 20.545 16.933L43.5111 30.3312ZM53.5704 14.5195L53.5709 14.5198C54.7658 15.2118 55.5 16.4902 55.5 17.8708V49.1384C55.4957 49.596 55.2423 50.018 54.8388 50.2388C54.8385 50.239 54.8382 50.2392 54.8378 50.2394L50.8089 52.4146V31.4836C50.8089 29.7702 49.9087 28.1854 48.446 27.3031L48.4449 27.3025L28.06 15.0756V2.63189C28.06 2.33707 28.1396 2.04202 28.2856 1.78101C28.7577 0.978565 29.7903 0.70732 30.5925 1.17257L53.5704 14.5195Z" stroke="black"/>
</svg>
