<svg width="64" height="64" viewBox="0 0 64 64" fill="none" xmlns="http://www.w3.org/2000/svg">
<path d="M29.2724 63.0007C29.3297 63.0007 29.3762 62.9543 29.3762 62.897C29.3762 62.8397 29.3297 62.7932 29.2724 62.7932C29.2151 62.7932 29.1687 62.8397 29.1687 62.897C29.1687 62.9543 29.2151 63.0007 29.2724 63.0007Z" stroke="black"/>
<path d="M26.3373 62.1729C26.4514 62.1729 26.5439 62.0803 26.5439 61.9661C26.5439 61.8519 26.4514 61.7593 26.3373 61.7593C26.2231 61.7593 26.1306 61.8519 26.1306 61.9661C26.1306 62.0803 26.2231 62.1729 26.3373 62.1729Z" stroke="black"/>
<path d="M23.316 60.7665C23.316 60.662 23.4008 60.5767 23.506 60.5767C23.6113 60.5767 23.696 60.662 23.696 60.7665C23.696 60.871 23.6113 60.9563 23.506 60.9563C23.4008 60.9563 23.316 60.871 23.316 60.7665Z" stroke="black"/>
<path d="M20.7534 59.2569C20.7534 59.2095 20.7919 59.1705 20.8401 59.1705C20.8883 59.1705 20.9268 59.2095 20.9268 59.2569C20.9268 59.3043 20.8883 59.3433 20.8401 59.3433C20.7919 59.3433 20.7534 59.3043 20.7534 59.2569Z" stroke="black"/>
<path d="M18.3767 57.4784C18.3767 57.4995 18.3596 57.5161 18.3393 57.5161C18.319 57.5161 18.302 57.4995 18.302 57.4784C18.302 57.4572 18.319 57.4407 18.3393 57.4407C18.3596 57.4407 18.3767 57.4572 18.3767 57.4784Z" stroke="black"/>
<path d="M16.1654 55.4311C16.1654 55.5094 16.1021 55.5722 16.0247 55.5722C15.9473 55.5722 15.884 55.5094 15.884 55.4311C15.884 55.3529 15.9473 55.29 16.0247 55.29C16.1021 55.29 16.1654 55.3529 16.1654 55.4311Z" stroke="black"/>
<path d="M14.202 53.1769C14.202 53.3122 14.0924 53.4214 13.958 53.4214C13.8235 53.4214 13.714 53.3122 13.714 53.1769C13.714 53.0415 13.8235 52.9324 13.958 52.9324C14.0924 52.9324 14.202 53.0415 14.202 53.1769Z" stroke="black"/>
<path d="M12.4868 50.6951C12.4868 50.8875 12.331 51.043 12.1394 51.043C11.9479 51.043 11.7921 50.8875 11.7921 50.6951C11.7921 50.5026 11.9479 50.3472 12.1394 50.3472C12.331 50.3472 12.4868 50.5026 12.4868 50.6951Z" stroke="black"/>
<path d="M11.0814 48.0068C11.0814 48.2564 10.8793 48.4581 10.6307 48.4581C10.3821 48.4581 10.1801 48.2564 10.1801 48.0068C10.1801 47.7573 10.3821 47.5555 10.6307 47.5555C10.8793 47.5555 11.0814 47.7573 11.0814 48.0068Z" stroke="black"/>
<path d="M10.0687 45.1529C10.0687 45.4595 9.82034 45.7076 9.51469 45.7076C9.20904 45.7076 8.96069 45.4595 8.96069 45.1529C8.96069 44.8462 9.20904 44.5981 9.51469 44.5981C9.82034 44.5981 10.0687 44.8462 10.0687 45.1529Z" stroke="black"/>
<path d="M9.42795 42.1748C9.42795 42.5386 9.13334 42.8329 8.77062 42.8329C8.40789 42.8329 8.11328 42.5386 8.11328 42.1748C8.11328 41.8111 8.4079 41.5167 8.77062 41.5167C9.13333 41.5167 9.42795 41.8111 9.42795 42.1748Z" stroke="black"/>
<path d="M9.18002 39.1142C9.18002 39.5351 8.83915 39.8757 8.41936 39.8757C7.99957 39.8757 7.65869 39.5351 7.65869 39.1142C7.65869 38.6933 7.99957 38.3527 8.41936 38.3527C8.83915 38.3527 9.18002 38.6933 9.18002 39.1142Z" stroke="black"/>
<path d="M9.36613 36.0328C9.36613 36.5222 8.96974 36.9184 8.48147 36.9184C7.9932 36.9184 7.5968 36.5222 7.5968 36.0328C7.5968 35.5434 7.9932 35.1472 8.48147 35.1472C8.96974 35.1472 9.36613 35.5434 9.36613 36.0328Z" stroke="black"/>
<path d="M9.92412 32.9928C9.92412 33.5393 9.48146 33.9818 8.93612 33.9818C8.39078 33.9818 7.94812 33.5393 7.94812 32.9928C7.94812 32.4463 8.39078 32.0038 8.93612 32.0038C9.48146 32.0038 9.92412 32.4463 9.92412 32.9928Z" stroke="black"/>
<path d="M51.9231 55.9073C51.9804 55.9073 52.0268 55.8609 52.0268 55.8036C52.0268 55.7463 51.9804 55.6998 51.9231 55.6998C51.8658 55.6998 51.8193 55.7463 51.8193 55.8036C51.8193 55.8609 51.8658 55.9073 51.9231 55.9073Z" stroke="black"/>
<path d="M46.4896 58.221C46.5346 58.266 46.5532 58.3221 46.5532 58.3676H46.3426H46.1319C46.1319 58.3221 46.1505 58.266 46.1955 58.221C46.2406 58.1759 46.2967 58.1571 46.3426 58.1571C46.3884 58.1571 46.4445 58.1759 46.4896 58.221ZM46.3426 58.4038L46.553 58.3775C46.5502 58.4417 46.5205 58.4924 46.4886 58.5228C46.4585 58.5514 46.4102 58.5781 46.3426 58.5781C46.2668 58.5781 46.2107 58.5449 46.18 58.5142C46.1501 58.4843 46.1386 58.4528 46.1357 58.4296L46.3426 58.4038ZM49.1946 57.0441C49.0912 57.0441 49.0086 57.1268 49.0086 57.2302C49.0086 57.3336 49.0912 57.4163 49.1946 57.4163C49.2979 57.4163 49.3806 57.3336 49.3806 57.2302C49.3806 57.1268 49.2979 57.0441 49.1946 57.0441Z" stroke="black"/>
<path d="M43.2594 59.1949C43.2594 59.1246 43.3164 59.0671 43.3874 59.0671C43.4584 59.0671 43.5154 59.1246 43.5154 59.1949C43.5154 59.2651 43.4584 59.3226 43.3874 59.3226C43.3164 59.3226 43.2594 59.2651 43.2594 59.1949Z" stroke="black"/>
<path d="M40.374 59.7108C40.374 59.711 40.3739 59.7114 40.3738 59.7119C40.3736 59.7125 40.3733 59.7135 40.3728 59.7146C40.3712 59.7184 40.3685 59.7227 40.3646 59.7266C40.3607 59.7306 40.3563 59.7333 40.3525 59.7349C40.3512 59.7355 40.3501 59.7358 40.3494 59.736C40.3486 59.7358 40.3476 59.7355 40.3462 59.7349C40.3424 59.7333 40.338 59.7306 40.3341 59.7267C40.3302 59.7227 40.3275 59.7184 40.3259 59.7146C40.3254 59.7135 40.3251 59.7125 40.325 59.7119C40.3248 59.7114 40.3248 59.7111 40.3247 59.7108C40.3249 59.7069 40.3259 59.7022 40.3277 59.6981C40.3294 59.6942 40.3311 59.6923 40.3317 59.6918C40.3321 59.6914 40.3328 59.6908 40.3347 59.69C40.3368 59.6891 40.3417 59.6875 40.3494 59.6875C40.3537 59.6875 40.3589 59.6886 40.3635 59.6906C40.3675 59.6924 40.3693 59.6941 40.3698 59.6946C40.3703 59.695 40.3709 59.6957 40.3716 59.6975C40.3724 59.6995 40.3739 59.7039 40.374 59.7108Z" stroke="black"/>
<path d="M37.3487 59.898C37.3487 59.9305 37.3224 59.9563 37.2907 59.9563C37.259 59.9563 37.2327 59.9305 37.2327 59.898C37.2327 59.8654 37.2589 59.8396 37.2907 59.8396C37.3224 59.8396 37.3487 59.8654 37.3487 59.898Z" stroke="black"/>
<path d="M34.3726 59.7533C34.3726 59.843 34.3 59.9151 34.2113 59.9151C34.1225 59.9151 34.0499 59.843 34.0499 59.7533C34.0499 59.6637 34.1225 59.5916 34.2113 59.5916C34.3 59.5916 34.3726 59.6637 34.3726 59.7533Z" stroke="black"/>
<path d="M31.4173 59.2983C31.4173 59.4337 31.3078 59.5428 31.1733 59.5428C31.0389 59.5428 30.9293 59.4337 30.9293 59.2983C30.9293 59.163 31.0389 59.0538 31.1733 59.0538C31.3078 59.0538 31.4173 59.163 31.4173 59.2983Z" stroke="black"/>
<path d="M28.5654 58.4503C28.5654 58.6428 28.4096 58.7982 28.2181 58.7982C28.0265 58.7982 27.8707 58.6428 27.8707 58.4503C27.8707 58.2579 28.0265 58.1024 28.2181 58.1024C28.4096 58.1024 28.5654 58.2579 28.5654 58.4503Z" stroke="black"/>
<path d="M25.8373 57.2302C25.8373 57.4683 25.6445 57.6608 25.4073 57.6608C25.1701 57.6608 24.9773 57.4683 24.9773 57.2302C24.9773 56.992 25.1701 56.7996 25.4073 56.7996C25.6445 56.7996 25.8373 56.992 25.8373 57.2302Z" stroke="black"/>
<path d="M23.2954 55.6584C23.2954 55.9537 23.0563 56.1924 22.7621 56.1924C22.4679 56.1924 22.2288 55.9537 22.2288 55.6584C22.2288 55.3632 22.4679 55.1244 22.7621 55.1244C23.0563 55.1244 23.2954 55.3632 23.2954 55.6584Z" stroke="black"/>
<path d="M20.9807 53.7353C20.9807 54.0762 20.7046 54.352 20.3647 54.352C20.0248 54.352 19.7487 54.0762 19.7487 53.7353C19.7487 53.3943 20.0248 53.1185 20.3647 53.1185C20.7046 53.1185 20.9807 53.3943 20.9807 53.7353Z" stroke="black"/>
<path d="M18.9554 51.5223C18.9554 51.9203 18.633 52.2424 18.2361 52.2424C17.8391 52.2424 17.5167 51.9203 17.5167 51.5223C17.5167 51.1242 17.8391 50.8021 18.2361 50.8021C18.633 50.8021 18.9554 51.1242 18.9554 51.5223Z" stroke="black"/>
<path d="M17.2194 49.0614C17.2194 49.5051 16.86 49.8643 16.4174 49.8643C15.9747 49.8643 15.6154 49.5051 15.6154 49.0614C15.6154 48.6177 15.9747 48.2585 16.4174 48.2585C16.86 48.2585 17.2194 48.6177 17.2194 49.0614Z" stroke="black"/>
<path d="M15.8346 46.3728C15.8346 46.8737 15.4289 47.2791 14.9293 47.2791C14.4296 47.2791 14.0239 46.8737 14.0239 46.3728C14.0239 45.872 14.4296 45.4666 14.9293 45.4666C15.4289 45.4666 15.8346 45.872 15.8346 46.3728Z" stroke="black"/>
<path d="M62.9177 34.8338C62.9635 34.8338 63.0007 34.7967 63.0007 34.7508C63.0007 34.705 62.9635 34.6678 62.9177 34.6678C62.8719 34.6678 62.8347 34.705 62.8347 34.7508C62.8347 34.7967 62.8719 34.8338 62.9177 34.8338Z" stroke="black"/>
<path d="M62.008 37.8526C62.0993 37.8526 62.1733 37.7785 62.1733 37.6872C62.1733 37.5958 62.0993 37.5217 62.008 37.5217C61.9167 37.5217 61.8427 37.5958 61.8427 37.6872C61.8427 37.7785 61.9167 37.8526 62.008 37.8526Z" stroke="black"/>
<path d="M61.0367 40.5204C61.0367 40.4899 61.0321 40.4612 61.0235 40.435C61.0114 40.4047 60.9924 40.3736 60.9641 40.3453C60.9345 40.3157 60.9019 40.2962 60.8702 40.2842C60.8451 40.2764 60.8177 40.2722 60.7887 40.2722C60.7597 40.2722 60.7323 40.2764 60.7071 40.2842C60.6755 40.2962 60.6428 40.3157 60.6133 40.3453C60.585 40.3736 60.5659 40.4047 60.5539 40.435C60.5453 40.4612 60.5407 40.4899 60.5407 40.5204C60.5407 40.5509 60.5453 40.5796 60.5539 40.6058C60.5659 40.6361 60.585 40.6672 60.6133 40.6954C60.6428 40.725 60.6755 40.7446 60.7071 40.7566C60.7323 40.7644 60.7596 40.7685 60.7887 40.7685C60.8177 40.7685 60.8451 40.7644 60.8703 40.7566C60.9019 40.7446 60.9345 40.725 60.9641 40.6954C60.9924 40.6672 61.0114 40.6361 61.0235 40.6058C61.0321 40.5796 61.0367 40.5509 61.0367 40.5204ZM59.4493 43.1882C59.4493 43.2279 59.4327 43.2722 59.3986 43.3064C59.3645 43.3405 59.32 43.3573 59.28 43.3573C59.24 43.3573 59.1956 43.3405 59.1614 43.3064C59.1273 43.2722 59.1107 43.2279 59.1107 43.1882C59.1107 43.1485 59.1273 43.1041 59.1614 43.07C59.1956 43.0358 59.24 43.0191 59.28 43.0191C59.32 43.0191 59.3645 43.0358 59.3986 43.07C59.4327 43.1041 59.4493 43.1485 59.4493 43.1882Z" stroke="black"/>
<path d="M57.416 45.7112C57.416 45.6638 57.4545 45.6248 57.5027 45.6248C57.5509 45.6248 57.5894 45.6638 57.5894 45.7112C57.5894 45.7586 57.5509 45.7976 57.5027 45.7976C57.4545 45.7976 57.416 45.7586 57.416 45.7112Z" stroke="black"/>
<path d="M55.4738 48.0081C55.4735 48.0074 55.4734 48.0068 55.4734 48.0066C55.4734 48.0063 55.4735 48.0058 55.4738 48.0051L55.4742 48.0043L55.4744 48.0041L55.4746 48.0039L55.4755 48.0035C55.4763 48.0031 55.4771 48.003 55.4773 48.0029C55.4773 48.0029 55.4773 48.0029 55.4773 48.0029C55.4773 48.0029 55.4773 48.0029 55.4773 48.0029C55.4776 48.003 55.4783 48.0031 55.4791 48.0035L55.48 48.0039L55.4803 48.0041L55.4804 48.0043L55.4809 48.0051C55.4811 48.0058 55.4812 48.0063 55.4813 48.0066C55.4812 48.0068 55.4811 48.0074 55.4809 48.0081L55.4804 48.0089L55.4803 48.0091L55.48 48.0092L55.4791 48.0097C55.4783 48.0101 55.4776 48.0102 55.4773 48.0102C55.4773 48.0102 55.4773 48.0102 55.4773 48.0102C55.4773 48.0102 55.4773 48.0102 55.4773 48.0102C55.4771 48.0102 55.4763 48.0101 55.4755 48.0097L55.4746 48.0092L55.4744 48.0091L55.4742 48.0089L55.4738 48.0081Z" stroke="black"/>
<path d="M53.2827 50.0954C53.2827 50.1394 53.2472 50.1745 53.204 50.1745C53.1609 50.1745 53.1254 50.1394 53.1254 50.0954C53.1254 50.0514 53.1609 50.0164 53.204 50.0164C53.2472 50.0164 53.2827 50.0514 53.2827 50.0954Z" stroke="black"/>
<path d="M50.8854 51.9153C50.8854 52.005 50.8129 52.0771 50.7241 52.0771C50.6353 52.0771 50.5627 52.005 50.5627 51.9153C50.5627 51.8257 50.6353 51.7535 50.7241 51.7535C50.8129 51.7535 50.8854 51.8257 50.8854 51.9153Z" stroke="black"/>
<path d="M48.282 53.3792L48.2813 53.3917V53.4042C48.2813 53.5419 48.1742 53.6487 48.0373 53.6487C47.9005 53.6487 47.7933 53.5419 47.7933 53.4042C47.7933 53.2664 47.9005 53.1597 48.0373 53.1597C48.1983 53.1597 48.2867 53.2836 48.282 53.3792ZM44.838 54.5416C44.838 54.3497 44.9992 54.1937 45.1853 54.1937C45.3715 54.1937 45.5327 54.3497 45.5327 54.5416C45.5327 54.7335 45.3715 54.8895 45.1853 54.8895C44.9865 54.8895 44.838 54.7414 44.838 54.5416Z" stroke="black"/>
<path d="M42.6393 55.2863C42.6393 55.5245 42.4465 55.717 42.2093 55.717C41.9721 55.717 41.7793 55.5245 41.7793 55.2863C41.7793 55.0482 41.9721 54.8557 42.2093 54.8557C42.4465 54.8557 42.6393 55.0482 42.6393 55.2863Z" stroke="black"/>
<path d="M39.6633 55.6172C39.6633 55.9011 39.4334 56.1306 39.1506 56.1306C38.8678 56.1306 38.6379 55.9011 38.6379 55.6172C38.6379 55.3334 38.8678 55.1039 39.1506 55.1039C39.4334 55.1039 39.6633 55.3334 39.6633 55.6172Z" stroke="black"/>
<path d="M36.6872 55.5758C36.6872 55.9053 36.4204 56.1719 36.0919 56.1719C35.7634 56.1719 35.4966 55.9053 35.4966 55.5758C35.4966 55.2463 35.7634 54.9797 36.0919 54.9797C36.4204 54.9797 36.6872 55.2463 36.6872 55.5758Z" stroke="black"/>
<path d="M33.0333 54.442C33.4125 54.442 33.7113 54.7498 33.7113 55.1208C33.7113 55.4754 33.4272 55.7831 33.0257 55.7995C32.6501 55.7954 32.3553 55.4893 32.3553 55.1208C32.3553 54.7406 32.6634 54.442 33.0333 54.442Z" stroke="black"/>
<path d="M30.8593 54.2727C30.8593 54.6936 30.5185 55.0342 30.0987 55.0342C29.6789 55.0342 29.338 54.6936 29.338 54.2727C29.338 53.8519 29.6789 53.5112 30.0987 53.5112C30.5185 53.5112 30.8593 53.8519 30.8593 54.2727Z" stroke="black"/>
<path d="M28.1106 53.0322C28.1106 53.4988 27.7327 53.8765 27.2673 53.8765C26.8018 53.8765 26.424 53.4988 26.424 53.0322C26.424 52.5656 26.8018 52.188 27.2673 52.188C27.7327 52.188 28.1106 52.5656 28.1106 53.0322Z" stroke="black"/>
<path d="M58.6261 17.7745C58.6141 17.8047 58.595 17.8358 58.5667 17.8641C58.5372 17.8937 58.5045 17.9132 58.4729 17.9252C58.4477 17.933 58.4203 17.9372 58.3913 17.9372C58.2466 17.9372 58.1433 17.8131 58.1433 17.689C58.1433 17.6585 58.1479 17.6299 58.1565 17.6036C58.1685 17.5734 58.1876 17.5422 58.2159 17.514C58.2454 17.4844 58.2781 17.4648 58.3097 17.4529C58.3349 17.445 58.3623 17.4409 58.3913 17.4409C58.536 17.4409 58.6393 17.5443 58.6393 17.689C58.6393 17.7195 58.6347 17.7482 58.6261 17.7745ZM59.0486 20.6463C59.0486 20.6067 59.0652 20.5623 59.0994 20.5282C59.1335 20.494 59.178 20.4772 59.218 20.4772C59.2579 20.4772 59.3024 20.494 59.3366 20.5281C59.3707 20.5623 59.3873 20.6066 59.3873 20.6463C59.3873 20.686 59.3707 20.7304 59.3366 20.7645C59.3024 20.7987 59.258 20.8155 59.218 20.8155C59.178 20.8155 59.1335 20.7987 59.0994 20.7645C59.0652 20.7304 59.0486 20.686 59.0486 20.6463ZM55.8286 12.188C55.87 12.188 55.9113 12.1467 55.9113 12.1053C55.9113 12.0639 55.87 12.0226 55.8286 12.0226C55.7873 12.0226 55.746 12.0639 55.746 12.1053C55.746 12.1467 55.7873 12.188 55.8286 12.188ZM57.2546 14.9799C57.3373 14.9799 57.42 14.8972 57.42 14.8144C57.42 14.7317 57.3373 14.649 57.2546 14.649C57.172 14.649 57.0893 14.7317 57.0893 14.8144C57.0893 14.9179 57.172 14.9799 57.2546 14.9799Z" stroke="black"/>
<path d="M59.648 23.6658C59.648 23.6184 59.6864 23.5794 59.7346 23.5794C59.7828 23.5794 59.8213 23.6184 59.8213 23.6658C59.8213 23.7132 59.7828 23.7522 59.7346 23.7522C59.6864 23.7522 59.648 23.7132 59.648 23.6658Z" stroke="black"/>
<path d="M59.9172 26.728C59.9169 26.7274 59.9168 26.7268 59.9167 26.7266C59.9168 26.7263 59.9169 26.7257 59.9172 26.7251L59.9176 26.7243L59.9177 26.7241L59.918 26.7239L59.9189 26.7234C59.9197 26.7231 59.9204 26.7229 59.9207 26.7229C59.9207 26.7229 59.9207 26.7229 59.9207 26.7229C59.9207 26.7229 59.9207 26.7229 59.9207 26.7229C59.9209 26.7229 59.9217 26.7231 59.9225 26.7234L59.9234 26.7239L59.9236 26.7241L59.9238 26.7243L59.9242 26.7251C59.9245 26.7257 59.9246 26.7263 59.9247 26.7266C59.9246 26.7268 59.9245 26.7274 59.9242 26.728L59.9238 26.7288L59.9236 26.729L59.9234 26.7292L59.9225 26.7297C59.9217 26.73 59.9209 26.7302 59.9207 26.7302C59.9207 26.7302 59.9207 26.7302 59.9207 26.7302C59.9207 26.7302 59.9207 26.7302 59.9207 26.7302C59.9204 26.7302 59.9197 26.73 59.9189 26.7297L59.918 26.7292L59.9177 26.729L59.9176 26.7288L59.9172 26.728Z" stroke="black"/>
<path d="M59.4835 32.8202L59.4827 32.8341V32.848C59.4827 32.9013 59.4631 32.9397 59.4379 32.965C59.4126 32.9903 59.3744 33.0097 59.3214 33.0097C59.2683 33.0097 59.2301 32.9903 59.2049 32.965C59.1796 32.9397 59.16 32.9013 59.16 32.848C59.16 32.762 59.2359 32.6862 59.3214 32.6862C59.3775 32.6862 59.4221 32.7079 59.4494 32.7347C59.4744 32.7591 59.4853 32.7868 59.4835 32.8202ZM59.718 29.8079C59.718 29.787 59.7265 29.7664 59.7414 29.7511C59.7546 29.7376 59.7717 29.7289 59.7967 29.7289C59.8174 29.7289 59.8377 29.7372 59.853 29.7521C59.8665 29.7653 59.8754 29.7826 59.8754 29.8079C59.8754 29.8289 59.8669 29.8494 59.852 29.8647C59.8388 29.8783 59.8217 29.887 59.7967 29.887C59.776 29.887 59.7557 29.8787 59.7404 29.8638C59.7269 29.8506 59.718 29.8332 59.718 29.8079Z" stroke="black"/>
<path d="M58.7386 35.8053C58.7386 35.9406 58.629 36.0498 58.4946 36.0498C58.3602 36.0498 58.2506 35.9406 58.2506 35.8053C58.2506 35.6699 58.3602 35.5608 58.4946 35.5608C58.629 35.5608 58.7386 35.6699 58.7386 35.8053Z" stroke="black"/>
<path d="M57.6226 38.6178C57.6226 38.8103 57.4668 38.9657 57.2753 38.9657C57.0838 38.9657 56.928 38.8103 56.928 38.6178C56.928 38.4253 57.0838 38.2699 57.2753 38.2699C57.4668 38.2699 57.6226 38.4253 57.6226 38.6178Z" stroke="black"/>
<path d="M56.114 41.2649C56.114 41.503 55.9212 41.6955 55.684 41.6955C55.4469 41.6955 55.254 41.503 55.254 41.2649C55.254 41.0267 55.4469 40.8342 55.684 40.8342C55.9212 40.8342 56.114 41.0267 56.114 41.2649Z" stroke="black"/>
<path d="M53.2494 43.6637C53.2494 43.3812 53.4805 43.1504 53.7621 43.1504C54.0436 43.1504 54.2747 43.3812 54.2747 43.6637C54.2747 43.9463 54.0436 44.1771 53.7621 44.1771C53.4805 44.1771 53.2494 43.9463 53.2494 43.6637Z" stroke="black"/>
<path d="M52.146 45.7938C52.146 46.1233 51.8791 46.3899 51.5507 46.3899C51.2222 46.3899 50.9553 46.1233 50.9553 45.7938C50.9553 45.4643 51.2222 45.1978 51.5507 45.1978C51.8791 45.1978 52.146 45.4643 52.146 45.7938Z" stroke="black"/>
<path d="M49.7695 47.6344C49.7695 48.0096 49.4656 48.3131 49.0915 48.3131C48.7173 48.3131 48.4135 48.0096 48.4135 47.6344C48.4135 47.2592 48.7173 46.9556 49.0915 46.9556C49.4656 46.9556 49.7695 47.2592 49.7695 47.6344Z" stroke="black"/>
<path d="M47.1654 49.1236C47.1654 49.5445 46.8245 49.8851 46.4047 49.8851C45.9849 49.8851 45.644 49.5445 45.644 49.1236C45.644 48.7027 45.9849 48.3621 46.4047 48.3621C46.8245 48.3621 47.1654 48.7027 47.1654 49.1236Z" stroke="black"/>
<path d="M42.7094 50.2402C42.7094 49.7716 43.0852 49.396 43.5527 49.396C43.9901 49.396 44.379 49.7634 44.396 50.2471C44.3924 50.7126 44.018 51.0845 43.5527 51.0845C43.0852 51.0845 42.7094 50.7089 42.7094 50.2402ZM34.8107 1.16544C34.8521 1.16544 34.8934 1.12408 34.8934 1.08272C34.8934 1.04136 34.8521 1 34.8107 1C34.7694 1 34.7281 1.04136 34.7281 1.08272C34.7281 1.14476 34.7487 1.16544 34.8107 1.16544Z" stroke="black"/>
<path d="M37.7454 2.17879C37.8367 2.17879 37.9107 2.10472 37.9107 2.01334C37.9107 1.92197 37.8367 1.8479 37.7454 1.8479C37.6541 1.8479 37.5801 1.92197 37.5801 2.01334C37.5801 2.10472 37.6541 2.17879 37.7454 2.17879Z" stroke="black"/>
<path d="M40.7908 3.31883C40.7787 3.34908 40.7597 3.38018 40.7314 3.40846C40.7018 3.43804 40.6692 3.45761 40.6375 3.46958C40.6123 3.4774 40.585 3.48156 40.556 3.48156C40.4113 3.48156 40.308 3.35748 40.308 3.2334C40.308 3.20289 40.3126 3.17422 40.3212 3.14796C40.3332 3.11771 40.3523 3.0866 40.3806 3.05833C40.4101 3.02875 40.4428 3.00918 40.4744 2.99721C40.4996 2.98939 40.527 2.98523 40.556 2.98523C40.7006 2.98523 40.804 3.08863 40.804 3.2334C40.804 3.2639 40.7994 3.29257 40.7908 3.31883ZM43.0733 4.72239C43.0733 4.68269 43.0899 4.63835 43.1241 4.60419C43.1582 4.57003 43.2027 4.55328 43.2426 4.55328C43.2826 4.55328 43.3271 4.57003 43.3612 4.60419C43.3954 4.63835 43.412 4.68269 43.412 4.72239C43.412 4.76209 43.3954 4.80643 43.3612 4.84059C43.3271 4.87475 43.2826 4.8915 43.2426 4.8915C43.2027 4.8915 43.1582 4.87475 43.1241 4.84059C43.0899 4.80643 43.0733 4.76209 43.0733 4.72239ZM45.6566 6.52159C45.6566 6.47325 45.6942 6.4352 45.7433 6.4352C45.7924 6.4352 45.83 6.47325 45.83 6.52159C45.83 6.56994 45.7924 6.60798 45.7433 6.60798C45.6942 6.60798 45.6566 6.56994 45.6566 6.52159Z" stroke="black"/>
<path d="M48.0339 8.5498C48.0336 8.54914 48.0335 8.54858 48.0334 8.54834C48.0335 8.54809 48.0336 8.54753 48.0339 8.54686L48.0343 8.54606L48.0344 8.54586L48.0347 8.54568L48.0356 8.54521C48.0364 8.54485 48.0371 8.54473 48.0374 8.54469C48.0374 8.54469 48.0374 8.54468 48.0374 8.54468C48.0374 8.54468 48.0374 8.54469 48.0374 8.54469C48.0376 8.54473 48.0384 8.54485 48.0392 8.54521L48.0401 8.54568L48.0403 8.54586L48.0405 8.54606L48.0409 8.54686C48.0412 8.54753 48.0413 8.54809 48.0414 8.54834C48.0413 8.54858 48.0412 8.54914 48.0409 8.5498L48.0405 8.5506L48.0403 8.55081L48.0401 8.55099L48.0392 8.55146C48.0384 8.55182 48.0376 8.55194 48.0374 8.55198C48.0374 8.55198 48.0374 8.55198 48.0374 8.55199C48.0374 8.55198 48.0374 8.55198 48.0374 8.55198C48.0371 8.55194 48.0364 8.55182 48.0356 8.55146L48.0347 8.55099L48.0344 8.55081L48.0343 8.5506L48.0339 8.5498Z" stroke="black"/>
<path d="M50.0449 10.8563L50.046 10.8397V10.8231C50.046 10.8021 50.0545 10.7816 50.0694 10.7663C50.0826 10.7527 50.0998 10.744 50.1247 10.744C50.1454 10.744 50.1657 10.7523 50.181 10.7672C50.1945 10.7804 50.2034 10.7978 50.2034 10.8231C50.2034 10.8441 50.195 10.8646 50.18 10.8799C50.1668 10.8934 50.1497 10.9021 50.1247 10.9021C50.0961 10.9021 50.0724 10.8906 50.0573 10.8755C50.0501 10.8683 50.0469 10.8622 50.0457 10.8592C50.0447 10.8568 50.0449 10.8563 50.0449 10.8563ZM52.1047 13.284C52.1047 13.37 52.0288 13.4458 51.9434 13.4458C51.8903 13.4458 51.8522 13.4264 51.8269 13.4011C51.8016 13.3758 51.782 13.3374 51.782 13.284C51.782 13.2307 51.8016 13.1923 51.8269 13.167C51.8522 13.1417 51.8903 13.1223 51.9434 13.1223C51.9964 13.1223 52.0346 13.1417 52.0599 13.167C52.0852 13.1923 52.1047 13.2307 52.1047 13.284Z" stroke="black"/>
<path d="M53.6754 15.9726C53.6754 16.108 53.5658 16.2171 53.4314 16.2171C53.2969 16.2171 53.1874 16.108 53.1874 15.9726C53.1874 15.8373 53.2969 15.7281 53.4314 15.7281C53.5658 15.7281 53.6754 15.8373 53.6754 15.9726Z" stroke="black"/>
<path d="M54.5887 19.1744C54.3977 19.1744 54.2413 19.0136 54.2413 18.8265C54.2413 18.6616 54.3779 18.4938 54.599 18.4788C54.7853 18.4845 54.936 18.6428 54.936 18.8265C54.936 19.0185 54.7748 19.1744 54.5887 19.1744ZM55.312 22.2351C55.0718 22.2351 54.882 22.0457 54.882 21.8045C54.882 21.5972 55.0605 21.3896 55.3218 21.374C55.5574 21.3791 55.742 21.5666 55.742 21.8045C55.742 22.0457 55.5522 22.2351 55.312 22.2351ZM55.6633 25.3786C55.3818 25.3786 55.1507 25.1478 55.1507 24.8652C55.1507 24.5827 55.3818 24.3519 55.6633 24.3519C55.9449 24.3519 56.176 24.5827 56.176 24.8652C56.176 25.1478 55.9449 25.3786 55.6633 25.3786Z" stroke="black"/>
<path d="M56.1966 27.9466C56.1966 28.2762 55.9298 28.5427 55.6013 28.5427C55.2728 28.5427 55.006 28.2762 55.006 27.9466C55.006 27.6171 55.2728 27.3506 55.6013 27.3506C55.9298 27.3506 56.1966 27.6171 56.1966 27.9466Z" stroke="black"/>
<path d="M55.8248 30.9867C55.8248 31.3618 55.5209 31.6654 55.1468 31.6654C54.7726 31.6654 54.4688 31.3618 54.4688 30.9867C54.4688 30.6115 54.7726 30.3079 55.1468 30.3079C55.5209 30.3079 55.8248 30.6115 55.8248 30.9867Z" stroke="black"/>
<path d="M55.06 33.944C55.06 34.3649 54.7192 34.7055 54.2994 34.7055C53.8796 34.7055 53.5387 34.3649 53.5387 33.944C53.5387 33.5231 53.8796 33.1825 54.2994 33.1825C54.7192 33.1825 55.06 33.5231 55.06 33.944Z" stroke="black"/>
<path d="M53.9234 36.7565C53.9234 37.223 53.5455 37.6007 53.08 37.6007C52.6146 37.6007 52.2367 37.223 52.2367 36.7565C52.2367 36.2899 52.6146 35.9122 53.08 35.9122C53.5455 35.9122 53.9234 36.2899 53.9234 36.7565Z" stroke="black"/>
<path d="M12.1604 8.2595C12.2062 8.2595 12.2434 8.22234 12.2434 8.1765C12.2434 8.13067 12.2062 8.09351 12.1604 8.09351C12.1145 8.09351 12.0774 8.13067 12.0774 8.1765C12.0774 8.22234 12.1145 8.2595 12.1604 8.2595Z" stroke="black"/>
<path d="M14.888 6.91463C14.9793 6.91463 15.0533 6.84056 15.0533 6.74918C15.0533 6.65781 14.9793 6.58374 14.888 6.58374C14.7967 6.58374 14.7227 6.65781 14.7227 6.74918C14.7227 6.84056 14.7967 6.91463 14.888 6.91463Z" stroke="black"/>
<path d="M17.7401 5.85986C17.877 5.85986 17.9881 5.74875 17.9881 5.61169C17.9881 5.47463 17.877 5.36353 17.7401 5.36353C17.6031 5.36353 17.4921 5.47463 17.4921 5.61169C17.4921 5.74875 17.6031 5.85986 17.7401 5.85986Z" stroke="black"/>
<path d="M20.5261 4.7845C20.5261 4.69142 20.6016 4.61539 20.6954 4.61539C20.7892 4.61539 20.8647 4.69141 20.8647 4.7845C20.8647 4.87759 20.7892 4.95361 20.6954 4.95361C20.6016 4.95361 20.5261 4.87758 20.5261 4.7845Z" stroke="black"/>
<path d="M23.626 4.26737C23.626 4.21997 23.6645 4.18098 23.7126 4.18098C23.7608 4.18098 23.7993 4.21997 23.7993 4.26737C23.7993 4.31477 23.7608 4.35376 23.7126 4.35376C23.6645 4.35376 23.626 4.31477 23.626 4.26737Z" stroke="black"/>
<path d="M26.7885 4.08288C26.7882 4.08222 26.7881 4.08166 26.7881 4.08141C26.7881 4.08117 26.7882 4.08061 26.7885 4.07994L26.7889 4.07914L26.7891 4.07894L26.7893 4.07876L26.7902 4.07829C26.791 4.07793 26.7918 4.07781 26.792 4.07777C26.792 4.07777 26.792 4.07776 26.792 4.07776C26.792 4.07776 26.792 4.07777 26.792 4.07777C26.7923 4.07781 26.793 4.07793 26.7938 4.07829L26.7947 4.07876L26.795 4.07894L26.7951 4.07914L26.7955 4.07994C26.7958 4.08061 26.7959 4.08117 26.796 4.08141C26.7959 4.08166 26.7958 4.08222 26.7955 4.08289L26.7951 4.08369L26.795 4.08389L26.7947 4.08407L26.7938 4.08454C26.793 4.0849 26.7923 4.08502 26.792 4.08506C26.792 4.08506 26.792 4.08507 26.792 4.08507C26.792 4.08507 26.792 4.08506 26.792 4.08506C26.7918 4.08502 26.791 4.0849 26.7902 4.08454L26.7893 4.08407L26.7891 4.08389L26.7889 4.08369L26.7885 4.08288Z" stroke="black"/>
<path d="M29.9293 4.22627C29.9293 4.27025 29.8938 4.30532 29.8506 4.30532C29.8075 4.30532 29.772 4.27024 29.772 4.22627C29.772 4.1823 29.8075 4.14722 29.8506 4.14722C29.8938 4.14722 29.9293 4.18229 29.9293 4.22627Z" stroke="black"/>
<path d="M33.05 4.68106C33.05 4.77072 32.9774 4.84284 32.8886 4.84284C32.7998 4.84284 32.7273 4.77072 32.7273 4.68106C32.7273 4.5914 32.7998 4.51929 32.8886 4.51929C32.9774 4.51929 33.05 4.5914 33.05 4.68106Z" stroke="black"/>
<path d="M36.088 5.50829C36.088 5.64364 35.9784 5.75279 35.844 5.75279C35.7095 5.75279 35.6 5.64364 35.6 5.50829C35.6 5.37295 35.7095 5.26379 35.844 5.26379C35.9784 5.26379 36.088 5.37295 36.088 5.50829Z" stroke="black"/>
<path d="M39.002 6.72852C39.002 6.93643 38.8455 7.07641 38.6753 7.07641C38.4765 7.07641 38.328 6.92834 38.328 6.72852C38.328 6.53658 38.4892 6.38062 38.6753 6.38062C38.8377 6.38062 39.002 6.53325 39.002 6.72852ZM41.3207 8.75153C41.0805 8.75153 40.8907 8.5621 40.8907 8.32091C40.8907 8.11362 41.0692 7.90594 41.3305 7.8904C41.566 7.89548 41.7507 8.08303 41.7507 8.32091C41.7507 8.5621 41.5609 8.75153 41.3207 8.75153ZM44.21 10.2235C44.21 10.5061 43.9789 10.7369 43.6973 10.7369C43.4298 10.7369 43.1847 10.4995 43.1847 10.2235C43.1847 9.94097 43.4158 9.71017 43.6973 9.71017C43.9789 9.71017 44.21 9.94097 44.21 10.2235ZM46.442 12.457C46.442 12.7809 46.1695 13.0531 45.8467 13.0531C45.5093 13.0531 45.2513 12.7871 45.2513 12.457C45.2513 12.1331 45.5238 11.8609 45.8467 11.8609C46.1695 11.8609 46.442 12.1331 46.442 12.457Z" stroke="black"/>
<path d="M48.3433 14.918C48.3433 15.2932 48.0394 15.5968 47.6653 15.5968C47.2912 15.5968 46.9873 15.2932 46.9873 14.918C46.9873 14.5428 47.2912 14.2393 47.6653 14.2393C48.0394 14.2393 48.3433 14.5428 48.3433 14.918Z" stroke="black"/>
<path d="M49.9139 17.6064C49.9139 18.0272 49.573 18.3679 49.1532 18.3679C48.7335 18.3679 48.3926 18.0272 48.3926 17.6064C48.3926 17.1855 48.7335 16.8448 49.1532 16.8448C49.573 16.8448 49.9139 17.1855 49.9139 17.6064Z" stroke="black"/>
<path d="M50.2694 21.3252C49.8018 21.3252 49.426 20.9496 49.426 20.4809C49.426 20.0173 49.8175 19.6367 50.2694 19.6367C50.7369 19.6367 51.1127 20.0123 51.1127 20.4809C51.1127 20.9496 50.7369 21.3252 50.2694 21.3252Z" stroke="black"/>
<path d="M51.9394 23.4588C51.9394 23.9711 51.5245 24.3858 51.0134 24.3858C50.5023 24.3858 50.0874 23.9711 50.0874 23.4588C50.0874 22.9466 50.5023 22.5319 51.0134 22.5319C51.5245 22.5319 51.9394 22.9466 51.9394 23.4588Z" stroke="black"/>
<path d="M1.16533 29.3942C1.25665 29.3942 1.33067 29.3202 1.33067 29.2288C1.33067 29.1374 1.25665 29.0634 1.16533 29.0634C1.07402 29.0634 1 29.1374 1 29.2288C1 29.3202 1.07402 29.3942 1.16533 29.3942Z" stroke="black"/>
<path d="M1.88465 26.2923C1.88465 26.1878 1.9694 26.1025 2.07465 26.1025C2.1799 26.1025 2.26465 26.1878 2.26465 26.2923C2.26465 26.3968 2.1799 26.4821 2.07465 26.4821C1.9694 26.4821 1.88465 26.3968 1.88465 26.2923Z" stroke="black"/>
<path d="M3.26939 23.4592C3.26939 23.446 3.28012 23.4348 3.29406 23.4348C3.308 23.4348 3.31873 23.446 3.31873 23.4592C3.31873 23.4723 3.308 23.4835 3.29406 23.4835C3.28012 23.4835 3.26939 23.4723 3.26939 23.4592Z" stroke="black"/>
<path d="M4.94332 20.7914C4.94332 20.8696 4.88003 20.9325 4.80265 20.9325C4.72528 20.9325 4.66199 20.8696 4.66199 20.7914C4.66199 20.7131 4.72528 20.6503 4.80265 20.6503C4.88003 20.6503 4.94332 20.7131 4.94332 20.7914Z" stroke="black"/>
<path d="M6.86535 18.2683C6.86535 18.4265 6.73728 18.5541 6.58001 18.5541C6.42274 18.5541 6.29468 18.4265 6.29468 18.2683C6.29468 18.1101 6.42274 17.9824 6.58001 17.9824C6.73728 17.9824 6.86535 18.1101 6.86535 18.2683Z" stroke="black"/>
<path d="M9.056 15.9725C9.056 16.2221 8.85391 16.4238 8.60533 16.4238C8.35675 16.4238 8.15466 16.2221 8.15466 15.9725C8.15466 15.723 8.35675 15.5212 8.60533 15.5212C8.85391 15.5212 9.056 15.723 9.056 15.9725Z" stroke="black"/>
<path d="M11.4946 13.884C11.4946 14.2249 11.2185 14.5007 10.8786 14.5007C10.5387 14.5007 10.2626 14.2249 10.2626 13.884C10.2626 13.543 10.5387 13.2672 10.8786 13.2672C11.2185 13.2672 11.4946 13.543 11.4946 13.884Z" stroke="black"/>
<path d="M14.0987 12.064C14.0987 12.4849 13.7578 12.8255 13.3381 12.8255C12.9183 12.8255 12.5774 12.4849 12.5774 12.064C12.5774 11.6431 12.9183 11.3025 13.3381 11.3025C13.7578 11.3025 14.0987 11.6431 14.0987 12.064Z" stroke="black"/>
<path d="M16.93 10.5544C16.93 11.0667 16.5151 11.4813 16.004 11.4813C15.4929 11.4813 15.078 11.0667 15.078 10.5544C15.078 10.0421 15.4929 9.62744 16.004 9.62744C16.5151 9.62744 16.93 10.0421 16.93 10.5544Z" stroke="black"/>
<mask id="path-88-inside-1_97_6872" fill="white">
<path d="M18.8561 10.968C19.6414 10.968 20.3028 10.3889 20.4061 9.62374C20.7161 10.0787 21.2328 10.3682 21.8321 10.3682C22.4934 10.3682 23.0928 9.99599 23.3821 9.43761C23.7334 9.89258 24.2708 10.2028 24.8908 10.2028C25.4488 10.2028 25.9448 9.95463 26.2961 9.58238C26.6681 10.0994 27.2674 10.451 27.9701 10.451C28.4041 10.451 28.8174 10.3062 29.1481 10.0787C29.2308 10.2028 29.3134 10.3062 29.4168 10.4096C28.9001 10.4716 28.4248 10.6991 28.0734 11.03C27.6808 10.6784 27.1641 10.451 26.5854 10.451C25.8621 10.451 25.2008 10.8025 24.8081 11.3609C24.4568 11.0921 24.0228 10.9266 23.5268 10.9266C22.7001 10.9266 21.9768 11.4229 21.6461 12.1261C21.3361 11.9193 20.9641 11.7952 20.5508 11.7952C19.6208 11.7952 18.8354 12.4363 18.6494 13.3049C18.3808 13.1394 18.0501 13.036 17.6988 13.036C16.6861 13.036 15.8594 13.8632 15.8594 14.8766C15.6114 14.7318 15.3221 14.6491 15.0121 14.6491C14.0614 14.6491 13.2968 15.4143 13.2968 16.3656C13.2968 16.531 13.3174 16.6965 13.3588 16.8412C13.1108 16.6965 12.8421 16.6137 12.5321 16.6137C11.6641 16.6137 10.9408 17.3169 10.9408 18.2061C10.9408 19.0747 11.6434 19.7985 12.5321 19.7985C13.4208 19.7985 14.1234 19.0954 14.1234 18.2061C14.1234 18.0614 14.1028 17.9373 14.0614 17.8132C14.3301 17.9993 14.6608 18.1027 14.9914 18.1027C15.9214 18.1027 16.6654 17.3582 16.7068 16.4483C16.9961 16.6344 17.3268 16.7378 17.6781 16.7378H17.7814C17.3888 17.0894 17.1408 17.5857 17.0994 18.1234C16.9754 18.1027 16.8514 18.0821 16.7274 18.0821C15.6114 18.0821 14.7228 18.992 14.7228 20.0881C14.7228 20.1708 14.7228 20.2535 14.7434 20.3155C14.6608 20.3155 14.5988 20.2949 14.5161 20.2949C13.4621 20.2949 12.6148 21.1428 12.6148 22.1975C12.6148 22.4043 12.6561 22.6111 12.7181 22.7972H12.6148C11.6228 22.7972 10.8168 23.6037 10.8168 24.5964C10.8168 24.948 10.9201 25.2582 11.0854 25.527H11.0234C10.0934 25.527 9.32877 26.2922 9.32877 27.2228C9.32877 27.7192 9.53544 28.1535 9.8661 28.4637H9.8041C8.9361 28.4637 8.21277 29.1668 8.21277 30.0561C8.21277 30.9453 8.91544 31.6485 9.8041 31.6485C10.6721 31.6485 11.3954 30.9453 11.3954 30.0561C11.3954 29.6218 11.2094 29.2082 10.9201 28.9186H11.0234C11.5194 28.9186 11.9534 28.7118 12.2634 28.3809V28.443C12.2634 28.8773 12.4081 29.2702 12.6561 29.6011C11.9328 29.8699 11.4161 30.5524 11.4161 31.3589C11.4161 31.938 11.6641 32.4343 12.0774 32.7859C11.4574 33.0754 11.0441 33.6751 11.0441 34.399C11.0441 35.0814 11.4368 35.6811 11.9948 35.9707C11.4574 36.2395 11.0648 36.8186 11.0648 37.4803C11.0648 38.2869 11.6228 38.9487 12.3668 39.1141C11.8501 39.383 11.4988 39.9 11.4988 40.5204C11.4988 41.389 12.2014 42.1128 13.0901 42.1128C13.1934 42.1128 13.2761 42.0921 13.3794 42.0921C12.7801 42.2782 12.3254 42.8366 12.3254 43.5191C12.3254 44.3463 12.9868 45.008 13.8134 45.008C14.6401 45.008 15.3014 44.3463 15.3014 43.5191C15.3014 42.6918 14.6401 42.0301 13.8134 42.0301C13.7308 42.0301 13.6274 42.0507 13.5448 42.0507C14.1854 41.8439 14.6608 41.2442 14.6608 40.5411C14.6608 40.4997 14.6608 40.4583 14.6401 40.4377C14.8881 40.7065 15.2188 40.8926 15.5701 40.996C15.3014 41.3062 15.1568 41.6992 15.1568 42.1335C15.1568 43.1054 15.9421 43.8913 16.9134 43.8913H16.9548C16.7481 44.1601 16.6448 44.5117 16.6448 44.8633C16.6448 45.7939 17.3888 46.5384 18.3188 46.5384C18.4841 46.5384 18.6494 46.5177 18.8148 46.4764C18.6494 46.7245 18.5461 47.0347 18.5461 47.3656C18.5461 48.2549 19.2488 48.958 20.1374 48.958C20.5094 48.958 20.8608 48.8133 21.1294 48.6064C20.9021 48.8753 20.7574 49.2062 20.7574 49.5784C20.7574 50.4057 21.4394 51.0881 22.2661 51.0881C23.0928 51.0881 23.7748 50.4057 23.7748 49.5784C23.7748 49.1648 23.6094 48.8133 23.3614 48.5444C23.5681 48.5444 23.7541 48.503 23.9401 48.441V48.4617C23.9401 49.1855 24.3534 49.8059 24.9528 50.0954C24.8701 50.0748 24.7668 50.0748 24.6841 50.0748C23.8988 50.0748 23.2581 50.7159 23.2581 51.5017C23.2581 52.2876 23.8988 52.9287 24.6841 52.9287C25.4694 52.9287 26.1101 52.2876 26.1101 51.5017C26.1101 50.964 25.8001 50.4884 25.3661 50.2609C25.5108 50.3022 25.6554 50.3229 25.8001 50.3229C26.1514 50.3229 26.4821 50.2195 26.7714 50.0334C26.8541 50.9433 27.5981 51.6465 28.5281 51.6465C29.0241 51.6465 29.4788 51.4397 29.7888 51.1088C29.9128 51.9153 30.6154 52.5151 31.4421 52.5151C32.0828 52.5151 32.6408 52.1635 32.9094 51.6258C33.0541 52.3496 33.6948 52.908 34.4594 52.908C35.2861 52.908 35.9474 52.2876 36.0301 51.481C36.0921 52.2669 36.7328 52.8873 37.5181 52.8873C38.3448 52.8873 39.0268 52.2049 39.0268 51.3776C39.0268 50.5504 38.3654 49.8886 37.5594 49.868C37.7041 49.7232 37.8074 49.5578 37.9108 49.3923C38.2414 49.7439 38.7168 49.9507 39.2334 49.9507C39.4194 49.9507 39.6261 49.93 39.7914 49.868C39.4194 50.1161 39.1714 50.5504 39.1714 51.0467C39.1714 51.8326 39.8121 52.4737 40.5974 52.4737C41.3828 52.4737 42.0234 51.8326 42.0234 51.0467C42.0234 50.2609 41.3828 49.6198 40.5974 49.6198C40.4528 49.6198 40.3081 49.6405 40.1841 49.6818C40.5974 49.4337 40.9074 49.0201 41.0314 48.5237C41.3414 48.7926 41.7341 48.9373 42.1681 48.9373C43.1394 48.9373 43.9248 48.1515 43.9248 47.1795V47.1381C44.1934 47.3449 44.5448 47.4483 44.8961 47.4483C45.8261 47.4483 46.5701 46.7038 46.5701 45.7732C46.5701 45.6078 46.5494 45.4423 46.5081 45.2769C46.7561 45.4423 47.0661 45.5457 47.3968 45.5457C48.2854 45.5457 48.9881 44.8426 48.9881 43.9533C48.9881 43.5811 48.8434 43.2295 48.6368 42.9607C48.9054 43.1882 49.2361 43.3329 49.6081 43.3329C50.4348 43.3329 51.1168 42.6505 51.1168 41.8233C51.1168 40.996 50.4348 40.3136 49.6081 40.3136C49.1948 40.3136 48.8434 40.479 48.5748 40.7272C48.5748 40.5204 48.5334 40.3343 48.4714 40.1481H48.4921C49.2154 40.1481 49.8354 39.7345 50.1248 39.1348C50.1041 39.2175 50.1041 39.3209 50.1041 39.4036C50.1041 40.1895 50.7448 40.8306 51.5301 40.8306C52.3154 40.8306 52.9561 40.1895 52.9561 39.4036C52.9561 38.6178 52.3154 37.9767 51.5301 37.9767C50.9928 37.9767 50.5174 38.2869 50.2901 38.7212C50.3314 38.5764 50.3521 38.4317 50.3521 38.2869C50.3521 37.9353 50.2488 37.6044 50.0628 37.3149C50.9721 37.2322 51.6748 36.4877 51.6748 35.5571C51.6748 35.0607 51.4681 34.6058 51.1374 34.2956C51.9434 34.1715 52.5428 33.4683 52.5428 32.6411C52.5428 32 52.1914 31.4416 51.6541 31.1728C52.3774 31.028 52.9354 30.3869 52.9354 29.6218C52.9354 28.7945 52.3154 28.1328 51.5094 28.05C52.2948 27.988 52.9148 27.3469 52.9148 26.5611C52.9148 25.7338 52.2328 25.0514 51.4061 25.0514C50.5794 25.0514 49.8974 25.7338 49.8974 26.5611C49.8974 27.3469 50.4761 27.9673 51.2408 28.05C50.4141 28.1121 49.7528 28.7945 49.7528 29.6218C49.7528 30.2215 50.0834 30.7385 50.5794 31.0074C49.7941 31.1521 49.1948 31.8346 49.1948 32.6618C49.1948 33.1168 49.3808 33.5304 49.6908 33.8406C48.8228 33.9647 48.1614 34.6885 48.1614 35.5777C48.1614 35.9086 48.2441 36.1982 48.4094 36.467C47.4381 36.529 46.6734 37.3149 46.6734 38.3076C46.6734 38.4937 46.6941 38.6798 46.7561 38.8453H46.6734C45.6194 38.8453 44.7514 39.7138 44.7514 40.7685V40.9133C44.6481 40.8926 44.5448 40.8926 44.4414 40.8926C43.4288 40.8926 42.6021 41.6371 42.4574 42.6091C42.2921 42.5677 42.1061 42.5264 41.8994 42.5264C41.0521 42.5264 40.3288 43.0227 39.9981 43.7259C39.5848 43.395 39.0474 43.2502 38.4894 43.3536C37.8694 43.4777 37.3941 43.8706 37.1461 44.4083C36.7534 43.974 36.1541 43.7465 35.5341 43.8293C34.9348 43.912 34.4388 44.2842 34.1701 44.7806C33.8394 44.3669 33.3228 44.0981 32.7441 44.0981C32.2068 44.0981 31.7314 44.3256 31.3801 44.6772C31.1734 44.2015 30.7601 43.8293 30.2228 43.6638C29.6648 43.4984 29.0861 43.6018 28.6314 43.9327C28.5074 43.395 28.1561 42.9193 27.6394 42.6712C27.1228 42.423 26.5648 42.4437 26.0894 42.6505C26.0688 42.1335 25.8414 41.6164 25.3868 41.2649C24.9528 40.934 24.4361 40.8099 23.9401 40.8926C24.0641 40.3756 23.9608 39.8172 23.6301 39.3623C23.2788 38.8866 22.7208 38.6385 22.1834 38.6178C22.3901 38.1214 22.3901 37.5424 22.1214 37.0254C21.8734 36.5497 21.4601 36.2395 20.9848 36.1154C21.2741 35.7225 21.4188 35.2262 21.3361 34.6885C21.2534 34.1094 20.9021 33.6545 20.4268 33.3856C20.8814 33.034 21.1501 32.4964 21.1501 31.8966C21.1501 31.3589 20.9021 30.8626 20.5094 30.5317C20.9641 30.3042 21.3361 29.8699 21.4808 29.3322C21.6254 28.7945 21.5014 28.2569 21.1914 27.8226C21.6668 27.7192 22.1008 27.409 22.3694 26.954C22.6588 26.4577 22.6794 25.8993 22.5141 25.4029C23.0514 25.4236 23.5888 25.2168 23.9814 24.7825C24.3741 24.3482 24.5188 23.8106 24.4361 23.2729C24.9321 23.3969 25.4694 23.3142 25.9241 23.004C26.3994 22.6731 26.6681 22.1768 26.7094 21.6598C27.1848 21.9079 27.7634 21.9493 28.2801 21.7218C28.7761 21.515 29.1274 21.1221 29.2928 20.6464C29.6648 20.9773 30.1814 21.1634 30.7188 21.1221C31.3181 21.06 31.8141 20.7292 32.1034 20.2742C32.4134 20.7085 32.9094 21.0187 33.4674 21.06C34.0254 21.1014 34.5214 20.8946 34.8934 20.543C35.0794 21.0187 35.4928 21.4323 36.0301 21.6184C36.5881 21.8045 37.1668 21.7011 37.6214 21.4116C37.7248 21.9286 38.0348 22.425 38.5514 22.6938C38.9648 22.9213 39.4401 22.9627 39.8741 22.8592C39.9154 22.9213 39.9774 23.004 40.0394 23.0661C40.0601 23.459 40.2254 23.8519 40.4941 24.1621L40.5354 24.2035C41.4654 25.1961 43.6561 27.5744 43.2428 30.7799C43.1394 31.5864 43.5941 31.9793 44.1521 31.3589C47.6241 27.6158 47.0868 23.0247 47.0041 22.487C46.9834 22.1354 46.9008 21.8045 46.7768 21.4943C46.8181 21.3082 46.8388 21.1014 46.8388 20.8946C46.8388 19.9226 46.3841 19.0747 45.6608 18.537C45.7021 18.3716 45.7228 18.1855 45.7228 17.9993C45.7228 16.7999 44.9788 15.7865 43.9454 15.3522C43.9248 14.008 42.9328 12.9119 41.6514 12.7258C41.4241 11.5263 40.3701 10.5957 39.1094 10.5957H38.9648C38.6548 9.60306 37.7248 8.89992 36.6294 8.89992C36.4228 8.89992 36.2161 8.9206 36.0094 8.98264C35.6374 8.1761 34.8314 7.61773 33.9014 7.61773C33.5294 7.61773 33.1988 7.70045 32.8888 7.84522C32.5168 7.20412 31.8141 6.76983 30.9874 6.76983C30.4708 6.76983 29.9954 6.95596 29.6234 7.24548C29.2514 6.72847 28.6521 6.39758 27.9701 6.39758C27.3294 6.39758 26.7508 6.70779 26.3788 7.16276C26.0274 6.72847 25.5108 6.45963 24.9114 6.45963C24.1468 6.45963 23.4854 6.91459 23.1961 7.57637C22.8861 7.20412 22.4108 6.95596 21.8734 6.95596C20.9848 6.95596 20.2408 7.63841 20.1581 8.50699C19.8688 8.13474 19.4141 7.88658 18.8974 7.88658C18.0294 7.88658 17.3268 8.58971 17.3268 9.4583C17.2854 10.2648 17.9881 10.968 18.8561 10.968Z"/>
</mask>
<path d="M18.8561 10.968C19.6414 10.968 20.3028 10.3889 20.4061 9.62374C20.7161 10.0787 21.2328 10.3682 21.8321 10.3682C22.4934 10.3682 23.0928 9.99599 23.3821 9.43761C23.7334 9.89258 24.2708 10.2028 24.8908 10.2028C25.4488 10.2028 25.9448 9.95463 26.2961 9.58238C26.6681 10.0994 27.2674 10.451 27.9701 10.451C28.4041 10.451 28.8174 10.3062 29.1481 10.0787C29.2308 10.2028 29.3134 10.3062 29.4168 10.4096C28.9001 10.4716 28.4248 10.6991 28.0734 11.03C27.6808 10.6784 27.1641 10.451 26.5854 10.451C25.8621 10.451 25.2008 10.8025 24.8081 11.3609C24.4568 11.0921 24.0228 10.9266 23.5268 10.9266C22.7001 10.9266 21.9768 11.4229 21.6461 12.1261C21.3361 11.9193 20.9641 11.7952 20.5508 11.7952C19.6208 11.7952 18.8354 12.4363 18.6494 13.3049C18.3808 13.1394 18.0501 13.036 17.6988 13.036C16.6861 13.036 15.8594 13.8632 15.8594 14.8766C15.6114 14.7318 15.3221 14.6491 15.0121 14.6491C14.0614 14.6491 13.2968 15.4143 13.2968 16.3656C13.2968 16.531 13.3174 16.6965 13.3588 16.8412C13.1108 16.6965 12.8421 16.6137 12.5321 16.6137C11.6641 16.6137 10.9408 17.3169 10.9408 18.2061C10.9408 19.0747 11.6434 19.7985 12.5321 19.7985C13.4208 19.7985 14.1234 19.0954 14.1234 18.2061C14.1234 18.0614 14.1028 17.9373 14.0614 17.8132C14.3301 17.9993 14.6608 18.1027 14.9914 18.1027C15.9214 18.1027 16.6654 17.3582 16.7068 16.4483C16.9961 16.6344 17.3268 16.7378 17.6781 16.7378H17.7814C17.3888 17.0894 17.1408 17.5857 17.0994 18.1234C16.9754 18.1027 16.8514 18.0821 16.7274 18.0821C15.6114 18.0821 14.7228 18.992 14.7228 20.0881C14.7228 20.1708 14.7228 20.2535 14.7434 20.3155C14.6608 20.3155 14.5988 20.2949 14.5161 20.2949C13.4621 20.2949 12.6148 21.1428 12.6148 22.1975C12.6148 22.4043 12.6561 22.6111 12.7181 22.7972H12.6148C11.6228 22.7972 10.8168 23.6037 10.8168 24.5964C10.8168 24.948 10.9201 25.2582 11.0854 25.527H11.0234C10.0934 25.527 9.32877 26.2922 9.32877 27.2228C9.32877 27.7192 9.53544 28.1535 9.8661 28.4637H9.8041C8.9361 28.4637 8.21277 29.1668 8.21277 30.0561C8.21277 30.9453 8.91544 31.6485 9.8041 31.6485C10.6721 31.6485 11.3954 30.9453 11.3954 30.0561C11.3954 29.6218 11.2094 29.2082 10.9201 28.9186H11.0234C11.5194 28.9186 11.9534 28.7118 12.2634 28.3809V28.443C12.2634 28.8773 12.4081 29.2702 12.6561 29.6011C11.9328 29.8699 11.4161 30.5524 11.4161 31.3589C11.4161 31.938 11.6641 32.4343 12.0774 32.7859C11.4574 33.0754 11.0441 33.6751 11.0441 34.399C11.0441 35.0814 11.4368 35.6811 11.9948 35.9707C11.4574 36.2395 11.0648 36.8186 11.0648 37.4803C11.0648 38.2869 11.6228 38.9487 12.3668 39.1141C11.8501 39.383 11.4988 39.9 11.4988 40.5204C11.4988 41.389 12.2014 42.1128 13.0901 42.1128C13.1934 42.1128 13.2761 42.0921 13.3794 42.0921C12.7801 42.2782 12.3254 42.8366 12.3254 43.5191C12.3254 44.3463 12.9868 45.008 13.8134 45.008C14.6401 45.008 15.3014 44.3463 15.3014 43.5191C15.3014 42.6918 14.6401 42.0301 13.8134 42.0301C13.7308 42.0301 13.6274 42.0507 13.5448 42.0507C14.1854 41.8439 14.6608 41.2442 14.6608 40.5411C14.6608 40.4997 14.6608 40.4583 14.6401 40.4377C14.8881 40.7065 15.2188 40.8926 15.5701 40.996C15.3014 41.3062 15.1568 41.6992 15.1568 42.1335C15.1568 43.1054 15.9421 43.8913 16.9134 43.8913H16.9548C16.7481 44.1601 16.6448 44.5117 16.6448 44.8633C16.6448 45.7939 17.3888 46.5384 18.3188 46.5384C18.4841 46.5384 18.6494 46.5177 18.8148 46.4764C18.6494 46.7245 18.5461 47.0347 18.5461 47.3656C18.5461 48.2549 19.2488 48.958 20.1374 48.958C20.5094 48.958 20.8608 48.8133 21.1294 48.6064C20.9021 48.8753 20.7574 49.2062 20.7574 49.5784C20.7574 50.4057 21.4394 51.0881 22.2661 51.0881C23.0928 51.0881 23.7748 50.4057 23.7748 49.5784C23.7748 49.1648 23.6094 48.8133 23.3614 48.5444C23.5681 48.5444 23.7541 48.503 23.9401 48.441V48.4617C23.9401 49.1855 24.3534 49.8059 24.9528 50.0954C24.8701 50.0748 24.7668 50.0748 24.6841 50.0748C23.8988 50.0748 23.2581 50.7159 23.2581 51.5017C23.2581 52.2876 23.8988 52.9287 24.6841 52.9287C25.4694 52.9287 26.1101 52.2876 26.1101 51.5017C26.1101 50.964 25.8001 50.4884 25.3661 50.2609C25.5108 50.3022 25.6554 50.3229 25.8001 50.3229C26.1514 50.3229 26.4821 50.2195 26.7714 50.0334C26.8541 50.9433 27.5981 51.6465 28.5281 51.6465C29.0241 51.6465 29.4788 51.4397 29.7888 51.1088C29.9128 51.9153 30.6154 52.5151 31.4421 52.5151C32.0828 52.5151 32.6408 52.1635 32.9094 51.6258C33.0541 52.3496 33.6948 52.908 34.4594 52.908C35.2861 52.908 35.9474 52.2876 36.0301 51.481C36.0921 52.2669 36.7328 52.8873 37.5181 52.8873C38.3448 52.8873 39.0268 52.2049 39.0268 51.3776C39.0268 50.5504 38.3654 49.8886 37.5594 49.868C37.7041 49.7232 37.8074 49.5578 37.9108 49.3923C38.2414 49.7439 38.7168 49.9507 39.2334 49.9507C39.4194 49.9507 39.6261 49.93 39.7914 49.868C39.4194 50.1161 39.1714 50.5504 39.1714 51.0467C39.1714 51.8326 39.8121 52.4737 40.5974 52.4737C41.3828 52.4737 42.0234 51.8326 42.0234 51.0467C42.0234 50.2609 41.3828 49.6198 40.5974 49.6198C40.4528 49.6198 40.3081 49.6405 40.1841 49.6818C40.5974 49.4337 40.9074 49.0201 41.0314 48.5237C41.3414 48.7926 41.7341 48.9373 42.1681 48.9373C43.1394 48.9373 43.9248 48.1515 43.9248 47.1795V47.1381C44.1934 47.3449 44.5448 47.4483 44.8961 47.4483C45.8261 47.4483 46.5701 46.7038 46.5701 45.7732C46.5701 45.6078 46.5494 45.4423 46.5081 45.2769C46.7561 45.4423 47.0661 45.5457 47.3968 45.5457C48.2854 45.5457 48.9881 44.8426 48.9881 43.9533C48.9881 43.5811 48.8434 43.2295 48.6368 42.9607C48.9054 43.1882 49.2361 43.3329 49.6081 43.3329C50.4348 43.3329 51.1168 42.6505 51.1168 41.8233C51.1168 40.996 50.4348 40.3136 49.6081 40.3136C49.1948 40.3136 48.8434 40.479 48.5748 40.7272C48.5748 40.5204 48.5334 40.3343 48.4714 40.1481H48.4921C49.2154 40.1481 49.8354 39.7345 50.1248 39.1348C50.1041 39.2175 50.1041 39.3209 50.1041 39.4036C50.1041 40.1895 50.7448 40.8306 51.5301 40.8306C52.3154 40.8306 52.9561 40.1895 52.9561 39.4036C52.9561 38.6178 52.3154 37.9767 51.5301 37.9767C50.9928 37.9767 50.5174 38.2869 50.2901 38.7212C50.3314 38.5764 50.3521 38.4317 50.3521 38.2869C50.3521 37.9353 50.2488 37.6044 50.0628 37.3149C50.9721 37.2322 51.6748 36.4877 51.6748 35.5571C51.6748 35.0607 51.4681 34.6058 51.1374 34.2956C51.9434 34.1715 52.5428 33.4683 52.5428 32.6411C52.5428 32 52.1914 31.4416 51.6541 31.1728C52.3774 31.028 52.9354 30.3869 52.9354 29.6218C52.9354 28.7945 52.3154 28.1328 51.5094 28.05C52.2948 27.988 52.9148 27.3469 52.9148 26.5611C52.9148 25.7338 52.2328 25.0514 51.4061 25.0514C50.5794 25.0514 49.8974 25.7338 49.8974 26.5611C49.8974 27.3469 50.4761 27.9673 51.2408 28.05C50.4141 28.1121 49.7528 28.7945 49.7528 29.6218C49.7528 30.2215 50.0834 30.7385 50.5794 31.0074C49.7941 31.1521 49.1948 31.8346 49.1948 32.6618C49.1948 33.1168 49.3808 33.5304 49.6908 33.8406C48.8228 33.9647 48.1614 34.6885 48.1614 35.5777C48.1614 35.9086 48.2441 36.1982 48.4094 36.467C47.4381 36.529 46.6734 37.3149 46.6734 38.3076C46.6734 38.4937 46.6941 38.6798 46.7561 38.8453H46.6734C45.6194 38.8453 44.7514 39.7138 44.7514 40.7685V40.9133C44.6481 40.8926 44.5448 40.8926 44.4414 40.8926C43.4288 40.8926 42.6021 41.6371 42.4574 42.6091C42.2921 42.5677 42.1061 42.5264 41.8994 42.5264C41.0521 42.5264 40.3288 43.0227 39.9981 43.7259C39.5848 43.395 39.0474 43.2502 38.4894 43.3536C37.8694 43.4777 37.3941 43.8706 37.1461 44.4083C36.7534 43.974 36.1541 43.7465 35.5341 43.8293C34.9348 43.912 34.4388 44.2842 34.1701 44.7806C33.8394 44.3669 33.3228 44.0981 32.7441 44.0981C32.2068 44.0981 31.7314 44.3256 31.3801 44.6772C31.1734 44.2015 30.7601 43.8293 30.2228 43.6638C29.6648 43.4984 29.0861 43.6018 28.6314 43.9327C28.5074 43.395 28.1561 42.9193 27.6394 42.6712C27.1228 42.423 26.5648 42.4437 26.0894 42.6505C26.0688 42.1335 25.8414 41.6164 25.3868 41.2649C24.9528 40.934 24.4361 40.8099 23.9401 40.8926C24.0641 40.3756 23.9608 39.8172 23.6301 39.3623C23.2788 38.8866 22.7208 38.6385 22.1834 38.6178C22.3901 38.1214 22.3901 37.5424 22.1214 37.0254C21.8734 36.5497 21.4601 36.2395 20.9848 36.1154C21.2741 35.7225 21.4188 35.2262 21.3361 34.6885C21.2534 34.1094 20.9021 33.6545 20.4268 33.3856C20.8814 33.034 21.1501 32.4964 21.1501 31.8966C21.1501 31.3589 20.9021 30.8626 20.5094 30.5317C20.9641 30.3042 21.3361 29.8699 21.4808 29.3322C21.6254 28.7945 21.5014 28.2569 21.1914 27.8226C21.6668 27.7192 22.1008 27.409 22.3694 26.954C22.6588 26.4577 22.6794 25.8993 22.5141 25.4029C23.0514 25.4236 23.5888 25.2168 23.9814 24.7825C24.3741 24.3482 24.5188 23.8106 24.4361 23.2729C24.9321 23.3969 25.4694 23.3142 25.9241 23.004C26.3994 22.6731 26.6681 22.1768 26.7094 21.6598C27.1848 21.9079 27.7634 21.9493 28.2801 21.7218C28.7761 21.515 29.1274 21.1221 29.2928 20.6464C29.6648 20.9773 30.1814 21.1634 30.7188 21.1221C31.3181 21.06 31.8141 20.7292 32.1034 20.2742C32.4134 20.7085 32.9094 21.0187 33.4674 21.06C34.0254 21.1014 34.5214 20.8946 34.8934 20.543C35.0794 21.0187 35.4928 21.4323 36.0301 21.6184C36.5881 21.8045 37.1668 21.7011 37.6214 21.4116C37.7248 21.9286 38.0348 22.425 38.5514 22.6938C38.9648 22.9213 39.4401 22.9627 39.8741 22.8592C39.9154 22.9213 39.9774 23.004 40.0394 23.0661C40.0601 23.459 40.2254 23.8519 40.4941 24.1621L40.5354 24.2035C41.4654 25.1961 43.6561 27.5744 43.2428 30.7799C43.1394 31.5864 43.5941 31.9793 44.1521 31.3589C47.6241 27.6158 47.0868 23.0247 47.0041 22.487C46.9834 22.1354 46.9008 21.8045 46.7768 21.4943C46.8181 21.3082 46.8388 21.1014 46.8388 20.8946C46.8388 19.9226 46.3841 19.0747 45.6608 18.537C45.7021 18.3716 45.7228 18.1855 45.7228 17.9993C45.7228 16.7999 44.9788 15.7865 43.9454 15.3522C43.9248 14.008 42.9328 12.9119 41.6514 12.7258C41.4241 11.5263 40.3701 10.5957 39.1094 10.5957H38.9648C38.6548 9.60306 37.7248 8.89992 36.6294 8.89992C36.4228 8.89992 36.2161 8.9206 36.0094 8.98264C35.6374 8.1761 34.8314 7.61773 33.9014 7.61773C33.5294 7.61773 33.1988 7.70045 32.8888 7.84522C32.5168 7.20412 31.8141 6.76983 30.9874 6.76983C30.4708 6.76983 29.9954 6.95596 29.6234 7.24548C29.2514 6.72847 28.6521 6.39758 27.9701 6.39758C27.3294 6.39758 26.7508 6.70779 26.3788 7.16276C26.0274 6.72847 25.5108 6.45963 24.9114 6.45963C24.1468 6.45963 23.4854 6.91459 23.1961 7.57637C22.8861 7.20412 22.4108 6.95596 21.8734 6.95596C20.9848 6.95596 20.2408 7.63841 20.1581 8.50699C19.8688 8.13474 19.4141 7.88658 18.8974 7.88658C18.0294 7.88658 17.3268 8.58971 17.3268 9.4583C17.2854 10.2648 17.9881 10.968 18.8561 10.968Z" stroke="black" stroke-width="2" mask="url(#path-88-inside-1_97_6872)"/>
<path d="M8.2545 51.9989C8.32325 51.9989 8.37899 51.9431 8.37899 51.8744C8.37899 51.8056 8.32325 51.7499 8.2545 51.7499C8.18574 51.7499 8.13 51.8056 8.13 51.8744C8.13 51.9431 8.18574 51.9989 8.2545 51.9989Z" stroke="black"/>
<path d="M6.82796 49.413C6.96492 49.413 7.07595 49.3019 7.07595 49.1648C7.07595 49.0277 6.96492 48.9166 6.82796 48.9166C6.69099 48.9166 6.57996 49.0277 6.57996 49.1648C6.57996 49.3019 6.69099 49.413 6.82796 49.413Z" stroke="black"/>
<path d="M5.56346 46.3109C5.56346 46.2406 5.62046 46.1831 5.69146 46.1831C5.76246 46.1831 5.81946 46.2406 5.81946 46.3109C5.81946 46.3811 5.76247 46.4386 5.69146 46.4386C5.62044 46.4386 5.56346 46.3811 5.56346 46.3109Z" stroke="black"/>
<path d="M4.8405 43.3345C4.84022 43.3338 4.8401 43.3332 4.84005 43.333C4.8401 43.3328 4.84022 43.3322 4.8405 43.3315L4.84091 43.3307L4.84107 43.3305L4.84131 43.3303L4.8422 43.3299C4.84304 43.3295 4.84375 43.3294 4.844 43.3294C4.84401 43.3294 4.84401 43.3294 4.84402 43.3294C4.84403 43.3294 4.84404 43.3294 4.84405 43.3294C4.84429 43.3294 4.84501 43.3295 4.84585 43.3299L4.84674 43.3303L4.84697 43.3305L4.84713 43.3307L4.84755 43.3315C4.84783 43.3322 4.84794 43.3328 4.84799 43.333C4.84794 43.3332 4.84783 43.3338 4.84755 43.3345L4.84713 43.3353L4.84697 43.3355L4.84674 43.3357L4.84584 43.3361C4.84501 43.3365 4.84429 43.3366 4.84405 43.3366C4.84404 43.3367 4.84403 43.3367 4.84402 43.3367C4.84402 43.3367 4.84401 43.3367 4.844 43.3366C4.84375 43.3366 4.84304 43.3365 4.8422 43.3361L4.84131 43.3357L4.84108 43.3355L4.84092 43.3353L4.8405 43.3345Z" stroke="black"/>
<path d="M4.46803 40.3137C4.46803 40.3805 4.41399 40.4341 4.34803 40.4341C4.28207 40.4341 4.22803 40.3805 4.22803 40.3137C4.22803 40.2468 4.28207 40.1932 4.34803 40.1932C4.41399 40.1932 4.46803 40.2468 4.46803 40.3137Z" stroke="black"/>
<path d="M4.36464 37.2321C4.36464 37.356 4.26433 37.4559 4.1413 37.4559C4.01827 37.4559 3.91797 37.356 3.91797 37.2321C3.91797 37.1082 4.01827 37.0083 4.1413 37.0083C4.26433 37.0083 4.36464 37.1082 4.36464 37.2321Z" stroke="black"/>
<path d="M4.63339 34.1714C4.63339 34.3638 4.47756 34.5193 4.28605 34.5193C4.09454 34.5193 3.93872 34.3638 3.93872 34.1714C3.93872 33.9789 4.09454 33.8235 4.28605 33.8235C4.47756 33.8235 4.63339 33.9789 4.63339 34.1714Z" stroke="black"/>
<path d="M5.21208 31.1315C5.21208 31.3925 5.00074 31.6035 4.74074 31.6035C4.48075 31.6035 4.26941 31.3925 4.26941 31.1315C4.26941 30.8705 4.48075 30.6595 4.74074 30.6595C5.00074 30.6595 5.21208 30.8705 5.21208 31.1315Z" stroke="black"/>
<path d="M6.18346 28.1741C6.18346 28.5036 5.91661 28.7701 5.58813 28.7701C5.25965 28.7701 4.9928 28.5036 4.9928 28.1741C4.9928 27.8446 5.25965 27.578 5.58813 27.578C5.91661 27.578 6.18346 27.8446 6.18346 28.1741Z" stroke="black"/>
<path d="M7.52668 25.3615C7.52668 25.7595 7.20431 26.0817 6.80735 26.0817C6.41039 26.0817 6.08801 25.7595 6.08801 25.3615C6.08801 24.9635 6.41038 24.6414 6.80735 24.6414C7.20431 24.6414 7.52668 24.9635 7.52668 25.3615Z" stroke="black"/>
<path d="M9.24209 22.7145C9.24209 23.181 8.8642 23.5587 8.39875 23.5587C7.93331 23.5587 7.55542 23.181 7.55542 22.7145C7.55542 22.2479 7.93331 21.8702 8.39875 21.8702C8.8642 21.8702 9.24209 22.2479 9.24209 22.7145Z" stroke="black"/>
<path d="M11.2673 20.3155C11.2673 20.8506 10.8339 21.2838 10.3 21.2838C9.76605 21.2838 9.33264 20.8506 9.33264 20.3155C9.33264 19.7804 9.76605 19.3472 10.3 19.3472C10.8339 19.3472 11.2673 19.7804 11.2673 20.3155Z" stroke="black"/>
</svg>
