<svg width="64" height="64" viewBox="0 0 64 64" fill="none" xmlns="http://www.w3.org/2000/svg">
<g clip-path="url(#clip0_97_6758)">
<path d="M29.2724 63.0007C29.3297 63.0007 29.3762 62.9543 29.3762 62.897C29.3762 62.8397 29.3297 62.7932 29.2724 62.7932C29.2151 62.7932 29.1687 62.8397 29.1687 62.897C29.1687 62.9543 29.2151 63.0007 29.2724 63.0007Z" fill="#2A2A2A"/>
<path d="M26.3373 62.1729C26.4514 62.1729 26.5439 62.0803 26.5439 61.9661C26.5439 61.8519 26.4514 61.7593 26.3373 61.7593C26.2231 61.7593 26.1306 61.8519 26.1306 61.9661C26.1306 62.0803 26.2231 62.1729 26.3373 62.1729Z" fill="#2A2A2A"/>
<path d="M23.506 61.0767C23.6773 61.0767 23.816 60.9378 23.816 60.7665C23.816 60.5952 23.6773 60.4563 23.506 60.4563C23.3348 60.4563 23.196 60.5952 23.196 60.7665C23.196 60.9378 23.3348 61.0767 23.506 61.0767Z" fill="#2A2A2A"/>
<path d="M20.8401 59.6705C21.0684 59.6705 21.2534 59.4853 21.2534 59.2569C21.2534 59.0284 21.0684 58.8433 20.8401 58.8433C20.6118 58.8433 20.4268 59.0284 20.4268 59.2569C20.4268 59.4853 20.6118 59.6705 20.8401 59.6705Z" fill="#2A2A2A"/>
<path d="M18.3393 58.0161C18.6361 58.0161 18.8767 57.7753 18.8767 57.4784C18.8767 57.1814 18.6361 56.9407 18.3393 56.9407C18.0426 56.9407 17.802 57.1814 17.802 57.4784C17.802 57.7753 18.0426 58.0161 18.3393 58.0161Z" fill="#2A2A2A"/>
<path d="M16.0247 56.0722C16.3785 56.0722 16.6654 55.7852 16.6654 55.4311C16.6654 55.0771 16.3785 54.79 16.0247 54.79C15.6709 54.79 15.384 55.0771 15.384 55.4311C15.384 55.7852 15.6709 56.0722 16.0247 56.0722Z" fill="#2A2A2A"/>
<path d="M13.958 53.9214C14.3689 53.9214 14.702 53.588 14.702 53.1769C14.702 52.7657 14.3689 52.4324 13.958 52.4324C13.5471 52.4324 13.214 52.7657 13.214 53.1769C13.214 53.588 13.5471 53.9214 13.958 53.9214Z" fill="#2A2A2A"/>
<path d="M12.1394 51.543C12.6074 51.543 12.9868 51.1634 12.9868 50.6951C12.9868 50.2268 12.6074 49.8472 12.1394 49.8472C11.6715 49.8472 11.2921 50.2268 11.2921 50.6951C11.2921 51.1634 11.6715 51.543 12.1394 51.543Z" fill="#2A2A2A"/>
<path d="M10.6307 48.9581C11.1558 48.9581 11.5814 48.5322 11.5814 48.0068C11.5814 47.4815 11.1558 47.0555 10.6307 47.0555C10.1057 47.0555 9.68005 47.4815 9.68005 48.0068C9.68005 48.5322 10.1057 48.9581 10.6307 48.9581Z" fill="#2A2A2A"/>
<path d="M9.51469 46.2076C10.0968 46.2076 10.5687 45.7353 10.5687 45.1529C10.5687 44.5704 10.0968 44.0981 9.51469 44.0981C8.93258 44.0981 8.46069 44.5704 8.46069 45.1529C8.46069 45.7353 8.93258 46.2076 9.51469 46.2076Z" fill="#2A2A2A"/>
<path d="M8.77062 43.3329C9.40979 43.3329 9.92795 42.8144 9.92795 42.1748C9.92795 41.5352 9.40979 41.0167 8.77062 41.0167C8.13144 41.0167 7.61328 41.5352 7.61328 42.1748C7.61328 42.8144 8.13144 43.3329 8.77062 43.3329Z" fill="#2A2A2A"/>
<path d="M8.41936 40.3757C9.1156 40.3757 9.68002 39.8109 9.68002 39.1142C9.68002 38.4175 9.1156 37.8527 8.41936 37.8527C7.72311 37.8527 7.15869 38.4175 7.15869 39.1142C7.15869 39.8109 7.72311 40.3757 8.41936 40.3757Z" fill="#2A2A2A"/>
<path d="M8.48147 37.4184C9.2462 37.4184 9.86613 36.7981 9.86613 36.0328C9.86613 35.2676 9.2462 34.6472 8.48147 34.6472C7.71674 34.6472 7.0968 35.2676 7.0968 36.0328C7.0968 36.7981 7.71674 37.4184 8.48147 37.4184Z" fill="#2A2A2A"/>
<path d="M8.93612 34.4818C9.75792 34.4818 10.4241 33.8151 10.4241 32.9928C10.4241 32.1704 9.75792 31.5038 8.93612 31.5038C8.11432 31.5038 7.44812 32.1704 7.44812 32.9928C7.44812 33.8151 8.11432 34.4818 8.93612 34.4818Z" fill="#2A2A2A"/>
<path d="M51.9231 55.9073C51.9804 55.9073 52.0268 55.8609 52.0268 55.8036C52.0268 55.7463 51.9804 55.6998 51.9231 55.6998C51.8658 55.6998 51.8193 55.7463 51.8193 55.8036C51.8193 55.8609 51.8658 55.9073 51.9231 55.9073Z" fill="#2A2A2A"/>
<path d="M49.1946 57.0441C49.0912 57.0441 49.0086 57.1268 49.0086 57.2302C49.0086 57.3336 49.0912 57.4163 49.1946 57.4163C49.2979 57.4163 49.3806 57.3336 49.3806 57.2302C49.3806 57.1268 49.2979 57.0441 49.1946 57.0441ZM46.3426 58.0781C46.1979 58.0781 46.0532 58.2022 46.0532 58.3676C46.0532 58.5331 46.1772 58.6571 46.3426 58.6571C46.5079 58.6571 46.6319 58.5331 46.6319 58.3676C46.6112 58.2022 46.4872 58.0781 46.3426 58.0781Z" fill="#2A2A2A"/>
<path d="M43.3874 59.5671C43.5928 59.5671 43.7594 59.4005 43.7594 59.1949C43.7594 58.9893 43.5928 58.8226 43.3874 58.8226C43.1819 58.8226 43.0154 58.9893 43.0154 59.1949C43.0154 59.4005 43.1819 59.5671 43.3874 59.5671Z" fill="#2A2A2A"/>
<path d="M40.3494 59.2362C40.0807 59.2362 39.874 59.443 39.874 59.7119C39.874 59.96 40.0807 60.1875 40.3494 60.1875C40.5974 60.1875 40.8247 59.9807 40.8247 59.7119C40.8247 59.443 40.618 59.2362 40.3494 59.2362Z" fill="#2A2A2A"/>
<path d="M37.2907 60.4563C37.5988 60.4563 37.8487 60.2063 37.8487 59.898C37.8487 59.5896 37.5988 59.3396 37.2907 59.3396C36.9825 59.3396 36.7327 59.5896 36.7327 59.898C36.7327 60.2063 36.9825 60.4563 37.2907 60.4563Z" fill="#2A2A2A"/>
<path d="M34.2113 60.4151C34.5765 60.4151 34.8726 60.1188 34.8726 59.7533C34.8726 59.3878 34.5765 59.0916 34.2113 59.0916C33.846 59.0916 33.5499 59.3878 33.5499 59.7533C33.5499 60.1188 33.846 60.4151 34.2113 60.4151Z" fill="#2A2A2A"/>
<path d="M31.1733 60.0428C31.5842 60.0428 31.9173 59.7095 31.9173 59.2983C31.9173 58.8872 31.5842 58.5538 31.1733 58.5538C30.7624 58.5538 30.4293 58.8872 30.4293 59.2983C30.4293 59.7095 30.7624 60.0428 31.1733 60.0428Z" fill="#2A2A2A"/>
<path d="M28.2181 59.2982C28.686 59.2982 29.0654 58.9186 29.0654 58.4503C29.0654 57.982 28.686 57.6024 28.2181 57.6024C27.7501 57.6024 27.3707 57.982 27.3707 58.4503C27.3707 58.9186 27.7501 59.2982 28.2181 59.2982Z" fill="#2A2A2A"/>
<path d="M25.4073 58.1608C25.9209 58.1608 26.3373 57.7442 26.3373 57.2302C26.3373 56.7162 25.9209 56.2996 25.4073 56.2996C24.8937 56.2996 24.4773 56.7162 24.4773 57.2302C24.4773 57.7442 24.8937 58.1608 25.4073 58.1608Z" fill="#2A2A2A"/>
<path d="M22.7621 56.6924C23.3328 56.6924 23.7954 56.2295 23.7954 55.6584C23.7954 55.0873 23.3328 54.6244 22.7621 54.6244C22.1914 54.6244 21.7288 55.0873 21.7288 55.6584C21.7288 56.2295 22.1914 56.6924 22.7621 56.6924Z" fill="#2A2A2A"/>
<path d="M20.3647 54.852C20.981 54.852 21.4807 54.352 21.4807 53.7353C21.4807 53.1185 20.981 52.6185 20.3647 52.6185C19.7483 52.6185 19.2487 53.1185 19.2487 53.7353C19.2487 54.352 19.7483 54.852 20.3647 54.852Z" fill="#2A2A2A"/>
<path d="M18.2361 52.7424C18.9095 52.7424 19.4554 52.1961 19.4554 51.5223C19.4554 50.8484 18.9095 50.3021 18.2361 50.3021C17.5626 50.3021 17.0167 50.8484 17.0167 51.5223C17.0167 52.1961 17.5626 52.7424 18.2361 52.7424Z" fill="#2A2A2A"/>
<path d="M16.4174 50.3643C17.1364 50.3643 17.7194 49.781 17.7194 49.0614C17.7194 48.3419 17.1364 47.7585 16.4174 47.7585C15.6983 47.7585 15.1154 48.3419 15.1154 49.0614C15.1154 49.781 15.6983 50.3643 16.4174 50.3643Z" fill="#2A2A2A"/>
<path d="M14.9293 47.7791C15.7054 47.7791 16.3346 47.1495 16.3346 46.3728C16.3346 45.5962 15.7054 44.9666 14.9293 44.9666C14.1531 44.9666 13.5239 45.5962 13.5239 46.3728C13.5239 47.1495 14.1531 47.7791 14.9293 47.7791Z" fill="#2A2A2A"/>
<path d="M62.9177 34.8338C62.9635 34.8338 63.0007 34.7967 63.0007 34.7508C63.0007 34.705 62.9635 34.6678 62.9177 34.6678C62.8719 34.6678 62.8347 34.705 62.8347 34.7508C62.8347 34.7967 62.8719 34.8338 62.9177 34.8338Z" fill="#2A2A2A"/>
<path d="M62.008 37.8526C62.0993 37.8526 62.1733 37.7785 62.1733 37.6872C62.1733 37.5958 62.0993 37.5217 62.008 37.5217C61.9167 37.5217 61.8427 37.5958 61.8427 37.6872C61.8427 37.7785 61.9167 37.8526 62.008 37.8526Z" fill="#2A2A2A"/>
<path d="M60.7887 40.2722C60.644 40.2722 60.5407 40.3756 60.5407 40.5204C60.5407 40.6651 60.644 40.7685 60.7887 40.7685C60.9333 40.7685 61.0367 40.6651 61.0367 40.5204C61.0367 40.3756 60.9333 40.2722 60.7887 40.2722ZM59.28 42.8573C59.094 42.8573 58.9493 43.002 58.9493 43.1882C58.9493 43.3743 59.094 43.5191 59.28 43.5191C59.466 43.5191 59.6107 43.3743 59.6107 43.1882C59.6107 43.002 59.466 42.8573 59.28 42.8573Z" fill="#2A2A2A"/>
<path d="M57.5027 46.1248C57.731 46.1248 57.916 45.9396 57.916 45.7112C57.916 45.4828 57.731 45.2976 57.5027 45.2976C57.2744 45.2976 57.0894 45.4828 57.0894 45.7112C57.0894 45.9396 57.2744 46.1248 57.5027 46.1248Z" fill="#2A2A2A"/>
<path d="M55.4773 48.5029C55.7513 48.5029 55.9733 48.2807 55.9733 48.0066C55.9733 47.7325 55.7513 47.5103 55.4773 47.5103C55.2034 47.5103 54.9813 47.7325 54.9813 48.0066C54.9813 48.2807 55.2034 48.5029 55.4773 48.5029Z" fill="#2A2A2A"/>
<path d="M53.204 50.6745C53.5236 50.6745 53.7827 50.4152 53.7827 50.0954C53.7827 49.7756 53.5236 49.5164 53.204 49.5164C52.8844 49.5164 52.6254 49.7756 52.6254 50.0954C52.6254 50.4152 52.8844 50.6745 53.204 50.6745Z" fill="#2A2A2A"/>
<path d="M50.7241 52.5771C51.0893 52.5771 51.3854 52.2808 51.3854 51.9153C51.3854 51.5498 51.0893 51.2535 50.7241 51.2535C50.3588 51.2535 50.0627 51.5498 50.0627 51.9153C50.0627 52.2808 50.3588 52.5771 50.7241 52.5771Z" fill="#2A2A2A"/>
<path d="M48.0373 52.6597C47.624 52.6597 47.2933 52.9906 47.2933 53.4042C47.2933 53.8178 47.624 54.1487 48.0373 54.1487C48.4507 54.1487 48.7813 53.8178 48.7813 53.4042C48.802 52.9906 48.4507 52.6597 48.0373 52.6597ZM45.1853 53.6937C44.7307 53.6937 44.338 54.0659 44.338 54.5416C44.338 55.0172 44.71 55.3895 45.1853 55.3895C45.64 55.3895 46.0327 55.0172 46.0327 54.5416C46.0327 54.0659 45.64 53.6937 45.1853 53.6937Z" fill="#2A2A2A"/>
<path d="M42.2093 56.217C42.7229 56.217 43.1393 55.8003 43.1393 55.2863C43.1393 54.7724 42.7229 54.3557 42.2093 54.3557C41.6957 54.3557 41.2793 54.7724 41.2793 55.2863C41.2793 55.8003 41.6957 56.217 42.2093 56.217Z" fill="#2A2A2A"/>
<path d="M39.1506 56.6306C39.7099 56.6306 40.1633 56.1769 40.1633 55.6172C40.1633 55.0576 39.7099 54.6039 39.1506 54.6039C38.5913 54.6039 38.1379 55.0576 38.1379 55.6172C38.1379 56.1769 38.5913 56.6306 39.1506 56.6306Z" fill="#2A2A2A"/>
<path d="M36.0919 56.6719C36.6968 56.6719 37.1872 56.1811 37.1872 55.5758C37.1872 54.9705 36.6968 54.4797 36.0919 54.4797C35.487 54.4797 34.9966 54.9705 34.9966 55.5758C34.9966 56.1811 35.487 56.6719 36.0919 56.6719Z" fill="#2A2A2A"/>
<path d="M34.2113 55.1208C34.2113 54.4797 33.6947 53.942 33.0333 53.942C32.3927 53.942 31.8553 54.459 31.8553 55.1208C31.8553 55.7619 32.372 56.2996 33.0333 56.2996C33.6947 56.2789 34.2113 55.7619 34.2113 55.1208Z" fill="#2A2A2A"/>
<path d="M30.0987 55.5342C30.7949 55.5342 31.3593 54.9695 31.3593 54.2727C31.3593 53.576 30.7949 53.0112 30.0987 53.0112C29.4024 53.0112 28.838 53.576 28.838 54.2727C28.838 54.9695 29.4024 55.5342 30.0987 55.5342Z" fill="#2A2A2A"/>
<path d="M27.2673 54.3765C28.0092 54.3765 28.6106 53.7746 28.6106 53.0322C28.6106 52.2898 28.0092 51.688 27.2673 51.688C26.5254 51.688 25.924 52.2898 25.924 53.0322C25.924 53.7746 26.5254 54.3765 27.2673 54.3765Z" fill="#2A2A2A"/>
<path d="M55.8286 12.188C55.87 12.188 55.9113 12.1467 55.9113 12.1053C55.9113 12.0639 55.87 12.0226 55.8286 12.0226C55.7873 12.0226 55.746 12.0639 55.746 12.1053C55.746 12.1467 55.7873 12.188 55.8286 12.188ZM57.2546 14.9799C57.3373 14.9799 57.42 14.8972 57.42 14.8144C57.42 14.7317 57.3373 14.649 57.2546 14.649C57.172 14.649 57.0893 14.7317 57.0893 14.8144C57.0893 14.9179 57.172 14.9799 57.2546 14.9799ZM58.3913 17.9372C58.536 17.9372 58.6393 17.8338 58.6393 17.689C58.6393 17.5443 58.536 17.4409 58.3913 17.4409C58.2466 17.4409 58.1433 17.5443 58.1433 17.689C58.1433 17.8131 58.2466 17.9372 58.3913 17.9372ZM59.218 20.9772C59.404 20.9772 59.5486 20.8325 59.5486 20.6463C59.5486 20.4602 59.404 20.3155 59.218 20.3155C59.032 20.3155 58.8873 20.4602 58.8873 20.6463C58.8873 20.8325 59.032 20.9772 59.218 20.9772Z" fill="#2A2A2A"/>
<path d="M59.7346 24.0794C59.9629 24.0794 60.148 23.8942 60.148 23.6658C60.148 23.4374 59.9629 23.2522 59.7346 23.2522C59.5063 23.2522 59.3213 23.4374 59.3213 23.6658C59.3213 23.8942 59.5063 24.0794 59.7346 24.0794Z" fill="#2A2A2A"/>
<path d="M59.9207 27.2229C60.1946 27.2229 60.4167 27.0007 60.4167 26.7266C60.4167 26.4524 60.1946 26.2302 59.9207 26.2302C59.6467 26.2302 59.4247 26.4524 59.4247 26.7266C59.4247 27.0007 59.6467 27.2229 59.9207 27.2229Z" fill="#2A2A2A"/>
<path d="M59.7967 29.2289C59.466 29.2289 59.218 29.4977 59.218 29.8079C59.218 30.1388 59.4867 30.387 59.7967 30.387C60.1274 30.387 60.3754 30.1181 60.3754 29.8079C60.3754 29.477 60.1067 29.2289 59.7967 29.2289ZM59.3214 32.1862C58.9494 32.1862 58.66 32.4964 58.66 32.848C58.66 33.2202 58.9494 33.5097 59.3214 33.5097C59.6934 33.5097 59.9827 33.2202 59.9827 32.848C60.0034 32.4757 59.6934 32.1862 59.3214 32.1862Z" fill="#2A2A2A"/>
<path d="M58.4946 36.5498C58.9055 36.5498 59.2386 36.2165 59.2386 35.8053C59.2386 35.3941 58.9055 35.0608 58.4946 35.0608C58.0837 35.0608 57.7506 35.3941 57.7506 35.8053C57.7506 36.2165 58.0837 36.5498 58.4946 36.5498Z" fill="#2A2A2A"/>
<path d="M57.2753 39.4657C57.7433 39.4657 58.1226 39.0861 58.1226 38.6178C58.1226 38.1495 57.7433 37.7699 57.2753 37.7699C56.8073 37.7699 56.428 38.1495 56.428 38.6178C56.428 39.0861 56.8073 39.4657 57.2753 39.4657Z" fill="#2A2A2A"/>
<path d="M55.684 42.1955C56.1977 42.1955 56.614 41.7788 56.614 41.2649C56.614 40.7509 56.1977 40.3342 55.684 40.3342C55.1704 40.3342 54.754 40.7509 54.754 41.2649C54.754 41.7788 55.1704 42.1955 55.684 42.1955Z" fill="#2A2A2A"/>
<path d="M53.7621 42.6504C53.2041 42.6504 52.7494 43.1054 52.7494 43.6637C52.7494 44.2221 53.2041 44.6771 53.7621 44.6771C54.3201 44.6771 54.7747 44.2221 54.7747 43.6637C54.7747 43.1054 54.3201 42.6504 53.7621 42.6504Z" fill="#2A2A2A"/>
<path d="M51.5507 46.8899C52.1556 46.8899 52.646 46.3992 52.646 45.7938C52.646 45.1885 52.1556 44.6978 51.5507 44.6978C50.9457 44.6978 50.4553 45.1885 50.4553 45.7938C50.4553 46.3992 50.9457 46.8899 51.5507 46.8899Z" fill="#2A2A2A"/>
<path d="M49.0915 48.8131C49.742 48.8131 50.2695 48.2854 50.2695 47.6344C50.2695 46.9833 49.742 46.4556 49.0915 46.4556C48.4409 46.4556 47.9135 46.9833 47.9135 47.6344C47.9135 48.2854 48.4409 48.8131 49.0915 48.8131Z" fill="#2A2A2A"/>
<path d="M46.4047 50.3851C47.101 50.3851 47.6654 49.8203 47.6654 49.1236C47.6654 48.4269 47.101 47.8621 46.4047 47.8621C45.7085 47.8621 45.144 48.4269 45.144 49.1236C45.144 49.8203 45.7085 50.3851 46.4047 50.3851Z" fill="#2A2A2A"/>
<path d="M43.5527 48.896C42.8087 48.896 42.2094 49.4957 42.2094 50.2402C42.2094 50.9847 42.8087 51.5845 43.5527 51.5845C44.2967 51.5845 44.896 50.9847 44.896 50.2402C44.8754 49.4957 44.276 48.896 43.5527 48.896ZM34.8107 1.16544C34.852 1.16544 34.8934 1.12408 34.8934 1.08272C34.8934 1.04136 34.852 1 34.8107 1C34.7694 1 34.7281 1.04136 34.7281 1.08272C34.7281 1.14476 34.7487 1.16544 34.8107 1.16544Z" fill="#2A2A2A"/>
<path d="M37.7454 2.17879C37.8367 2.17879 37.9107 2.10472 37.9107 2.01334C37.9107 1.92197 37.8367 1.8479 37.7454 1.8479C37.6541 1.8479 37.5801 1.92197 37.5801 2.01334C37.5801 2.10472 37.6541 2.17879 37.7454 2.17879Z" fill="#2A2A2A"/>
<path d="M40.556 3.48156C40.7006 3.48156 40.804 3.37816 40.804 3.2334C40.804 3.08863 40.7006 2.98523 40.556 2.98523C40.4113 2.98523 40.308 3.08863 40.308 3.2334C40.308 3.35748 40.4113 3.48156 40.556 3.48156ZM43.2426 5.05328C43.4286 5.05328 43.5733 4.90851 43.5733 4.72239C43.5733 4.53627 43.4286 4.3915 43.2426 4.3915C43.0566 4.3915 42.912 4.53627 42.912 4.72239C42.912 4.90851 43.0566 5.05328 43.2426 5.05328ZM45.7433 6.9352C45.9706 6.9352 46.1566 6.74908 46.1566 6.52159C46.1566 6.29411 45.9706 6.10798 45.7433 6.10798C45.516 6.10798 45.33 6.29411 45.33 6.52159C45.33 6.74908 45.516 6.9352 45.7433 6.9352Z" fill="#2A2A2A"/>
<path d="M48.0374 9.04467C48.3113 9.04467 48.5334 8.82245 48.5334 8.54834C48.5334 8.27422 48.3113 8.052 48.0374 8.052C47.7634 8.052 47.5414 8.27422 47.5414 8.54834C47.5414 8.82245 47.7634 9.04467 48.0374 9.04467Z" fill="#2A2A2A"/>
<path d="M50.1247 11.4021C50.4554 11.4021 50.7034 11.1333 50.7034 10.8231C50.7034 10.4922 50.4347 10.244 50.1247 10.244C49.794 10.244 49.546 10.5129 49.546 10.8231C49.5254 11.1333 49.794 11.4021 50.1247 11.4021ZM51.9434 13.9458C52.3154 13.9458 52.6047 13.6356 52.6047 13.284C52.6047 12.9118 52.3154 12.6223 51.9434 12.6223C51.5714 12.6223 51.282 12.9118 51.282 13.284C51.282 13.6563 51.5714 13.9458 51.9434 13.9458Z" fill="#2A2A2A"/>
<path d="M53.4314 16.7171C53.8423 16.7171 54.1754 16.3838 54.1754 15.9726C54.1754 15.5615 53.8423 15.2281 53.4314 15.2281C53.0205 15.2281 52.6874 15.5615 52.6874 15.9726C52.6874 16.3838 53.0205 16.7171 53.4314 16.7171Z" fill="#2A2A2A"/>
<path d="M53.7413 18.8265C53.7413 19.2815 54.1133 19.6744 54.5887 19.6744C55.0433 19.6744 55.436 19.3022 55.436 18.8265C55.436 18.3716 55.064 17.9786 54.5887 17.9786C54.1133 17.9993 53.7413 18.3716 53.7413 18.8265ZM54.382 21.8045C54.382 22.3215 54.7953 22.7351 55.312 22.7351C55.8287 22.7351 56.242 22.3215 56.242 21.8045C56.242 21.2875 55.8287 20.8739 55.312 20.8739C54.7953 20.8946 54.382 21.3082 54.382 21.8045ZM54.6507 24.8652C54.6507 25.4236 55.1053 25.8786 55.6633 25.8786C56.2213 25.8786 56.676 25.4236 56.676 24.8652C56.676 24.3069 56.2213 23.8519 55.6633 23.8519C55.1053 23.8519 54.6507 24.3069 54.6507 24.8652Z" fill="#2A2A2A"/>
<path d="M55.6013 29.0427C56.2063 29.0427 56.6966 28.552 56.6966 27.9466C56.6966 27.3413 56.2063 26.8506 55.6013 26.8506C54.9964 26.8506 54.506 27.3413 54.506 27.9466C54.506 28.552 54.9964 29.0427 55.6013 29.0427Z" fill="#2A2A2A"/>
<path d="M55.1468 32.1654C55.7973 32.1654 56.3248 31.6377 56.3248 30.9867C56.3248 30.3356 55.7973 29.8079 55.1468 29.8079C54.4962 29.8079 53.9688 30.3356 53.9688 30.9867C53.9688 31.6377 54.4962 32.1654 55.1468 32.1654Z" fill="#2A2A2A"/>
<path d="M54.2994 35.2055C54.9956 35.2055 55.56 34.6407 55.56 33.944C55.56 33.2473 54.9956 32.6825 54.2994 32.6825C53.6031 32.6825 53.0387 33.2473 53.0387 33.944C53.0387 34.6407 53.6031 35.2055 54.2994 35.2055Z" fill="#2A2A2A"/>
<path d="M53.08 38.1007C53.8219 38.1007 54.4234 37.4989 54.4234 36.7565C54.4234 36.0141 53.8219 35.4122 53.08 35.4122C52.3381 35.4122 51.7367 36.0141 51.7367 36.7565C51.7367 37.4989 52.3381 38.1007 53.08 38.1007Z" fill="#2A2A2A"/>
<path d="M12.1604 8.2595C12.2062 8.2595 12.2434 8.22234 12.2434 8.1765C12.2434 8.13067 12.2062 8.09351 12.1604 8.09351C12.1145 8.09351 12.0774 8.13067 12.0774 8.1765C12.0774 8.22234 12.1145 8.2595 12.1604 8.2595Z" fill="#2A2A2A"/>
<path d="M14.888 6.91463C14.9793 6.91463 15.0533 6.84056 15.0533 6.74918C15.0533 6.65781 14.9793 6.58374 14.888 6.58374C14.7967 6.58374 14.7227 6.65781 14.7227 6.74918C14.7227 6.84056 14.7967 6.91463 14.888 6.91463Z" fill="#2A2A2A"/>
<path d="M17.7401 5.85986C17.877 5.85986 17.9881 5.74875 17.9881 5.61169C17.9881 5.47463 17.877 5.36353 17.7401 5.36353C17.6031 5.36353 17.4921 5.47463 17.4921 5.61169C17.4921 5.74875 17.6031 5.85986 17.7401 5.85986Z" fill="#2A2A2A"/>
<path d="M20.6954 5.11539C20.878 5.11539 21.0261 4.96724 21.0261 4.7845C21.0261 4.60176 20.878 4.45361 20.6954 4.45361C20.5128 4.45361 20.3647 4.60176 20.3647 4.7845C20.3647 4.96724 20.5128 5.11539 20.6954 5.11539Z" fill="#2A2A2A"/>
<path d="M23.7126 4.68098C23.9409 4.68098 24.126 4.4958 24.126 4.26737C24.126 4.03894 23.9409 3.85376 23.7126 3.85376C23.4844 3.85376 23.2993 4.03894 23.2993 4.26737C23.2993 4.4958 23.4844 4.68098 23.7126 4.68098Z" fill="#2A2A2A"/>
<path d="M26.792 4.57775C27.066 4.57775 27.288 4.35553 27.288 4.08141C27.288 3.8073 27.066 3.58508 26.792 3.58508C26.5181 3.58508 26.296 3.8073 26.296 4.08141C26.296 4.35553 26.5181 4.57775 26.792 4.57775Z" fill="#2A2A2A"/>
<path d="M29.8506 4.80532C30.1702 4.80532 30.4293 4.54607 30.4293 4.22627C30.4293 3.90647 30.1702 3.64722 29.8506 3.64722C29.5311 3.64722 29.272 3.90647 29.272 4.22627C29.272 4.54607 29.5311 4.80532 29.8506 4.80532Z" fill="#2A2A2A"/>
<path d="M32.8886 5.34284C33.2539 5.34284 33.55 5.04655 33.55 4.68106C33.55 4.31557 33.2539 4.01929 32.8886 4.01929C32.5234 4.01929 32.2273 4.31557 32.2273 4.68106C32.2273 5.04655 32.5234 5.34284 32.8886 5.34284Z" fill="#2A2A2A"/>
<path d="M35.844 6.25279C36.2549 6.25279 36.588 5.91947 36.588 5.50829C36.588 5.09712 36.2549 4.76379 35.844 4.76379C35.4331 4.76379 35.1 5.09712 35.1 5.50829C35.1 5.91947 35.4331 6.25279 35.844 6.25279Z" fill="#2A2A2A"/>
<path d="M38.6753 7.57641C39.13 7.57641 39.502 7.20417 39.502 6.72852C39.502 6.27355 39.13 5.88062 38.6753 5.88062C38.2207 5.88062 37.828 6.25287 37.828 6.72852C37.828 7.20417 38.2 7.57641 38.6753 7.57641ZM40.3907 8.32091C40.3907 8.83793 40.804 9.25153 41.3207 9.25153C41.8373 9.25153 42.2507 8.83793 42.2507 8.32091C42.2507 7.8039 41.8373 7.39029 41.3207 7.39029C40.804 7.41097 40.3907 7.82458 40.3907 8.32091ZM43.6973 11.2369C44.2553 11.2369 44.71 10.7819 44.71 10.2235C44.71 9.66514 44.2553 9.21017 43.6973 9.21017C43.1393 9.21017 42.6847 9.66514 42.6847 10.2235C42.6847 10.7819 43.16 11.2369 43.6973 11.2369ZM45.8467 13.5531C46.446 13.5531 46.942 13.0567 46.942 12.457C46.942 11.8573 46.446 11.3609 45.8467 11.3609C45.2473 11.3609 44.7513 11.8573 44.7513 12.457C44.7513 13.0567 45.2267 13.5531 45.8467 13.5531Z" fill="#2A2A2A"/>
<path d="M47.6653 16.0968C48.3159 16.0968 48.8433 15.5691 48.8433 14.918C48.8433 14.267 48.3159 13.7393 47.6653 13.7393C47.0147 13.7393 46.4873 14.267 46.4873 14.918C46.4873 15.5691 47.0147 16.0968 47.6653 16.0968Z" fill="#2A2A2A"/>
<path d="M49.1532 18.8679C49.8495 18.8679 50.4139 18.3031 50.4139 17.6064C50.4139 16.9096 49.8495 16.3448 49.1532 16.3448C48.457 16.3448 47.8926 16.9096 47.8926 17.6064C47.8926 18.3031 48.457 18.8679 49.1532 18.8679Z" fill="#2A2A2A"/>
<path d="M48.926 20.481C48.926 21.2254 49.5254 21.8252 50.2694 21.8252C51.0134 21.8252 51.6127 21.2254 51.6127 20.481C51.6127 19.7365 51.0134 19.1367 50.2694 19.1367C49.546 19.1367 48.926 19.7365 48.926 20.481Z" fill="#2A2A2A"/>
<path d="M51.0134 24.8858C51.801 24.8858 52.4394 24.2469 52.4394 23.4588C52.4394 22.6707 51.801 22.0319 51.0134 22.0319C50.2258 22.0319 49.5874 22.6707 49.5874 23.4588C49.5874 24.2469 50.2258 24.8858 51.0134 24.8858Z" fill="#2A2A2A"/>
<path d="M1.16533 29.3942C1.25665 29.3942 1.33067 29.3202 1.33067 29.2288C1.33067 29.1374 1.25665 29.0634 1.16533 29.0634C1.07402 29.0634 1 29.1374 1 29.2288C1 29.3202 1.07402 29.3942 1.16533 29.3942Z" fill="#2A2A2A"/>
<path d="M2.07465 26.6025C2.24586 26.6025 2.38465 26.4636 2.38465 26.2923C2.38465 26.1209 2.24586 25.9821 2.07465 25.9821C1.90344 25.9821 1.76465 26.1209 1.76465 26.2923C1.76465 26.4636 1.90344 26.6025 2.07465 26.6025Z" fill="#2A2A2A"/>
<path d="M3.29406 23.9348C3.55658 23.9348 3.76939 23.7219 3.76939 23.4592C3.76939 23.1965 3.55658 22.9835 3.29406 22.9835C3.03154 22.9835 2.81873 23.1965 2.81873 23.4592C2.81873 23.7219 3.03154 23.9348 3.29406 23.9348Z" fill="#2A2A2A"/>
<path d="M4.80265 21.4325C5.15648 21.4325 5.44332 21.1454 5.44332 20.7914C5.44332 20.4373 5.15648 20.1503 4.80265 20.1503C4.44882 20.1503 4.16199 20.4373 4.16199 20.7914C4.16199 21.1454 4.44882 21.4325 4.80265 21.4325Z" fill="#2A2A2A"/>
<path d="M6.58001 19.0541C7.01374 19.0541 7.36535 18.7023 7.36535 18.2683C7.36535 17.8343 7.01374 17.4824 6.58001 17.4824C6.14628 17.4824 5.79468 17.8343 5.79468 18.2683C5.79468 18.7023 6.14628 19.0541 6.58001 19.0541Z" fill="#2A2A2A"/>
<path d="M8.60533 16.9238C9.13037 16.9238 9.556 16.4979 9.556 15.9725C9.556 15.4472 9.13037 15.0212 8.60533 15.0212C8.08029 15.0212 7.65466 15.4472 7.65466 15.9725C7.65466 16.4979 8.08029 16.9238 8.60533 16.9238Z" fill="#2A2A2A"/>
<path d="M10.8786 15.0007C11.4949 15.0007 11.9946 14.5007 11.9946 13.884C11.9946 13.2672 11.4949 12.7672 10.8786 12.7672C10.2622 12.7672 9.76257 13.2672 9.76257 13.884C9.76257 14.5007 10.2622 15.0007 10.8786 15.0007Z" fill="#2A2A2A"/>
<path d="M13.3381 13.3255C14.0343 13.3255 14.5987 12.7607 14.5987 12.064C14.5987 11.3673 14.0343 10.8025 13.3381 10.8025C12.6418 10.8025 12.0774 11.3673 12.0774 12.064C12.0774 12.7607 12.6418 13.3255 13.3381 13.3255Z" fill="#2A2A2A"/>
<path d="M16.004 11.9813C16.7916 11.9813 17.43 11.3425 17.43 10.5544C17.43 9.76631 16.7916 9.12744 16.004 9.12744C15.2164 9.12744 14.578 9.76631 14.578 10.5544C14.578 11.3425 15.2164 11.9813 16.004 11.9813Z" fill="#2A2A2A"/>
<path d="M18.8561 10.968C19.6414 10.968 20.3028 10.3889 20.4061 9.62374C20.7161 10.0787 21.2328 10.3682 21.8321 10.3682C22.4934 10.3682 23.0928 9.99599 23.3821 9.43761C23.7334 9.89258 24.2708 10.2028 24.8908 10.2028C25.4488 10.2028 25.9448 9.95463 26.2961 9.58238C26.6681 10.0994 27.2674 10.451 27.9701 10.451C28.4041 10.451 28.8174 10.3062 29.1481 10.0787C29.2308 10.2028 29.3134 10.3062 29.4168 10.4096C28.9001 10.4716 28.4248 10.6991 28.0734 11.03C27.6808 10.6784 27.1641 10.451 26.5854 10.451C25.8621 10.451 25.2008 10.8025 24.8081 11.3609C24.4568 11.0921 24.0228 10.9266 23.5268 10.9266C22.7001 10.9266 21.9768 11.4229 21.6461 12.1261C21.3361 11.9193 20.9641 11.7952 20.5508 11.7952C19.6208 11.7952 18.8354 12.4363 18.6494 13.3049C18.3808 13.1394 18.0501 13.036 17.6988 13.036C16.6861 13.036 15.8594 13.8632 15.8594 14.8766C15.6114 14.7318 15.3221 14.6491 15.0121 14.6491C14.0614 14.6491 13.2968 15.4143 13.2968 16.3656C13.2968 16.531 13.3174 16.6965 13.3588 16.8412C13.1108 16.6965 12.8421 16.6137 12.5321 16.6137C11.6641 16.6137 10.9408 17.3169 10.9408 18.2061C10.9408 19.0747 11.6434 19.7985 12.5321 19.7985C13.4208 19.7985 14.1234 19.0954 14.1234 18.2061C14.1234 18.0614 14.1028 17.9373 14.0614 17.8132C14.3301 17.9993 14.6608 18.1027 14.9914 18.1027C15.9214 18.1027 16.6654 17.3582 16.7068 16.4483C16.9961 16.6344 17.3268 16.7378 17.6781 16.7378H17.7814C17.3888 17.0894 17.1408 17.5857 17.0994 18.1234C16.9754 18.1027 16.8514 18.0821 16.7274 18.0821C15.6114 18.0821 14.7228 18.992 14.7228 20.0881C14.7228 20.1708 14.7228 20.2535 14.7434 20.3155C14.6608 20.3155 14.5988 20.2949 14.5161 20.2949C13.4621 20.2949 12.6148 21.1428 12.6148 22.1975C12.6148 22.4043 12.6561 22.6111 12.7181 22.7972H12.6148C11.6228 22.7972 10.8168 23.6037 10.8168 24.5964C10.8168 24.948 10.9201 25.2582 11.0854 25.527H11.0234C10.0934 25.527 9.32877 26.2922 9.32877 27.2228C9.32877 27.7192 9.53544 28.1535 9.8661 28.4637H9.8041C8.9361 28.4637 8.21277 29.1668 8.21277 30.0561C8.21277 30.9453 8.91544 31.6485 9.8041 31.6485C10.6721 31.6485 11.3954 30.9453 11.3954 30.0561C11.3954 29.6218 11.2094 29.2082 10.9201 28.9186H11.0234C11.5194 28.9186 11.9534 28.7118 12.2634 28.3809V28.443C12.2634 28.8773 12.4081 29.2702 12.6561 29.6011C11.9328 29.8699 11.4161 30.5524 11.4161 31.3589C11.4161 31.938 11.6641 32.4343 12.0774 32.7859C11.4574 33.0754 11.0441 33.6751 11.0441 34.399C11.0441 35.0814 11.4368 35.6811 11.9948 35.9707C11.4574 36.2395 11.0648 36.8186 11.0648 37.4803C11.0648 38.2869 11.6228 38.9487 12.3668 39.1141C11.8501 39.383 11.4988 39.9 11.4988 40.5204C11.4988 41.389 12.2014 42.1128 13.0901 42.1128C13.1934 42.1128 13.2761 42.0921 13.3794 42.0921C12.7801 42.2782 12.3254 42.8366 12.3254 43.5191C12.3254 44.3463 12.9868 45.008 13.8134 45.008C14.6401 45.008 15.3014 44.3463 15.3014 43.5191C15.3014 42.6918 14.6401 42.0301 13.8134 42.0301C13.7308 42.0301 13.6274 42.0507 13.5448 42.0507C14.1854 41.8439 14.6608 41.2442 14.6608 40.5411C14.6608 40.4997 14.6608 40.4583 14.6401 40.4377C14.8881 40.7065 15.2188 40.8926 15.5701 40.996C15.3014 41.3062 15.1568 41.6992 15.1568 42.1335C15.1568 43.1054 15.9421 43.8913 16.9134 43.8913H16.9548C16.7481 44.1601 16.6448 44.5117 16.6448 44.8633C16.6448 45.7939 17.3888 46.5384 18.3188 46.5384C18.4841 46.5384 18.6494 46.5177 18.8148 46.4764C18.6494 46.7245 18.5461 47.0347 18.5461 47.3656C18.5461 48.2549 19.2488 48.958 20.1374 48.958C20.5094 48.958 20.8608 48.8133 21.1294 48.6064C20.9021 48.8753 20.7574 49.2062 20.7574 49.5784C20.7574 50.4057 21.4394 51.0881 22.2661 51.0881C23.0928 51.0881 23.7748 50.4057 23.7748 49.5784C23.7748 49.1648 23.6094 48.8133 23.3614 48.5444C23.5681 48.5444 23.7541 48.503 23.9401 48.441V48.4617C23.9401 49.1855 24.3534 49.8059 24.9528 50.0954C24.8701 50.0748 24.7668 50.0748 24.6841 50.0748C23.8988 50.0748 23.2581 50.7159 23.2581 51.5017C23.2581 52.2876 23.8988 52.9287 24.6841 52.9287C25.4694 52.9287 26.1101 52.2876 26.1101 51.5017C26.1101 50.964 25.8001 50.4884 25.3661 50.2609C25.5108 50.3022 25.6554 50.3229 25.8001 50.3229C26.1514 50.3229 26.4821 50.2195 26.7714 50.0334C26.8541 50.9433 27.5981 51.6465 28.5281 51.6465C29.0241 51.6465 29.4788 51.4397 29.7888 51.1088C29.9128 51.9153 30.6154 52.5151 31.4421 52.5151C32.0828 52.5151 32.6408 52.1635 32.9094 51.6258C33.0541 52.3496 33.6948 52.908 34.4594 52.908C35.2861 52.908 35.9474 52.2876 36.0301 51.481C36.0921 52.2669 36.7328 52.8873 37.5181 52.8873C38.3448 52.8873 39.0268 52.2049 39.0268 51.3776C39.0268 50.5504 38.3654 49.8886 37.5594 49.868C37.7041 49.7232 37.8074 49.5578 37.9108 49.3923C38.2414 49.7439 38.7168 49.9507 39.2334 49.9507C39.4194 49.9507 39.6261 49.93 39.7914 49.868C39.4194 50.1161 39.1714 50.5504 39.1714 51.0467C39.1714 51.8326 39.8121 52.4737 40.5974 52.4737C41.3828 52.4737 42.0234 51.8326 42.0234 51.0467C42.0234 50.2609 41.3828 49.6198 40.5974 49.6198C40.4528 49.6198 40.3081 49.6405 40.1841 49.6818C40.5974 49.4337 40.9074 49.0201 41.0314 48.5237C41.3414 48.7926 41.7341 48.9373 42.1681 48.9373C43.1394 48.9373 43.9248 48.1515 43.9248 47.1795V47.1381C44.1934 47.3449 44.5448 47.4483 44.8961 47.4483C45.8261 47.4483 46.5701 46.7038 46.5701 45.7732C46.5701 45.6078 46.5494 45.4423 46.5081 45.2769C46.7561 45.4423 47.0661 45.5457 47.3968 45.5457C48.2854 45.5457 48.9881 44.8426 48.9881 43.9533C48.9881 43.5811 48.8434 43.2295 48.6368 42.9607C48.9054 43.1882 49.2361 43.3329 49.6081 43.3329C50.4348 43.3329 51.1168 42.6505 51.1168 41.8233C51.1168 40.996 50.4348 40.3136 49.6081 40.3136C49.1948 40.3136 48.8434 40.479 48.5748 40.7272C48.5748 40.5204 48.5334 40.3343 48.4714 40.1481H48.4921C49.2154 40.1481 49.8354 39.7345 50.1248 39.1348C50.1041 39.2175 50.1041 39.3209 50.1041 39.4036C50.1041 40.1895 50.7448 40.8306 51.5301 40.8306C52.3154 40.8306 52.9561 40.1895 52.9561 39.4036C52.9561 38.6178 52.3154 37.9767 51.5301 37.9767C50.9928 37.9767 50.5174 38.2869 50.2901 38.7212C50.3314 38.5764 50.3521 38.4317 50.3521 38.2869C50.3521 37.9353 50.2488 37.6044 50.0628 37.3149C50.9721 37.2322 51.6748 36.4877 51.6748 35.5571C51.6748 35.0607 51.4681 34.6058 51.1374 34.2956C51.9434 34.1715 52.5428 33.4683 52.5428 32.6411C52.5428 32 52.1914 31.4416 51.6541 31.1728C52.3774 31.028 52.9354 30.3869 52.9354 29.6218C52.9354 28.7945 52.3154 28.1328 51.5094 28.05C52.2948 27.988 52.9148 27.3469 52.9148 26.5611C52.9148 25.7338 52.2328 25.0514 51.4061 25.0514C50.5794 25.0514 49.8974 25.7338 49.8974 26.5611C49.8974 27.3469 50.4761 27.9673 51.2408 28.05C50.4141 28.1121 49.7528 28.7945 49.7528 29.6218C49.7528 30.2215 50.0834 30.7385 50.5794 31.0074C49.7941 31.1521 49.1948 31.8346 49.1948 32.6618C49.1948 33.1168 49.3808 33.5304 49.6908 33.8406C48.8228 33.9647 48.1614 34.6885 48.1614 35.5777C48.1614 35.9086 48.2441 36.1982 48.4094 36.467C47.4381 36.529 46.6734 37.3149 46.6734 38.3076C46.6734 38.4937 46.6941 38.6798 46.7561 38.8453H46.6734C45.6194 38.8453 44.7514 39.7138 44.7514 40.7685V40.9133C44.6481 40.8926 44.5448 40.8926 44.4414 40.8926C43.4288 40.8926 42.6021 41.6371 42.4574 42.6091C42.2921 42.5677 42.1061 42.5264 41.8994 42.5264C41.0521 42.5264 40.3288 43.0227 39.9981 43.7259C39.5848 43.395 39.0474 43.2502 38.4894 43.3536C37.8694 43.4777 37.3941 43.8706 37.1461 44.4083C36.7534 43.974 36.1541 43.7465 35.5341 43.8293C34.9348 43.912 34.4388 44.2842 34.1701 44.7806C33.8394 44.3669 33.3228 44.0981 32.7441 44.0981C32.2068 44.0981 31.7314 44.3256 31.3801 44.6772C31.1734 44.2015 30.7601 43.8293 30.2228 43.6638C29.6648 43.4984 29.0861 43.6018 28.6314 43.9327C28.5074 43.395 28.1561 42.9193 27.6394 42.6712C27.1228 42.423 26.5648 42.4437 26.0894 42.6505C26.0688 42.1335 25.8414 41.6164 25.3868 41.2649C24.9528 40.934 24.4361 40.8099 23.9401 40.8926C24.0641 40.3756 23.9608 39.8172 23.6301 39.3623C23.2788 38.8866 22.7208 38.6385 22.1834 38.6178C22.3901 38.1214 22.3901 37.5424 22.1214 37.0254C21.8734 36.5497 21.4601 36.2395 20.9848 36.1154C21.2741 35.7225 21.4188 35.2262 21.3361 34.6885C21.2534 34.1094 20.9021 33.6545 20.4268 33.3856C20.8814 33.034 21.1501 32.4964 21.1501 31.8966C21.1501 31.3589 20.9021 30.8626 20.5094 30.5317C20.9641 30.3042 21.3361 29.8699 21.4808 29.3322C21.6254 28.7945 21.5014 28.2569 21.1914 27.8226C21.6668 27.7192 22.1008 27.409 22.3694 26.954C22.6588 26.4577 22.6794 25.8993 22.5141 25.4029C23.0514 25.4236 23.5888 25.2168 23.9814 24.7825C24.3741 24.3482 24.5188 23.8106 24.4361 23.2729C24.9321 23.3969 25.4694 23.3142 25.9241 23.004C26.3994 22.6731 26.6681 22.1768 26.7094 21.6598C27.1848 21.9079 27.7634 21.9493 28.2801 21.7218C28.7761 21.515 29.1274 21.1221 29.2928 20.6464C29.6648 20.9773 30.1814 21.1634 30.7188 21.1221C31.3181 21.06 31.8141 20.7292 32.1034 20.2742C32.4134 20.7085 32.9094 21.0187 33.4674 21.06C34.0254 21.1014 34.5214 20.8946 34.8934 20.543C35.0794 21.0187 35.4928 21.4323 36.0301 21.6184C36.5881 21.8045 37.1668 21.7011 37.6214 21.4116C37.7248 21.9286 38.0348 22.425 38.5514 22.6938C38.9648 22.9213 39.4401 22.9627 39.8741 22.8592C39.9154 22.9213 39.9774 23.004 40.0394 23.0661C40.0601 23.459 40.2254 23.8519 40.4941 24.1621L40.5354 24.2035C41.4654 25.1961 43.6561 27.5744 43.2428 30.7799C43.1394 31.5864 43.5941 31.9793 44.1521 31.3589C47.6241 27.6158 47.0868 23.0247 47.0041 22.487C46.9834 22.1354 46.9008 21.8045 46.7768 21.4943C46.8181 21.3082 46.8388 21.1014 46.8388 20.8946C46.8388 19.9226 46.3841 19.0747 45.6608 18.537C45.7021 18.3716 45.7228 18.1855 45.7228 17.9993C45.7228 16.7999 44.9788 15.7865 43.9454 15.3522C43.9248 14.008 42.9328 12.9119 41.6514 12.7258C41.4241 11.5263 40.3701 10.5957 39.1094 10.5957H38.9648C38.6548 9.60306 37.7248 8.89992 36.6294 8.89992C36.4228 8.89992 36.2161 8.9206 36.0094 8.98264C35.6374 8.1761 34.8314 7.61773 33.9014 7.61773C33.5294 7.61773 33.1988 7.70045 32.8888 7.84522C32.5168 7.20412 31.8141 6.76983 30.9874 6.76983C30.4708 6.76983 29.9954 6.95596 29.6234 7.24548C29.2514 6.72847 28.6521 6.39758 27.9701 6.39758C27.3294 6.39758 26.7508 6.70779 26.3788 7.16276C26.0274 6.72847 25.5108 6.45963 24.9114 6.45963C24.1468 6.45963 23.4854 6.91459 23.1961 7.57637C22.8861 7.20412 22.4108 6.95596 21.8734 6.95596C20.9848 6.95596 20.2408 7.63841 20.1581 8.50699C19.8688 8.13474 19.4141 7.88658 18.8974 7.88658C18.0294 7.88658 17.3268 8.58971 17.3268 9.4583C17.2854 10.2648 17.9881 10.968 18.8561 10.968Z" fill="#2A2A2A"/>
<path d="M8.2545 51.9989C8.32325 51.9989 8.37899 51.9431 8.37899 51.8744C8.37899 51.8056 8.32325 51.7499 8.2545 51.7499C8.18574 51.7499 8.13 51.8056 8.13 51.8744C8.13 51.9431 8.18574 51.9989 8.2545 51.9989Z" fill="#2A2A2A"/>
<path d="M6.82796 49.413C6.96492 49.413 7.07595 49.3019 7.07595 49.1648C7.07595 49.0277 6.96492 48.9166 6.82796 48.9166C6.69099 48.9166 6.57996 49.0277 6.57996 49.1648C6.57996 49.3019 6.69099 49.413 6.82796 49.413Z" fill="#2A2A2A"/>
<path d="M5.69146 46.6831C5.89691 46.6831 6.06346 46.5164 6.06346 46.3109C6.06346 46.1053 5.89691 45.9386 5.69146 45.9386C5.48601 45.9386 5.31946 46.1053 5.31946 46.3109C5.31946 46.5164 5.48601 46.6831 5.69146 46.6831Z" fill="#2A2A2A"/>
<path d="M4.84402 43.8293C5.11796 43.8293 5.34002 43.6071 5.34002 43.333C5.34002 43.0589 5.11796 42.8367 4.84402 42.8367C4.57009 42.8367 4.34802 43.0589 4.34802 43.333C4.34802 43.6071 4.57009 43.8293 4.84402 43.8293Z" fill="#2A2A2A"/>
<path d="M4.34803 40.9341C4.69044 40.9341 4.96803 40.6563 4.96803 40.3137C4.96803 39.971 4.69044 39.6932 4.34803 39.6932C4.00561 39.6932 3.72803 39.971 3.72803 40.3137C3.72803 40.6563 4.00561 40.9341 4.34803 40.9341Z" fill="#2A2A2A"/>
<path d="M4.1413 37.9559C4.54079 37.9559 4.86464 37.6319 4.86464 37.2321C4.86464 36.8324 4.54079 36.5083 4.1413 36.5083C3.74182 36.5083 3.41797 36.8324 3.41797 37.2321C3.41797 37.6319 3.74182 37.9559 4.1413 37.9559Z" fill="#2A2A2A"/>
<path d="M4.28605 35.0193C4.75402 35.0193 5.13339 34.6397 5.13339 34.1714C5.13339 33.7031 4.75402 33.3235 4.28605 33.3235C3.81808 33.3235 3.43872 33.7031 3.43872 34.1714C3.43872 34.6397 3.81808 35.0193 4.28605 35.0193Z" fill="#2A2A2A"/>
<path d="M4.74074 32.1035C5.27719 32.1035 5.71208 31.6683 5.71208 31.1315C5.71208 30.5947 5.27719 30.1595 4.74074 30.1595C4.20429 30.1595 3.76941 30.5947 3.76941 31.1315C3.76941 31.6683 4.20429 32.1035 4.74074 32.1035Z" fill="#2A2A2A"/>
<path d="M5.58813 29.2701C6.19307 29.2701 6.68346 28.7794 6.68346 28.1741C6.68346 27.5687 6.19307 27.078 5.58813 27.078C4.98319 27.078 4.4928 27.5687 4.4928 28.1741C4.4928 28.7794 4.98319 29.2701 5.58813 29.2701Z" fill="#2A2A2A"/>
<path d="M6.80735 26.5817C7.48077 26.5817 8.02668 26.0354 8.02668 25.3615C8.02668 24.6876 7.48077 24.1414 6.80735 24.1414C6.13393 24.1414 5.58801 24.6876 5.58801 25.3615C5.58801 26.0354 6.13393 26.5817 6.80735 26.5817Z" fill="#2A2A2A"/>
<path d="M8.39875 24.0587C9.14066 24.0587 9.74209 23.4569 9.74209 22.7145C9.74209 21.9721 9.14066 21.3702 8.39875 21.3702C7.65685 21.3702 7.05542 21.9721 7.05542 22.7145C7.05542 23.4569 7.65685 24.0587 8.39875 24.0587Z" fill="#2A2A2A"/>
<path d="M10.3 21.7838C11.1104 21.7838 11.7673 21.1264 11.7673 20.3155C11.7673 19.5046 11.1104 18.8472 10.3 18.8472C9.48959 18.8472 8.83264 19.5046 8.83264 20.3155C8.83264 21.1264 9.48959 21.7838 10.3 21.7838Z" fill="#2A2A2A"/>
</g>
<defs>
<clipPath id="clip0_97_6758">
<rect width="64" height="64" fill="white"/>
</clipPath>
</defs>
</svg>
