<svg width="64" height="64" viewBox="0 0 64 64" fill="none" xmlns="http://www.w3.org/2000/svg">
<g clip-path="url(#clip0_76_4204)">
<path d="M32.1336 63.7881V47.8269L12.394 36.315L32.1336 63.7881Z" stroke="black" stroke-width="0.5"/>
<path d="M32.1336 63.9647C32.0629 63.9647 32.0276 63.9294 31.9923 63.8941L12.2527 36.421C12.2174 36.3504 12.2174 36.2444 12.2527 36.2091C12.3233 36.1385 12.3939 36.1385 12.4645 36.1738L32.2042 47.721C32.2748 47.7563 32.2748 47.8269 32.2748 47.8622V63.8234C32.2748 63.8941 32.2395 63.9647 32.1689 64C32.1689 63.9647 32.1689 63.9647 32.1336 63.9647ZM13.0295 36.88L31.957 63.2584V47.9682L13.0295 36.88Z" fill="black" stroke="black" stroke-width="0.5"/>
<path d="M32.2042 63.7881V47.8269L51.9438 36.2797L32.2042 63.7881Z" stroke="black" stroke-width="0.5"/>
<path d="M32.2042 63.9647C32.1689 63.9647 32.1689 63.9647 32.1336 63.9647C32.0629 63.9294 32.0276 63.8587 32.0276 63.7881V47.8269C32.0276 47.7563 32.0629 47.7209 32.0982 47.6856L51.8379 36.1385C51.9085 36.1031 52.0145 36.1031 52.0498 36.1738C52.1204 36.2444 52.1204 36.315 52.0498 36.3856L32.3101 63.8587C32.3101 63.9294 32.2395 63.9647 32.2042 63.9647ZM32.3807 47.9328V63.2231L51.3082 36.8447L32.3807 47.9328Z" fill="black" stroke="black" stroke-width="0.5"/>
<path d="M32.1335 43.8719V23.532L12.182 32.466L32.1335 43.8719Z" stroke="black" stroke-width="0.5"/>
<path d="M32.1336 44.0485C32.0982 44.0485 32.0629 44.0485 32.0629 44.0132L12.1114 32.6073C12.0408 32.5719 12.0055 32.5013 12.0055 32.466C12.0055 32.3954 12.0408 32.3248 12.1114 32.3248L32.0629 23.3554C32.1336 23.3201 32.1689 23.3201 32.2395 23.3554C32.2748 23.3907 32.3101 23.426 32.3101 23.4967V43.8366C32.3101 43.9072 32.2748 43.9426 32.2395 43.9779C32.2042 44.0485 32.1689 44.0485 32.1336 44.0485ZM12.5705 32.466L31.957 43.5541V23.7792L12.5705 32.466Z" fill="black" stroke="black" stroke-width="0.5"/>
<path d="M32.2042 43.8719V23.5319L52.1557 32.4659L32.2042 43.8719Z" stroke="black" stroke-width="0.5"/>
<path d="M32.2042 44.0485C32.1689 44.0485 32.1336 44.0485 32.0982 44.0131C32.0276 43.9778 32.0276 43.9072 32.0276 43.8719V23.5319C32.0276 23.4613 32.0629 23.426 32.0982 23.3907C32.1336 23.3554 32.2042 23.3554 32.2748 23.3907L52.2263 32.3247C52.297 32.36 52.3323 32.3954 52.3323 32.466C52.3323 32.5366 52.297 32.6072 52.2263 32.6425L32.2748 44.0485C32.2748 44.0485 32.2395 44.0485 32.2042 44.0485ZM32.3807 23.8144V43.5894L51.7673 32.5013L32.3807 23.8144Z" fill="black" stroke="black" stroke-width="0.5"/>
<path d="M12.182 32.466L32.1336 0.225708V23.5319L12.182 32.466Z" stroke="black" stroke-width="0.5"/>
<path d="M12.182 32.6425C12.1467 32.6425 12.0761 32.6072 12.0408 32.5719C12.0055 32.5013 11.9702 32.4307 12.0408 32.36L31.9923 0.119789C32.0276 0.0491638 32.0982 0.0491638 32.1689 0.0491638C32.2395 0.0844763 32.3101 0.155101 32.3101 0.225726V23.5319C32.3101 23.6026 32.2748 23.6732 32.2042 23.7085L12.2526 32.6072C12.2173 32.6425 12.2173 32.6425 12.182 32.6425ZM31.957 0.86135L12.6411 32.0775L31.957 23.426V0.86135Z" fill="black" stroke="black" stroke-width="0.5"/>
<path d="M52.1557 32.466L32.2042 0.225739V23.5319L52.1557 32.466Z" stroke="black" stroke-width="0.5"/>
<path d="M52.1557 32.6425C52.1204 32.6425 52.1204 32.6425 52.0851 32.6425L32.1336 23.6732C32.0629 23.6379 32.0276 23.5672 32.0276 23.4966V0.190415C32.0276 0.119791 32.0629 0.0491657 32.1689 0.0138532C32.2395 -0.0214592 32.3101 0.0138532 32.3807 0.0844781L52.3323 32.3247C52.3676 32.3954 52.3676 32.466 52.3323 32.5366C52.2616 32.6072 52.191 32.6425 52.1557 32.6425ZM32.3807 23.426L51.6966 32.0775L32.3807 0.861352V23.426Z" fill="black" stroke="black" stroke-width="0.5"/>
</g>
<defs>
<clipPath id="clip0_76_4204">
<rect width="64" height="64" fill="white"/>
</clipPath>
</defs>
</svg>
