<svg width="64" height="64" viewBox="0 0 64 64" fill="none" xmlns="http://www.w3.org/2000/svg">
<g clip-path="url(#clip0_96_6683)">
<path d="M29.9415 7.07039C35.5021 6.69612 41.1696 7.81891 46.142 10.3319C53.5205 13.9676 59.4018 20.4906 62.1287 28.1899C63.3584 31.6117 64 35.194 64 38.8298V52.25C64 52.7847 64 53.3728 63.8931 53.9075C63.5723 55.2441 62.6099 56.4739 61.3266 57.062C60.4177 57.4898 59.4018 57.5432 58.4929 57.3828C56.4611 57.0086 54.8571 55.0838 54.8571 52.9985C54.8571 48.8281 54.8571 44.6577 54.8571 40.4873C54.9106 39.311 54.9106 38.0278 54.269 37.0119C53.2531 35.0871 50.6867 34.1781 48.7084 34.9802C46.9975 35.5683 45.7678 37.3327 45.7143 39.1506C45.7143 43.3745 45.7143 47.5984 45.7143 51.8223C45.7143 52.6243 45.7678 53.4263 45.5004 54.1748C45.0727 55.6719 43.8429 56.8482 42.3459 57.2759C40.3676 57.8106 38.122 56.9551 37.1596 55.1372C36.4645 54.0679 36.518 52.7312 36.5714 51.5015C36.5714 47.2776 36.5714 43.1071 36.5714 38.8833C36.518 36.7446 34.7535 34.8198 32.6683 34.5524C31.2782 34.3386 29.8346 34.8198 28.8187 35.7822C27.9098 36.6376 27.4286 37.8674 27.4286 39.0971V51.3411C27.4286 52.3569 27.5355 53.4263 27.1612 54.3887C26.5731 56.1531 24.8087 57.4363 22.9373 57.3828C21.0125 57.4898 19.1412 56.1531 18.553 54.3887C18.2322 53.4797 18.2857 52.5708 18.2857 51.6084C18.2857 47.3845 18.2857 43.1606 18.2857 38.9367C18.2857 36.8515 16.6282 34.9267 14.5965 34.5524C12.7251 34.1782 10.6934 35.0871 9.73099 36.798C9.35673 37.4931 9.14286 38.2951 9.14286 39.0971V52.8381C9.14286 54.1748 8.55472 55.5115 7.53885 56.367C5.9883 57.7036 3.47535 57.8106 1.87134 56.5808C0.695071 55.7788 0 54.3887 0 52.9451V39.0436C0 33.8039 1.33668 28.5641 3.84962 23.9125C5.88137 20.1163 8.71512 16.7479 12.0835 14.0746C17.056 9.90412 23.4185 7.44466 29.9415 7.07039Z" fill="#5741D9"/>
</g>
<defs>
<clipPath id="clip0_96_6683">
<rect width="64" height="64" fill="white"/>
</clipPath>
</defs>
</svg>
