<svg width="64" height="64" viewBox="0 0 64 64" fill="none" xmlns="http://www.w3.org/2000/svg">
<g clip-path="url(#clip0_96_6669)">
<path d="M29.9751 7.56926L29.9702 7.56959L29.9415 7.07048L29.9415 7.07039C23.4185 7.44466 17.056 9.90412 12.0835 14.0746L29.9751 7.56926ZM29.9751 7.56926C35.4479 7.2009 41.0257 8.30641 45.9165 10.7781L45.921 10.7804M29.9751 7.56926L45.921 10.7804M45.921 10.7804C53.1854 14.3599 58.9751 20.7834 61.6573 28.3568L61.6581 28.359M45.921 10.7804L61.6581 28.359M61.6581 28.359C62.8689 31.7281 63.5 35.2533 63.5 38.8298V52.25C63.5 52.7913 63.4983 53.3249 63.4046 53.8001C63.1156 54.9916 62.2519 56.0879 61.1183 56.6075L61.1137 56.6096M61.6581 28.359L61.1137 56.6096M61.1137 56.6096C60.3202 56.9831 59.4145 57.0374 58.5818 56.8908C56.7891 56.5597 55.3571 54.8431 55.3571 52.9985V52.9741V52.9497V52.9252V52.9008V52.8764V52.8519V52.8275V52.8031V52.7786V52.7542V52.7297V52.7053V52.6809V52.6564V52.632V52.6076V52.5831V52.5587V52.5343V52.5098V52.4854V52.4609V52.4365V52.4121V52.3876V52.3632V52.3388V52.3143V52.2899V52.2655V52.241V52.2166V52.1922V52.1677V52.1433V52.1188V52.0944V52.07V52.0455V52.0211V51.9967V51.9722V51.9478V51.9234V51.8989V51.8745V51.85V51.8256V51.8012V51.7767V51.7523V51.7279V51.7034V51.679V51.6546V51.6301V51.6057V51.5812V51.5568V51.5324V51.5079V51.4835V51.4591V51.4346V51.4102V51.3858V51.3613V51.3369V51.3125V51.288V51.2636V51.2391V51.2147V51.1903V51.1658V51.1414V51.117V51.0925V51.0681V51.0437V51.0192V50.9948V50.9703V50.9459V50.9215V50.897V50.8726V50.8482V50.8237V50.7993V50.7749V50.7504V50.726V50.7015V50.6771V50.6527V50.6282V50.6038V50.5794V50.5549V50.5305V50.5061V50.4816V50.4572V50.4328V50.4083V50.3839V50.3594V50.335V50.3106V50.2861V50.2617V50.2373V50.2128V50.1884V50.164V50.1395V50.1151V50.0906V50.0662V50.0418V50.0173V49.9929V49.9685V49.944V49.9196V49.8952V49.8707V49.8463V49.8218V49.7974V49.773V49.7485V49.7241V49.6997V49.6752V49.6508V49.6264V49.6019V49.5775V49.5531V49.5286V49.5042V49.4797V49.4553V49.4309V49.4064V49.382V49.3576V49.3331V49.3087V49.2843V49.2598V49.2354V49.2109V49.1865V49.1621V49.1376V49.1132V49.0888V49.0643V49.0399V49.0155V48.991V48.9666V48.9422V48.9177V48.8933V48.8688V48.8444V48.82V48.7955V48.7711V48.7467V48.7222V48.6978V48.6734V48.6489V48.6245V48.6V48.5756V48.5512V48.5267V48.5023V48.4779V48.4534V48.429V48.4046V48.3801V48.3557V48.3312V48.3068V48.2824V48.2579V48.2335V48.2091V48.1846V48.1602V48.1358V48.1113V48.0869V48.0625V48.038V48.0136V47.9891V47.9647V47.9403V47.9158V47.8914V47.867V47.8425V47.8181V47.7937V47.7692V47.7448V47.7203V47.6959V47.6715V47.647V47.6226V47.5982V47.5737V47.5493V47.5249V47.5004V47.476V47.4515V47.4271V47.4027V47.3782V47.3538V47.3294V47.3049V47.2805V47.2561V47.2316V47.2072V47.1828V47.1583V47.1339V47.1094V47.085V47.0606V47.0361V47.0117V46.9873V46.9628V46.9384V46.914V46.8895V46.8651V46.8406V46.8162V46.7918V46.7673V46.7429V46.7185V46.694V46.6696V46.6452V46.6207V46.5963V46.5718V46.5474V46.523V46.4985V46.4741V46.4497V46.4252V46.4008V46.3764V46.3519V46.3275V46.3031V46.2786V46.2542V46.2297V46.2053V46.1809V46.1564V46.132V46.1076V46.0831V46.0587V46.0343V46.0098V45.9854V45.9609V45.9365V45.9121V45.8876V45.8632V45.8388V45.8143V45.7899V45.7655V45.741V45.7166V45.6922V45.6677V45.6433V45.6188V45.5944V45.57V45.5455V45.5211V45.4967V45.4722V45.4478V45.4234V45.3989V45.3745V45.35V45.3256V45.3012V45.2767V45.2523V45.2279V45.2034V45.179V45.1546V45.1301V45.1057V45.0812V45.0568V45.0324V45.0079V44.9835V44.9591V44.9346V44.9102V44.8858V44.8613V44.8369V44.8125V44.788V44.7636V44.7391V44.7147V44.6903V44.6658V44.6414V44.617V44.5925V44.5681V44.5437V44.5192V44.4948V44.4703V44.4459V44.4215V44.397V44.3726V44.3482V44.3237V44.2993V44.2749V44.2504V44.226V44.2015V44.1771V44.1527V44.1282V44.1038V44.0794V44.0549V44.0305V44.0061V43.9816V43.9572V43.9328V43.9083V43.8839V43.8594V43.835V43.8106V43.7861V43.7617V43.7373V43.7128V43.6884V43.664V43.6395V43.6151V43.5906V43.5662V43.5418V43.5173V43.4929V43.4685V43.444V43.4196V43.3952V43.3707V43.3463V43.3218V43.2974V43.273V43.2485V43.2241V43.1997V43.1752V43.1508V43.1264V43.1019V43.0775V43.0531V43.0286V43.0042V42.9797V42.9553V42.9309V42.9064V42.882V42.8576V42.8331V42.8087V42.7843V42.7598V42.7354V42.7109V42.6865V42.6621V42.6376V42.6132V42.5888V42.5643V42.5399V42.5155V42.491V42.4666V42.4422V42.4177V42.3933V42.3688V42.3444V42.32V42.2955V42.2711V42.2467V42.2222V42.1978V42.1734V42.1489V42.1245V42.1V42.0756V42.0512V42.0267V42.0023V41.9779V41.9534V41.929V41.9046V41.8801V41.8557V41.8312V41.8068V41.7824V41.7579V41.7335V41.7091V41.6846V41.6602V41.6358V41.6113V41.5869V41.5625V41.538V41.5136V41.4891V41.4647V41.4403V41.4158V41.3914V41.367V41.3425V41.3181V41.2937V41.2692V41.2448V41.2203V41.1959V41.1715V41.147V41.1226V41.0982V41.0737V41.0493V41.0249V41.0004V40.976V40.9515V40.9271V40.9027V40.8782V40.8538V40.8294V40.8049V40.7805V40.7561V40.7316V40.7072V40.6828V40.6583V40.6339V40.6094V40.585V40.5606V40.5361V40.5117V40.4986C55.4094 39.3429 55.425 37.9198 54.7021 36.7615C53.5615 34.6232 50.7393 33.6254 48.5331 34.5117C46.62 35.1759 45.2736 37.1276 45.2145 39.1359L45.2143 39.1432M61.1137 56.6096L45.2143 39.1432M45.2143 39.1432V39.1506M45.2143 39.1432V39.1506M45.2143 39.1506V39.1753V39.2001V39.2248V39.2496V39.2743V39.2991V39.3238V39.3486V39.3733V39.3981V39.4228V39.4476V39.4723V39.4971V39.5218V39.5466V39.5713V39.5961V39.6208V39.6456V39.6703V39.6951V39.7198V39.7446V39.7693V39.7941V39.8188V39.8436V39.8683V39.8931V39.9178V39.9426V39.9673V39.9921V40.0168V40.0416V40.0663V40.0911V40.1158V40.1406V40.1653V40.1901V40.2148V40.2396V40.2643V40.2891V40.3138V40.3386V40.3633V40.3881V40.4128V40.4376V40.4623V40.4871V40.5118V40.5366V40.5613V40.5861V40.6108V40.6356V40.6603V40.6851V40.7098V40.7346V40.7593V40.784V40.8088V40.8335V40.8583V40.883V40.9078V40.9325V40.9573V40.982V41.0068V41.0315V41.0563V41.081V41.1058V41.1305V41.1553V41.18V41.2048V41.2295V41.2543V41.279V41.3038V41.3285V41.3533V41.378V41.4028V41.4275V41.4523V41.477V41.5018V41.5265V41.5513V41.576V41.6008V41.6255V41.6503V41.675V41.6998V41.7245V41.7493V41.774V41.7988V41.8235V41.8483V41.873V41.8978V41.9225V41.9473V41.972V41.9968V42.0215V42.0463V42.071V42.0958V42.1205V42.1453V42.17V42.1948V42.2195V42.2443V42.269V42.2938V42.3185V42.3433V42.368V42.3928V42.4175V42.4423V42.467V42.4918V42.5165V42.5413V42.566V42.5908V42.6155V42.6403V42.665V42.6898V42.7145V42.7392V42.764V42.7887V42.8135V42.8382V42.863V42.8877V42.9125V42.9372V42.962V42.9867V43.0115V43.0362V43.061V43.0857V43.1105V43.1352V43.16V43.1847V43.2095V43.2342V43.259V43.2837V43.3085V43.3332V43.358V43.3827V43.4075V43.4322V43.457V43.4817V43.5065V43.5312V43.556V43.5807V43.6055V43.6302V43.655V43.6797V43.7045V43.7292V43.754V43.7787V43.8035V43.8282V43.853V43.8777V43.9025V43.9272V43.952V43.9767V44.0015V44.0262V44.051V44.0757V44.1005V44.1252V44.15V44.1747V44.1995V44.2242V44.249V44.2737V44.2985V44.3232V44.348V44.3727V44.3975V44.4222V44.447V44.4717V44.4965V44.5212V44.546V44.5707V44.5954V44.6202V44.6449V44.6697V44.6944V44.7192V44.7439V44.7687V44.7934V44.8182V44.8429V44.8677V44.8924V44.9172V44.9419V44.9667V44.9914V45.0162V45.0409V45.0657V45.0904V45.1152V45.1399V45.1647V45.1894V45.2142V45.2389V45.2637V45.2884V45.3132V45.3379V45.3627V45.3874V45.4122V45.4369V45.4617V45.4864V45.5112V45.5359V45.5607V45.5854V45.6102V45.6349V45.6597V45.6844V45.7092V45.7339V45.7587V45.7834V45.8082V45.8329V45.8577V45.8824V45.9072V45.9319V45.9567V45.9814V46.0062V46.0309V46.0557V46.0804V46.1052V46.1299V46.1547V46.1794V46.2042V46.2289V46.2537V46.2784V46.3032V46.3279V46.3527V46.3774V46.4022V46.4269V46.4516V46.4764V46.5011V46.5259V46.5506V46.5754V46.6001V46.6249V46.6496V46.6744V46.6991V46.7239V46.7486V46.7734V46.7981V46.8229V46.8476V46.8724V46.8971V46.9219V46.9466V46.9714V46.9961V47.0209V47.0456V47.0704V47.0951V47.1199V47.1446V47.1694V47.1941V47.2189V47.2436V47.2684V47.2931V47.3179V47.3426V47.3674V47.3921V47.4169V47.4416V47.4664V47.4911V47.5159V47.5406V47.5654V47.5901V47.6149V47.6396V47.6644V47.6891V47.7139V47.7386V47.7634V47.7881V47.8129V47.8376V47.8624V47.8871V47.9119V47.9366V47.9614V47.9861V48.0109V48.0356V48.0604V48.0851V48.1099V48.1346V48.1594V48.1841V48.2089V48.2336V48.2584V48.2831V48.3078V48.3326V48.3573V48.3821V48.4068V48.4316V48.4563V48.4811V48.5058V48.5306V48.5553V48.5801V48.6048V48.6296V48.6543V48.6791V48.7038V48.7286V48.7533V48.7781V48.8028V48.8276V48.8523V48.8771V48.9018V48.9266V48.9513V48.9761V49.0008V49.0256V49.0503V49.0751V49.0998V49.1246V49.1493V49.1741V49.1988V49.2236V49.2483V49.2731V49.2978V49.3226V49.3473V49.3721V49.3968V49.4216V49.4463V49.4711V49.4958V49.5206V49.5453V49.5701V49.5948V49.6196V49.6443V49.6691V49.6938V49.7186V49.7433V49.7681V49.7928V49.8176V49.8423V49.8671V49.8918V49.9166V49.9413V49.9661V49.9908V50.0156V50.0403V50.0651V50.0898V50.1146V50.1393V50.1641V50.1888V50.2136V50.2383V50.2631V50.2878V50.3125V50.3373V50.362V50.3868V50.4115V50.4363V50.461V50.4858V50.5105V50.5353V50.56V50.5848V50.6095V50.6343V50.659V50.6838V50.7085V50.7333V50.758V50.7828V50.8075V50.8323V50.857V50.8818V50.9065V50.9313V50.956V50.9808V51.0055V51.0303V51.055V51.0798V51.1045V51.1293V51.154V51.1788V51.2035V51.2283V51.253V51.2778V51.3025V51.3273V51.352V51.3768V51.4015V51.4263V51.451V51.4758V51.5005V51.5253V51.55V51.5748V51.5995V51.6243V51.649V51.6738V51.6985V51.7233V51.748V51.7728V51.7975V51.8223C45.2143 51.9465 45.2152 52.0671 45.2162 52.1845C45.2217 52.8752 45.2263 53.4557 45.0295 54.0066L45.0241 54.0219M45.2143 39.1506L45.0241 54.0219M45.0241 54.0219L45.0197 54.0374M45.0241 54.0219L45.0197 54.0374M45.0197 54.0374C44.6423 55.3584 43.5504 56.4105 42.2119 56.7942C40.4373 57.272 38.4434 56.4937 37.6015 54.9033L37.591 54.8835M45.0197 54.0374L37.591 54.8835M37.591 54.8835L37.5788 54.8647M37.591 54.8835L37.5788 54.8647M37.5788 54.8647C36.9859 53.9526 37.016 52.7875 37.071 51.5232L37.0714 51.5123M37.5788 54.8647L37.0714 51.5123M37.0714 51.5123V51.5015M37.0714 51.5123V51.5015M37.0714 51.5015V51.4767V51.452V51.4272V51.4025V51.3777V51.353V51.3282V51.3035V51.2788V51.254V51.2293V51.2045V51.1798V51.1551V51.1303V51.1056V51.0809V51.0562V51.0314V51.0067V50.982V50.9573V50.9325V50.9078V50.8831V50.8584V50.8337V50.8089V50.7842V50.7595V50.7348V50.7101V50.6854V50.6607V50.6359V50.6112V50.5865V50.5618V50.5371V50.5124V50.4877V50.463V50.4383V50.4136V50.3889V50.3642V50.3395V50.3148V50.2901V50.2654V50.2407V50.216V50.1913V50.1666V50.142V50.1173V50.0926V50.0679V50.0432V50.0185V49.9938V49.9692V49.9445V49.9198V49.8951V49.8704V49.8458V49.8211V49.7964V49.7717V49.7471V49.7224V49.6977V49.673V49.6484V49.6237V49.599V49.5743V49.5497V49.525V49.5003V49.4757V49.451V49.4264V49.4017V49.377V49.3524V49.3277V49.303V49.2784V49.2537V49.2291V49.2044V49.1798V49.1551V49.1305V49.1058V49.0811V49.0565V49.0318V49.0072V48.9825V48.9579V48.9332V48.9086V48.8839V48.8593V48.8347V48.81V48.7854V48.7607V48.7361V48.7114V48.6868V48.6622V48.6375V48.6129V48.5882V48.5636V48.539V48.5143V48.4897V48.4651V48.4404V48.4158V48.3912V48.3665V48.3419V48.3173V48.2926V48.268V48.2434V48.2187V48.1941V48.1695V48.1449V48.1202V48.0956V48.071V48.0464V48.0217V47.9971V47.9725V47.9479V47.9232V47.8986V47.874V47.8494V47.8247V47.8001V47.7755V47.7509V47.7263V47.7017V47.677V47.6524V47.6278V47.6032V47.5786V47.554V47.5293V47.5047V47.4801V47.4555V47.4309V47.4063V47.3817V47.3571V47.3324V47.3078V47.2832V47.2586V47.234V47.2094V47.1848V47.1602V47.1356V47.111V47.0864V47.0617V47.0371V47.0125V46.9879V46.9633V46.9387V46.9141V46.8895V46.8649V46.8403V46.8157V46.7911V46.7665V46.7419V46.7173V46.6927V46.6681V46.6435V46.6189V46.5943V46.5697V46.5451V46.5205V46.4959V46.4713V46.4467V46.4221V46.3975V46.3729V46.3483V46.3237V46.2991V46.2745V46.2499V46.2253V46.2007V46.1761V46.1515V46.1269V46.1023V46.0777V46.0531V46.0285V46.0039V45.9793V45.9548V45.9302V45.9056V45.881V45.8564V45.8318V45.8072V45.7826V45.758V45.7334V45.7088V45.6842V45.6596V45.635V45.6104V45.5858V45.5612V45.5367V45.5121V45.4875V45.4629V45.4383V45.4137V45.3891V45.3645V45.3399V45.3153V45.2907V45.2661V45.2415V45.2169V45.1924V45.1678V45.1432V45.1186V45.094V45.0694V45.0448V45.0202V44.9956V44.971V44.9464V44.9218V44.8972V44.8727V44.8481V44.8235V44.7989V44.7743V44.7497V44.7251V44.7005V44.6759V44.6513V44.6267V44.6021V44.5775V44.5529V44.5283V44.5037V44.4791V44.4546V44.43V44.4054V44.3808V44.3562V44.3316V44.307V44.2824V44.2578V44.2332V44.2086V44.184V44.1594V44.1348V44.1102V44.0856V44.061V44.0364V44.0118V43.9872V43.9626V43.938V43.9134V43.8888V43.8642V43.8396V43.815V43.7904V43.7658V43.7412V43.7166V43.692V43.6674V43.6428V43.6182V43.5936V43.569V43.5444V43.5198V43.4952V43.4706V43.446V43.4214V43.3968V43.3722V43.3476V43.323V43.2984V43.2737V43.2491V43.2245V43.1999V43.1753V43.1507V43.1261V43.1015V43.0769V43.0523V43.0277V43.003V42.9784V42.9538V42.9292V42.9046V42.88V42.8554V42.8307V42.8061V42.7815V42.7569V42.7323V42.7077V42.6831V42.6584V42.6338V42.6092V42.5846V42.56V42.5353V42.5107V42.4861V42.4615V42.4369V42.4122V42.3876V42.363V42.3384V42.3137V42.2891V42.2645V42.2399V42.2152V42.1906V42.166V42.1413V42.1167V42.0921V42.0675V42.0428V42.0182V41.9936V41.9689V41.9443V41.9197V41.895V41.8704V41.8457V41.8211V41.7965V41.7718V41.7472V41.7225V41.6979V41.6733V41.6486V41.624V41.5993V41.5747V41.5501V41.5254V41.5008V41.4761V41.4515V41.4268V41.4022V41.3775V41.3529V41.3282V41.3036V41.2789V41.2543V41.2296V41.205V41.1803V41.1556V41.131V41.1063V41.0817V41.057V41.0323V41.0077V40.983V40.9584V40.9337V40.909V40.8844V40.8597V40.835V40.8104V40.7857V40.761V40.7364V40.7117V40.687V40.6623V40.6377V40.613V40.5883V40.5636V40.539V40.5143V40.4896V40.4649V40.4402V40.4156V40.3909V40.3662V40.3415V40.3168V40.2921V40.2674V40.2428V40.2181V40.1934V40.1687V40.144V40.1193V40.0946V40.0699V40.0452V40.0205V39.9958V39.9711V39.9464V39.9217V39.897V39.8723V39.8476V39.8229V39.7982V39.7735V39.7488V39.7241V39.6993V39.6746V39.6499V39.6252V39.6005V39.5758V39.5511V39.5263V39.5016V39.4769V39.4522V39.4275V39.4027V39.378V39.3533V39.3285V39.3038V39.2791V39.2544V39.2296V39.2049V39.1802V39.1554V39.1307V39.1059V39.0812V39.0565V39.0317V39.007V38.9822V38.9575V38.9328V38.908V38.8833H37.0716M37.0714 51.5015L37.0716 38.8833M37.0716 38.8833L37.0713 38.8708M37.0716 38.8833L37.0713 38.8708M37.0713 38.8708C37.0116 36.4858 35.0637 34.3588 32.7382 34.0573C31.1904 33.8213 29.5966 34.3568 28.4754 35.4186C27.4576 36.377 26.9286 37.7425 26.9286 39.0971V51.3411C26.9286 51.5459 26.9323 51.7401 26.936 51.9296C26.9421 52.2459 26.948 52.5489 26.9356 52.8655C26.9167 53.3525 26.8542 53.7987 26.6952 54.2075L26.6908 54.2189M37.0713 38.8708L26.6908 54.2189M26.6908 54.2189L26.6869 54.2306M26.6908 54.2189L26.6869 54.2306M26.6869 54.2306C26.1658 55.7938 24.5943 56.93 22.9516 56.883L22.9306 56.8824M26.6869 54.2306L22.9306 56.8824M22.9306 56.8824L22.9096 56.8836M22.9306 56.8824L22.9096 56.8836M22.9096 56.8836C21.2172 56.9776 19.5466 55.7881 19.0274 54.2306L19.0275 54.2305M22.9096 56.8836L19.0275 54.2305M19.0275 54.2305L19.0245 54.2223M19.0275 54.2305L19.0245 54.2223M19.0245 54.2223C18.7752 53.5158 18.7793 52.8147 18.7843 51.9769M19.0245 54.2223L18.7843 51.9769M18.7843 51.9769C18.785 51.857 18.7857 51.7343 18.7857 51.6084M18.7843 51.9769L18.7857 51.6084M18.7857 51.6084V51.5836M18.7857 51.6084V51.5836M18.7857 51.5836V51.5589M18.7857 51.5836V51.5589M18.7857 51.5589V51.5341M18.7857 51.5589V51.5341M18.7857 51.5341V51.5094M18.7857 51.5341V51.5094M18.7857 51.5094V51.4846M18.7857 51.5094V51.4846M18.7857 51.4846V51.4599M18.7857 51.4846V51.4599M18.7857 51.4599V51.4352M18.7857 51.4599V51.4352M18.7857 51.4352V51.4104M18.7857 51.4352V51.4104M18.7857 51.4104V51.3857M18.7857 51.4104V51.3857M18.7857 51.3857V51.3609M18.7857 51.3857V51.3609M18.7857 51.3609V51.3362M18.7857 51.3609V51.3362M18.7857 51.3362V51.3114M18.7857 51.3362V51.3114M18.7857 51.3114V51.2867M18.7857 51.3114V51.2867M18.7857 51.2867V51.2619M18.7857 51.2867V51.2619M18.7857 51.2619V51.2372M18.7857 51.2619V51.2372M18.7857 51.2372V51.2124M18.7857 51.2372V51.2124M18.7857 51.2124V51.1877M18.7857 51.2124V51.1877M18.7857 51.1877V51.1629M18.7857 51.1877V51.1629M18.7857 51.1629V51.1382M18.7857 51.1629V51.1382M18.7857 51.1382V51.1134M18.7857 51.1382V51.1134M18.7857 51.1134V51.0887M18.7857 51.1134V51.0887M18.7857 51.0887V51.0639M18.7857 51.0887V51.0639M18.7857 51.0639V51.0392M18.7857 51.0639V51.0392M18.7857 51.0392V51.0144M18.7857 51.0392V51.0144M18.7857 51.0144V50.9897M18.7857 51.0144V50.9897M18.7857 50.9897V50.9649M18.7857 50.9897V50.9649M18.7857 50.9649V50.9402M18.7857 50.9649V50.9402M18.7857 50.9402V50.9154M18.7857 50.9402V50.9154M18.7857 50.9154V50.8907M18.7857 50.9154V50.8907M18.7857 50.8907V50.8659M18.7857 50.8907V50.8659M18.7857 50.8659V50.8412M18.7857 50.8659V50.8412M18.7857 50.8412V50.8164M18.7857 50.8412V50.8164M18.7857 50.8164V50.7917M18.7857 50.8164V50.7917M18.7857 50.7917V50.7669M18.7857 50.7917V50.7669M18.7857 50.7669V50.7422M18.7857 50.7669V50.7422M18.7857 50.7422V50.7174M18.7857 50.7422V50.7174M18.7857 50.7174V50.6927M18.7857 50.7174V50.6927M18.7857 50.6927V50.6679M18.7857 50.6927V50.6679M18.7857 50.6679V50.6432M18.7857 50.6679V50.6432M18.7857 50.6432V50.6184M18.7857 50.6432V50.6184M18.7857 50.6184V50.5937M18.7857 50.6184V50.5937M18.7857 50.5937V50.5689M18.7857 50.5937V50.5689M18.7857 50.5689V50.5442M18.7857 50.5689V50.5442M18.7857 50.5442V50.5194M18.7857 50.5442V50.5194M18.7857 50.5194V50.4947M18.7857 50.5194V50.4947M18.7857 50.4947V50.4699M18.7857 50.4947V50.4699M18.7857 50.4699V50.4452M18.7857 50.4699V50.4452M18.7857 50.4452V50.4204M18.7857 50.4452V50.4204M18.7857 50.4204V50.3957M18.7857 50.4204V50.3957M18.7857 50.3957V50.3709M18.7857 50.3957V50.3709M18.7857 50.3709V50.3462M18.7857 50.3709V50.3462M18.7857 50.3462V50.3214M18.7857 50.3462V50.3214M18.7857 50.3214V50.2967M18.7857 50.3214V50.2967M18.7857 50.2967V50.2719M18.7857 50.2967V50.2719M18.7857 50.2719V50.2472M18.7857 50.2719V50.2472M18.7857 50.2472V50.2224M18.7857 50.2472V50.2224M18.7857 50.2224V50.1977M18.7857 50.2224V50.1977M18.7857 50.1977V50.1729M18.7857 50.1977V50.1729M18.7857 50.1729V50.1482M18.7857 50.1729V50.1482M18.7857 50.1482V50.1234M18.7857 50.1482V50.1234M18.7857 50.1234V50.0987M18.7857 50.1234V50.0987M18.7857 50.0987V50.0739M18.7857 50.0987V50.0739M18.7857 50.0739V50.0492M18.7857 50.0739V50.0492M18.7857 50.0492V50.0244M18.7857 50.0492V50.0244M18.7857 50.0244V49.9997M18.7857 50.0244V49.9997M18.7857 49.9997V49.9749M18.7857 49.9997V49.9749M18.7857 49.9749V49.9502M18.7857 49.9749V49.9502M18.7857 49.9502V49.9254M18.7857 49.9502V49.9254M18.7857 49.9254V49.9007M18.7857 49.9254V49.9007M18.7857 49.9007V49.8759M18.7857 49.9007V49.8759M18.7857 49.8759V49.8512M18.7857 49.8759V49.8512M18.7857 49.8512V49.8264M18.7857 49.8512V49.8264M18.7857 49.8264V49.8017M18.7857 49.8264V49.8017M18.7857 49.8017V49.7769M18.7857 49.8017V49.7769M18.7857 49.7769V49.7522M18.7857 49.7769V49.7522M18.7857 49.7522V49.7274M18.7857 49.7522V49.7274M18.7857 49.7274V49.7027M18.7857 49.7274V49.7027M18.7857 49.7027V49.6779M18.7857 49.7027V49.6779M18.7857 49.6779V49.6532M18.7857 49.6779V49.6532M18.7857 49.6532V49.6284M18.7857 49.6532V49.6284M18.7857 49.6284V49.6037M18.7857 49.6284V49.6037M18.7857 49.6037V49.5789M18.7857 49.6037V49.5789M18.7857 49.5789V49.5542M18.7857 49.5789V49.5542M18.7857 49.5542V49.5294M18.7857 49.5542V49.5294M18.7857 49.5294V49.5047M18.7857 49.5294V49.5047M18.7857 49.5047V49.4799M18.7857 49.5047V49.4799M18.7857 49.4799V49.4552M18.7857 49.4799V49.4552M18.7857 49.4552V49.4305M18.7857 49.4552V49.4305M18.7857 49.4305V49.4057M18.7857 49.4305V49.4057M18.7857 49.4057V49.381M18.7857 49.4057V49.381M18.7857 49.381V49.3562M18.7857 49.381V49.3562M18.7857 49.3562V49.3315M18.7857 49.3562V49.3315M18.7857 49.3315V49.3067M18.7857 49.3315V49.3067M18.7857 49.3067V49.282M18.7857 49.3067V49.282M18.7857 49.282V49.2572M18.7857 49.282V49.2572M18.7857 49.2572V49.2325M18.7857 49.2572V49.2325M18.7857 49.2325V49.2077M18.7857 49.2325V49.2077M18.7857 49.2077V49.183M18.7857 49.2077V49.183M18.7857 49.183V49.1582M18.7857 49.183V49.1582M18.7857 49.1582V49.1335M18.7857 49.1582V49.1335M18.7857 49.1335V49.1087M18.7857 49.1335V49.1087M18.7857 49.1087V49.084M18.7857 49.1087V49.084M18.7857 49.084V49.0592M18.7857 49.084V49.0592M18.7857 49.0592V49.0345M18.7857 49.0592V49.0345M18.7857 49.0345V49.0097M18.7857 49.0345V49.0097M18.7857 49.0097V48.985M18.7857 49.0097V48.985M18.7857 48.985V48.9602M18.7857 48.985V48.9602M18.7857 48.9602V48.9355M18.7857 48.9602V48.9355M18.7857 48.9355V48.9107M18.7857 48.9355V48.9107M18.7857 48.9107V48.886M18.7857 48.9107V48.886M18.7857 48.886V48.8612M18.7857 48.886V48.8612M18.7857 48.8612V48.8365M18.7857 48.8612V48.8365M18.7857 48.8365V48.8117M18.7857 48.8365V48.8117M18.7857 48.8117V48.787M18.7857 48.8117V48.787M18.7857 48.787V48.7622M18.7857 48.787V48.7622M18.7857 48.7622V48.7375M18.7857 48.7622V48.7375M18.7857 48.7375V48.7127M18.7857 48.7375V48.7127M18.7857 48.7127V48.688M18.7857 48.7127V48.688M18.7857 48.688V48.6632M18.7857 48.688V48.6632M18.7857 48.6632V48.6385M18.7857 48.6632V48.6385M18.7857 48.6385V48.6137M18.7857 48.6385V48.6137M18.7857 48.6137V48.589M18.7857 48.6137V48.589M18.7857 48.589V48.5642M18.7857 48.589V48.5642M18.7857 48.5642V48.5395M18.7857 48.5642V48.5395M18.7857 48.5395V48.5147M18.7857 48.5395V48.5147M18.7857 48.5147V48.49M18.7857 48.5147V48.49M18.7857 48.49V48.4652M18.7857 48.49V48.4652M18.7857 48.4652V48.4405M18.7857 48.4652V48.4405M18.7857 48.4405V48.4157M18.7857 48.4405V48.4157M18.7857 48.4157V48.391M18.7857 48.4157V48.391M18.7857 48.391V48.3662M18.7857 48.391V48.3662M18.7857 48.3662V48.3415M18.7857 48.3662V48.3415M18.7857 48.3415V48.3167M18.7857 48.3415V48.3167M18.7857 48.3167V48.292M18.7857 48.3167V48.292M18.7857 48.292V48.2672M18.7857 48.292V48.2672M18.7857 48.2672V48.2425M18.7857 48.2672V48.2425M18.7857 48.2425V48.2177M18.7857 48.2425V48.2177M18.7857 48.2177V48.193M18.7857 48.2177V48.193M18.7857 48.193V48.1682M18.7857 48.193V48.1682M18.7857 48.1682V48.1435M18.7857 48.1682V48.1435M18.7857 48.1435V48.1187M18.7857 48.1435V48.1187M18.7857 48.1187V48.094M18.7857 48.1187V48.094M18.7857 48.094V48.0692M18.7857 48.094V48.0692M18.7857 48.0692V48.0445M18.7857 48.0692V48.0445M18.7857 48.0445V48.0197M18.7857 48.0445V48.0197M18.7857 48.0197V47.995M18.7857 48.0197V47.995M18.7857 47.995V47.9702M18.7857 47.995V47.9702M18.7857 47.9702V47.9455M18.7857 47.9702V47.9455M18.7857 47.9455V47.9207M18.7857 47.9455V47.9207M18.7857 47.9207V47.896M18.7857 47.9207V47.896M18.7857 47.896V47.8712M18.7857 47.896V47.8712M18.7857 47.8712V47.8465M18.7857 47.8712V47.8465M18.7857 47.8465V47.8217M18.7857 47.8465V47.8217M18.7857 47.8217V47.797M18.7857 47.8217V47.797M18.7857 47.797V47.7722M18.7857 47.797V47.7722M18.7857 47.7722V47.7475M18.7857 47.7722V47.7475M18.7857 47.7475V47.7227M18.7857 47.7475V47.7227M18.7857 47.7227V47.698M18.7857 47.7227V47.698M18.7857 47.698V47.6732M18.7857 47.698V47.6732M18.7857 47.6732V47.6485M18.7857 47.6732V47.6485M18.7857 47.6485V47.6237M18.7857 47.6485V47.6237M18.7857 47.6237V47.599M18.7857 47.6237V47.599M18.7857 47.599V47.5742M18.7857 47.599V47.5742M18.7857 47.5742V47.5495M18.7857 47.5742V47.5495M18.7857 47.5495V47.5247M18.7857 47.5495V47.5247M18.7857 47.5247V47.5M18.7857 47.5247V47.5M18.7857 47.5V47.4753M18.7857 47.5V47.4753M18.7857 47.4753V47.4505M18.7857 47.4753V47.4505M18.7857 47.4505V47.4258M18.7857 47.4505V47.4258M18.7857 47.4258V47.401M18.7857 47.4258V47.401M18.7857 47.401V47.3763M18.7857 47.401V47.3763M18.7857 47.3763V47.3515M18.7857 47.3763V47.3515M18.7857 47.3515V47.3268M18.7857 47.3515V47.3268M18.7857 47.3268V47.302M18.7857 47.3268V47.302M18.7857 47.302V47.2773M18.7857 47.302V47.2773M18.7857 47.2773V47.2525M18.7857 47.2773V47.2525M18.7857 47.2525V47.2278M18.7857 47.2525V47.2278M18.7857 47.2278V47.203M18.7857 47.2278V47.203M18.7857 47.203V47.1783M18.7857 47.203V47.1783M18.7857 47.1783V47.1535M18.7857 47.1783V47.1535M18.7857 47.1535V47.1288M18.7857 47.1535V47.1288M18.7857 47.1288V47.104M18.7857 47.1288V47.104M18.7857 47.104V47.0793M18.7857 47.104V47.0793M18.7857 47.0793V47.0545M18.7857 47.0793V47.0545M18.7857 47.0545V47.0298M18.7857 47.0545V47.0298M18.7857 47.0298V47.005M18.7857 47.0298V47.005M18.7857 47.005V46.9803M18.7857 47.005V46.9803M18.7857 46.9803V46.9555M18.7857 46.9803V46.9555M18.7857 46.9555V46.9308M18.7857 46.9555V46.9308M18.7857 46.9308V46.906M18.7857 46.9308V46.906M18.7857 46.906V46.8813M18.7857 46.906V46.8813M18.7857 46.8813V46.8565M18.7857 46.8813V46.8565M18.7857 46.8565V46.8318M18.7857 46.8565V46.8318M18.7857 46.8318V46.807M18.7857 46.8318V46.807M18.7857 46.807V46.7823M18.7857 46.807V46.7823M18.7857 46.7823V46.7575M18.7857 46.7823V46.7575M18.7857 46.7575V46.7328M18.7857 46.7575V46.7328M18.7857 46.7328V46.708M18.7857 46.7328V46.708M18.7857 46.708V46.6833M18.7857 46.708V46.6833M18.7857 46.6833V46.6585M18.7857 46.6833V46.6585M18.7857 46.6585V46.6338M18.7857 46.6585V46.6338M18.7857 46.6338V46.609M18.7857 46.6338V46.609M18.7857 46.609V46.5843M18.7857 46.609V46.5843M18.7857 46.5843V46.5595M18.7857 46.5843V46.5595M18.7857 46.5595V46.5348M18.7857 46.5595V46.5348M18.7857 46.5348V46.51M18.7857 46.5348V46.51M18.7857 46.51V46.4853M18.7857 46.51V46.4853M18.7857 46.4853V46.4605M18.7857 46.4853V46.4605M18.7857 46.4605V46.4358M18.7857 46.4605V46.4358M18.7857 46.4358V46.411M18.7857 46.4358V46.411M18.7857 46.411V46.3863M18.7857 46.411V46.3863M18.7857 46.3863V46.3615M18.7857 46.3863V46.3615M18.7857 46.3615V46.3368M18.7857 46.3615V46.3368M18.7857 46.3368V46.312M18.7857 46.3368V46.312M18.7857 46.312V46.2873M18.7857 46.312V46.2873M18.7857 46.2873V46.2625M18.7857 46.2873V46.2625M18.7857 46.2625V46.2378M18.7857 46.2625V46.2378M18.7857 46.2378V46.213M18.7857 46.2378V46.213M18.7857 46.213V46.1883M18.7857 46.213V46.1883M18.7857 46.1883V46.1635M18.7857 46.1883V46.1635M18.7857 46.1635V46.1388M18.7857 46.1635V46.1388M18.7857 46.1388V46.114M18.7857 46.1388V46.114M18.7857 46.114V46.0893M18.7857 46.114V46.0893M18.7857 46.0893V46.0645M18.7857 46.0893V46.0645M18.7857 46.0645V46.0398M18.7857 46.0645V46.0398M18.7857 46.0398V46.015M18.7857 46.0398V46.015M18.7857 46.015V45.9903M18.7857 46.015V45.9903M18.7857 45.9903V45.9655M18.7857 45.9903V45.9655M18.7857 45.9655V45.9408M18.7857 45.9655V45.9408M18.7857 45.9408V45.916M18.7857 45.9408V45.916M18.7857 45.916V45.8913M18.7857 45.916V45.8913M18.7857 45.8913V45.8665M18.7857 45.8913V45.8665M18.7857 45.8665V45.8418M18.7857 45.8665V45.8418M18.7857 45.8418V45.817M18.7857 45.8418V45.817M18.7857 45.817V45.7923M18.7857 45.817V45.7923M18.7857 45.7923V45.7675M18.7857 45.7923V45.7675M18.7857 45.7675V45.7428M18.7857 45.7675V45.7428M18.7857 45.7428V45.718M18.7857 45.7428V45.718M18.7857 45.718V45.6933M18.7857 45.718V45.6933M18.7857 45.6933V45.6685M18.7857 45.6933V45.6685M18.7857 45.6685V45.6438M18.7857 45.6685V45.6438M18.7857 45.6438V45.619M18.7857 45.6438V45.619M18.7857 45.619V45.5943M18.7857 45.619V45.5943M18.7857 45.5943V45.5695M18.7857 45.5943V45.5695M18.7857 45.5695V45.5448M18.7857 45.5695V45.5448M18.7857 45.5448V45.52M18.7857 45.5448V45.52M18.7857 45.52V45.4953M18.7857 45.52V45.4953M18.7857 45.4953V45.4705M18.7857 45.4953V45.4705M18.7857 45.4705V45.4458M18.7857 45.4705V45.4458M18.7857 45.4458V45.421M18.7857 45.4458V45.421M18.7857 45.421V45.3963M18.7857 45.421V45.3963M18.7857 45.3963V45.3716M18.7857 45.3963V45.3716M18.7857 45.3716V45.3468M18.7857 45.3716V45.3468M18.7857 45.3468V45.3221M18.7857 45.3468V45.3221M18.7857 45.3221V45.2973M18.7857 45.3221V45.2973M18.7857 45.2973V45.2726M18.7857 45.2973V45.2726M18.7857 45.2726V45.2478M18.7857 45.2726V45.2478M18.7857 45.2478V45.2231M18.7857 45.2478V45.2231M18.7857 45.2231V45.1983M18.7857 45.2231V45.1983M18.7857 45.1983V45.1736M18.7857 45.1983V45.1736M18.7857 45.1736V45.1488M18.7857 45.1736V45.1488M18.7857 45.1488V45.1241M18.7857 45.1488V45.1241M18.7857 45.1241V45.0993M18.7857 45.1241V45.0993M18.7857 45.0993V45.0746M18.7857 45.0993V45.0746M18.7857 45.0746V45.0498M18.7857 45.0746V45.0498M18.7857 45.0498V45.0251M18.7857 45.0498V45.0251M18.7857 45.0251V45.0003M18.7857 45.0251V45.0003M18.7857 45.0003V44.9756M18.7857 45.0003V44.9756M18.7857 44.9756V44.9508M18.7857 44.9756V44.9508M18.7857 44.9508V44.9261M18.7857 44.9508V44.9261M18.7857 44.9261V44.9013M18.7857 44.9261V44.9013M18.7857 44.9013V44.8766M18.7857 44.9013V44.8766M18.7857 44.8766V44.8518M18.7857 44.8766V44.8518M18.7857 44.8518V44.8271M18.7857 44.8518V44.8271M18.7857 44.8271V44.8023M18.7857 44.8271V44.8023M18.7857 44.8023V44.7776M18.7857 44.8023V44.7776M18.7857 44.7776V44.7528M18.7857 44.7776V44.7528M18.7857 44.7528V44.7281M18.7857 44.7528V44.7281M18.7857 44.7281V44.7033M18.7857 44.7281V44.7033M18.7857 44.7033V44.6786M18.7857 44.7033V44.6786M18.7857 44.6786V44.6538M18.7857 44.6786V44.6538M18.7857 44.6538V44.6291M18.7857 44.6538V44.6291M18.7857 44.6291V44.6043M18.7857 44.6291V44.6043M18.7857 44.6043V44.5796M18.7857 44.6043V44.5796M18.7857 44.5796V44.5548M18.7857 44.5796V44.5548M18.7857 44.5548V44.5301M18.7857 44.5548V44.5301M18.7857 44.5301V44.5053M18.7857 44.5301V44.5053M18.7857 44.5053V44.4806M18.7857 44.5053V44.4806M18.7857 44.4806V44.4558M18.7857 44.4806V44.4558M18.7857 44.4558V44.4311M18.7857 44.4558V44.4311M18.7857 44.4311V44.4063M18.7857 44.4311V44.4063M18.7857 44.4063V44.3816M18.7857 44.4063V44.3816M18.7857 44.3816V44.3568M18.7857 44.3816V44.3568M18.7857 44.3568V44.3321M18.7857 44.3568V44.3321M18.7857 44.3321V44.3073M18.7857 44.3321V44.3073M18.7857 44.3073V44.2826M18.7857 44.3073V44.2826M18.7857 44.2826V44.2578M18.7857 44.2826V44.2578M18.7857 44.2578V44.2331M18.7857 44.2578V44.2331M18.7857 44.2331V44.2083M18.7857 44.2331V44.2083M18.7857 44.2083V44.1836M18.7857 44.2083V44.1836M18.7857 44.1836V44.1588M18.7857 44.1836V44.1588M18.7857 44.1588V44.1341M18.7857 44.1588V44.1341M18.7857 44.1341V44.1093M18.7857 44.1341V44.1093M18.7857 44.1093V44.0846M18.7857 44.1093V44.0846M18.7857 44.0846V44.0598M18.7857 44.0846V44.0598M18.7857 44.0598V44.0351M18.7857 44.0598V44.0351M18.7857 44.0351V44.0103M18.7857 44.0351V44.0103M18.7857 44.0103V43.9856M18.7857 44.0103V43.9856M18.7857 43.9856V43.9608M18.7857 43.9856V43.9608M18.7857 43.9608V43.9361M18.7857 43.9608V43.9361M18.7857 43.9361V43.9113M18.7857 43.9361V43.9113M18.7857 43.9113V43.8866M18.7857 43.9113V43.8866M18.7857 43.8866V43.8618M18.7857 43.8866V43.8618M18.7857 43.8618V43.8371M18.7857 43.8618V43.8371M18.7857 43.8371V43.8123M18.7857 43.8371V43.8123M18.7857 43.8123V43.7876M18.7857 43.8123V43.7876M18.7857 43.7876V43.7628M18.7857 43.7876V43.7628M18.7857 43.7628V43.7381M18.7857 43.7628V43.7381M18.7857 43.7381V43.7133M18.7857 43.7381V43.7133M18.7857 43.7133V43.6886M18.7857 43.7133V43.6886M18.7857 43.6886V43.6638M18.7857 43.6886V43.6638M18.7857 43.6638V43.6391M18.7857 43.6638V43.6391M18.7857 43.6391V43.6143M18.7857 43.6391V43.6143M18.7857 43.6143V43.5896M18.7857 43.6143V43.5896M18.7857 43.5896V43.5648M18.7857 43.5896V43.5648M18.7857 43.5648V43.5401M18.7857 43.5648V43.5401M18.7857 43.5401V43.5153M18.7857 43.5401V43.5153M18.7857 43.5153V43.4906M18.7857 43.5153V43.4906M18.7857 43.4906V43.4658M18.7857 43.4906V43.4658M18.7857 43.4658V43.4411M18.7857 43.4658V43.4411M18.7857 43.4411V43.4163M18.7857 43.4411V43.4163M18.7857 43.4163V43.3916M18.7857 43.4163V43.3916M18.7857 43.3916V43.3668M18.7857 43.3916V43.3668M18.7857 43.3668V43.3421M18.7857 43.3668V43.3421M18.7857 43.3421V43.3173M18.7857 43.3421V43.3173M18.7857 43.3173V43.2926M18.7857 43.3173V43.2926M18.7857 43.2926V43.2679M18.7857 43.2926V43.2679M18.7857 43.2679V43.2431M18.7857 43.2679V43.2431M18.7857 43.2431V43.2184M18.7857 43.2431V43.2184M18.7857 43.2184V43.1936M18.7857 43.2184V43.1936M18.7857 43.1936V43.1689M18.7857 43.1936V43.1689M18.7857 43.1689V43.1441M18.7857 43.1689V43.1441M18.7857 43.1441V43.1194M18.7857 43.1441V43.1194M18.7857 43.1194V43.0946M18.7857 43.1194V43.0946M18.7857 43.0946V43.0699M18.7857 43.0946V43.0699M18.7857 43.0699V43.0451M18.7857 43.0699V43.0451M18.7857 43.0451V43.0204M18.7857 43.0451V43.0204M18.7857 43.0204V42.9956M18.7857 43.0204V42.9956M18.7857 42.9956V42.9709M18.7857 42.9956V42.9709M18.7857 42.9709V42.9461M18.7857 42.9709V42.9461M18.7857 42.9461V42.9214M18.7857 42.9461V42.9214M18.7857 42.9214V42.8966M18.7857 42.9214V42.8966M18.7857 42.8966V42.8719M18.7857 42.8966V42.8719M18.7857 42.8719V42.8471M18.7857 42.8719V42.8471M18.7857 42.8471V42.8224M18.7857 42.8471V42.8224M18.7857 42.8224V42.7976M18.7857 42.8224V42.7976M18.7857 42.7976V42.7729M18.7857 42.7976V42.7729M18.7857 42.7729V42.7481M18.7857 42.7729V42.7481M18.7857 42.7481V42.7234M18.7857 42.7481V42.7234M18.7857 42.7234V42.6986M18.7857 42.7234V42.6986M18.7857 42.6986V42.6739M18.7857 42.6986V42.6739M18.7857 42.6739V42.6491M18.7857 42.6739V42.6491M18.7857 42.6491V42.6244M18.7857 42.6491V42.6244M18.7857 42.6244V42.5996M18.7857 42.6244V42.5996M18.7857 42.5996V42.5749M18.7857 42.5996V42.5749M18.7857 42.5749V42.5501M18.7857 42.5749V42.5501M18.7857 42.5501V42.5254M18.7857 42.5501V42.5254M18.7857 42.5254V42.5006M18.7857 42.5254V42.5006M18.7857 42.5006V42.4759M18.7857 42.5006V42.4759M18.7857 42.4759V42.4511M18.7857 42.4759V42.4511M18.7857 42.4511V42.4264M18.7857 42.4511V42.4264M18.7857 42.4264V42.4016M18.7857 42.4264V42.4016M18.7857 42.4016V42.3769M18.7857 42.4016V42.3769M18.7857 42.3769V42.3521M18.7857 42.3769V42.3521M18.7857 42.3521V42.3274M18.7857 42.3521V42.3274M18.7857 42.3274V42.3026M18.7857 42.3274V42.3026M18.7857 42.3026V42.2779M18.7857 42.3026V42.2779M18.7857 42.2779V42.2531M18.7857 42.2779V42.2531M18.7857 42.2531V42.2284M18.7857 42.2531V42.2284M18.7857 42.2284V42.2036M18.7857 42.2284V42.2036M18.7857 42.2036V42.1789M18.7857 42.2036V42.1789M18.7857 42.1789V42.1541M18.7857 42.1789V42.1541M18.7857 42.1541V42.1294M18.7857 42.1541V42.1294M18.7857 42.1294V42.1046M18.7857 42.1294V42.1046M18.7857 42.1046V42.0799M18.7857 42.1046V42.0799M18.7857 42.0799V42.0551M18.7857 42.0799V42.0551M18.7857 42.0551V42.0304M18.7857 42.0551V42.0304M18.7857 42.0304V42.0056M18.7857 42.0304V42.0056M18.7857 42.0056V41.9809M18.7857 42.0056V41.9809M18.7857 41.9809V41.9561M18.7857 41.9809V41.9561M18.7857 41.9561V41.9314M18.7857 41.9561V41.9314M18.7857 41.9314V41.9066M18.7857 41.9314V41.9066M18.7857 41.9066V41.8819M18.7857 41.9066V41.8819M18.7857 41.8819V41.8571M18.7857 41.8819V41.8571M18.7857 41.8571V41.8324M18.7857 41.8571V41.8324M18.7857 41.8324V41.8076M18.7857 41.8324V41.8076M18.7857 41.8076V41.7829M18.7857 41.8076V41.7829M18.7857 41.7829V41.7581M18.7857 41.7829V41.7581M18.7857 41.7581V41.7334M18.7857 41.7581V41.7334M18.7857 41.7334V41.7086M18.7857 41.7334V41.7086M18.7857 41.7086V41.6839M18.7857 41.7086V41.6839M18.7857 41.6839V41.6591M18.7857 41.6839V41.6591M18.7857 41.6591V41.6344M18.7857 41.6591V41.6344M18.7857 41.6344V41.6096M18.7857 41.6344V41.6096M18.7857 41.6096V41.5849M18.7857 41.6096V41.5849M18.7857 41.5849V41.5601M18.7857 41.5849V41.5601M18.7857 41.5601V41.5354M18.7857 41.5601V41.5354M18.7857 41.5354V41.5106M18.7857 41.5354V41.5106M18.7857 41.5106V41.4859M18.7857 41.5106V41.4859M18.7857 41.4859V41.4611M18.7857 41.4859V41.4611M18.7857 41.4611V41.4364M18.7857 41.4611V41.4364M18.7857 41.4364V41.4116M18.7857 41.4364V41.4116M18.7857 41.4116V41.3869M18.7857 41.4116V41.3869M18.7857 41.3869V41.3621M18.7857 41.3869V41.3621M18.7857 41.3621V41.3374M18.7857 41.3621V41.3374M18.7857 41.3374V41.3126M18.7857 41.3374V41.3126M18.7857 41.3126V41.2879M18.7857 41.3126V41.2879M18.7857 41.2879V41.2631M18.7857 41.2879V41.2631M18.7857 41.2631V41.2384M18.7857 41.2631V41.2384M18.7857 41.2384V41.2137M18.7857 41.2384V41.2137M18.7857 41.2137V41.1889M18.7857 41.2137V41.1889M18.7857 41.1889V41.1642M18.7857 41.1889V41.1642M18.7857 41.1642V41.1394M18.7857 41.1642V41.1394M18.7857 41.1394V41.1147M18.7857 41.1394V41.1147M18.7857 41.1147V41.0899M18.7857 41.1147V41.0899M18.7857 41.0899V41.0652M18.7857 41.0899V41.0652M18.7857 41.0652V41.0404M18.7857 41.0652V41.0404M18.7857 41.0404V41.0157M18.7857 41.0404V41.0157M18.7857 41.0157V40.9909M18.7857 41.0157V40.9909M18.7857 40.9909V40.9662M18.7857 40.9909V40.9662M18.7857 40.9662V40.9414M18.7857 40.9662V40.9414M18.7857 40.9414V40.9167M18.7857 40.9414V40.9167M18.7857 40.9167V40.8919M18.7857 40.9167V40.8919M18.7857 40.8919V40.8672M18.7857 40.8919V40.8672M18.7857 40.8672V40.8424M18.7857 40.8672V40.8424M18.7857 40.8424V40.8177M18.7857 40.8424V40.8177M18.7857 40.8177V40.7929M18.7857 40.8177V40.7929M18.7857 40.7929V40.7682M18.7857 40.7929V40.7682M18.7857 40.7682V40.7434M18.7857 40.7682V40.7434M18.7857 40.7434V40.7187M18.7857 40.7434V40.7187M18.7857 40.7187V40.6939M18.7857 40.7187V40.6939M18.7857 40.6939V40.6692M18.7857 40.6939V40.6692M18.7857 40.6692V40.6444M18.7857 40.6692V40.6444M18.7857 40.6444V40.6197M18.7857 40.6444V40.6197M18.7857 40.6197V40.5949M18.7857 40.6197V40.5949M18.7857 40.5949V40.5702M18.7857 40.5949V40.5702M18.7857 40.5702V40.5454M18.7857 40.5702V40.5454M18.7857 40.5454V40.5207M18.7857 40.5454V40.5207M18.7857 40.5207V40.4959M18.7857 40.5207V40.4959M18.7857 40.4959V40.4712M18.7857 40.4959V40.4712M18.7857 40.4712V40.4464M18.7857 40.4712V40.4464M18.7857 40.4464V40.4217M18.7857 40.4464V40.4217M18.7857 40.4217V40.3969M18.7857 40.4217V40.3969M18.7857 40.3969V40.3722M18.7857 40.3969V40.3722M18.7857 40.3722V40.3474M18.7857 40.3722V40.3474M18.7857 40.3474V40.3227M18.7857 40.3474V40.3227M18.7857 40.3227V40.2979M18.7857 40.3227V40.2979M18.7857 40.2979V40.2732M18.7857 40.2979V40.2732M18.7857 40.2732V40.2484M18.7857 40.2732V40.2484M18.7857 40.2484V40.2237M18.7857 40.2484V40.2237M18.7857 40.2237V40.1989M18.7857 40.2237V40.1989M18.7857 40.1989V40.1742M18.7857 40.1989V40.1742M18.7857 40.1742V40.1494M18.7857 40.1742V40.1494M18.7857 40.1494V40.1247M18.7857 40.1494V40.1247M18.7857 40.1247V40.0999M18.7857 40.1247V40.0999M18.7857 40.0999V40.0752M18.7857 40.0999V40.0752M18.7857 40.0752V40.0504M18.7857 40.0752V40.0504M18.7857 40.0504V40.0257M18.7857 40.0504V40.0257M18.7857 40.0257V40.0009M18.7857 40.0257V40.0009M18.7857 40.0009V39.9762M18.7857 40.0009V39.9762M18.7857 39.9762V39.9514M18.7857 39.9762V39.9514M18.7857 39.9514V39.9267M18.7857 39.9514V39.9267M18.7857 39.9267V39.9019M18.7857 39.9267V39.9019M18.7857 39.9019V39.8772M18.7857 39.9019V39.8772M18.7857 39.8772V39.8524M18.7857 39.8772V39.8524M18.7857 39.8524V39.8277M18.7857 39.8524V39.8277M18.7857 39.8277V39.8029M18.7857 39.8277V39.8029M18.7857 39.8029V39.7782M18.7857 39.8029V39.7782M18.7857 39.7782V39.7534M18.7857 39.7782V39.7534M18.7857 39.7534V39.7287M18.7857 39.7534V39.7287M18.7857 39.7287V39.7039M18.7857 39.7287V39.7039M18.7857 39.7039V39.6792M18.7857 39.7039V39.6792M18.7857 39.6792V39.6544M18.7857 39.6792V39.6544M18.7857 39.6544V39.6297M18.7857 39.6544V39.6297M18.7857 39.6297V39.6049M18.7857 39.6297V39.6049M18.7857 39.6049V39.5802M18.7857 39.6049V39.5802M18.7857 39.5802V39.5554M18.7857 39.5802V39.5554M18.7857 39.5554V39.5307M18.7857 39.5554V39.5307M18.7857 39.5307V39.5059M18.7857 39.5307V39.5059M18.7857 39.5059V39.4812M18.7857 39.5059V39.4812M18.7857 39.4812V39.4564M18.7857 39.4812V39.4564M18.7857 39.4564V39.4317M18.7857 39.4564V39.4317M18.7857 39.4317V39.4069M18.7857 39.4317V39.4069M18.7857 39.4069V39.3822M18.7857 39.4069V39.3822M18.7857 39.3822V39.3574M18.7857 39.3822V39.3574M18.7857 39.3574V39.3327M18.7857 39.3574V39.3327M18.7857 39.3327V39.3079M18.7857 39.3327V39.3079M18.7857 39.3079V39.2832M18.7857 39.3079V39.2832M18.7857 39.2832V39.2584M18.7857 39.2832V39.2584M18.7857 39.2584V39.2337M18.7857 39.2584V39.2337M18.7857 39.2337V39.209M18.7857 39.2337V39.209M18.7857 39.209V39.1842M18.7857 39.209V39.1842M18.7857 39.1842V39.1595M18.7857 39.1842V39.1595M18.7857 39.1595V39.1347M18.7857 39.1595V39.1347M18.7857 39.1347V39.11M18.7857 39.1347V39.11M18.7857 39.11V39.0852M18.7857 39.11V39.0852M18.7857 39.0852V39.0605M18.7857 39.0852V39.0605M18.7857 39.0605V39.0357M18.7857 39.0605V39.0357M18.7857 39.0357V39.011M18.7857 39.0357V39.011M18.7857 39.011V38.9862M18.7857 39.011V38.9862M18.7857 38.9862V38.9615M18.7857 38.9862V38.9615M18.7857 38.9615V38.9367M18.7857 38.9615V38.9367M18.7857 38.9367C18.7857 36.6028 16.9486 34.4773 14.6871 34.0607L18.7857 38.9367Z" stroke="black"/>
</g>
<defs>
<clipPath id="clip0_96_6669">
<rect width="64" height="64" fill="white"/>
</clipPath>
</defs>
</svg>
