<svg width="64" height="64" viewBox="0 0 64 64" fill="none" xmlns="http://www.w3.org/2000/svg">
<g clip-path="url(#clip0_91_6465)">
<path d="M24.8841 38.9545V0.516129H53.6169C58.9954 0.516129 63.3224 4.84317 63.3224 10.2216V38.9545H24.8841ZM10.2216 0.516129H14.7356V14.7356H0.516129V10.2216C0.516129 4.84317 4.84317 0.516129 10.2216 0.516129ZM0.516129 24.8841H14.7356V39.1035H0.516129V24.8841ZM53.7784 63.3224H49.2644V49.2644H63.4839V53.6169C63.4839 58.9954 59.1568 63.3224 53.7784 63.3224ZM24.8841 49.2644H39.1035V63.4839H24.8841V49.2644ZM0.516129 53.7784V49.2644H14.7356V63.4839H10.2216C4.84317 63.4839 0.516129 59.1568 0.516129 53.7784Z" stroke="black" stroke-width="1.03226"/>
</g>
<defs>
<clipPath id="clip0_91_6465">
<rect width="64" height="64" fill="white"/>
</clipPath>
</defs>
</svg>
