<svg width="64" height="64" viewBox="0 0 64 64" fill="none" xmlns="http://www.w3.org/2000/svg">
<g clip-path="url(#clip0_91_6460)">
<path d="M53.6169 0H24.3679V39.4706H63.8385V10.2216C63.8385 4.55812 59.2804 0 53.6169 0ZM15.2517 0H10.2216C4.55812 0 0 4.55812 0 10.2216V15.2517H15.2517V0ZM0 24.3679H15.2517V39.6196H0V24.3679ZM48.7483 63.8385H53.7784C59.4419 63.8385 64 59.2804 64 53.6169V48.7483H48.7483V63.8385ZM24.3679 48.7483H39.6196V64H24.3679V48.7483ZM0 48.7483V53.7784C0 59.4419 4.55812 64 10.2216 64H15.2517V48.7483H0Z" fill="black"/>
</g>
<defs>
<clipPath id="clip0_91_6460">
<rect width="64" height="64" fill="white"/>
</clipPath>
</defs>
</svg>
