<svg width="64" height="64" viewBox="0 0 64 64" fill="none" xmlns="http://www.w3.org/2000/svg">
<g clip-path="url(#clip0_76_4201)">
<path d="M60.6288 3.24847L36.8892 20.4982L40.4303 10.7365L60.6288 3.24432V3.24847Z" stroke="black" stroke-miterlimit="10"/>
<path d="M3.39201 3.265L27.2931 20.8212L23.5698 10.7406L3.421 3.21116C3.38787 3.19873 3.36302 3.24429 3.39201 3.265Z" stroke="black" stroke-miterlimit="10"/>
<path d="M51.7368 45.6087L45.1102 55.6314L59.2745 59.5244L63.3332 45.8158L51.7368 45.6087Z" stroke="black" stroke-miterlimit="10"/>
<path opacity="0.98" d="M0.753815 45.8158L4.77116 59.5244L18.894 55.6314L12.3089 45.6087L0.753815 45.8158Z" stroke="black" stroke-miterlimit="10"/>
<path d="M18.1485 28.6281L14.2139 34.5506L28.2125 35.1719L27.3842 20.8834L18.1485 28.6281Z" stroke="black" stroke-miterlimit="10"/>
<path d="M35.8331 35.1719L49.9642 34.6915L45.8971 28.6282" stroke="black" stroke-miterlimit="10"/>
<path d="M18.9147 55.4656L27.3842 51.5725L20.0536 45.9399L18.9147 55.4656Z" stroke="black" stroke-miterlimit="10"/>
<path d="M36.6614 51.5725L44.9114 55.5401L43.9506 45.9399L36.6614 51.5725Z" stroke="black" stroke-miterlimit="10"/>
<path d="M45.1102 55.6314L36.6614 51.5726L37.3655 57.0395L37.2826 59.3588L45.1102 55.6314Z" stroke="black" stroke-miterlimit="10"/>
<path d="M18.8939 55.6314L26.7629 59.3588L26.7215 57.0395L27.3842 51.5726L18.8939 55.6314Z" stroke="black" stroke-miterlimit="10"/>
<path d="M26.6718 42.1588L20.2689 40.1708L24.8578 37.9882L26.6718 42.1588Z" fill="black" stroke="black" stroke-miterlimit="10"/>
<path d="M37.2867 42.1257L39.1877 37.9882L43.8015 40.2661L37.2867 42.1257Z" fill="black" stroke="black" stroke-miterlimit="10"/>
<path d="M12.3088 45.6087L18.8939 55.6314" stroke="black" stroke-miterlimit="10"/>
<path d="M49.5376 34.7287L35.8331 35.1718L37.1169 42.2954L39.1877 37.9881L44.1577 40.266L49.5376 34.7287Z" stroke="black" stroke-miterlimit="10"/>
<path d="M19.8879 40.266L24.8578 37.9882L26.8872 42.2954L28.2125 35.1719L14.6571 34.5714L19.8879 40.266Z" stroke="black" stroke-miterlimit="10"/>
<path d="M19.9707 45.468L19.8879 40.2661" stroke="black" stroke-miterlimit="10"/>
<path d="M44.1576 40.2661L43.9506 45.94L49.1897 35.3541L44.1576 40.2661Z" stroke="black" stroke-miterlimit="10"/>
<path d="M28.2125 35.1719L26.8872 42.2954L28.5438 50.7443L28.9166 39.6448L28.2125 35.1719Z" stroke="black" stroke-miterlimit="10"/>
<path d="M35.8331 35.1719L35.129 39.6034L35.4604 50.7443L37.117 42.2954L35.8331 35.1719Z" stroke="black" stroke-miterlimit="10"/>
<path d="M37.1169 42.2955L35.4603 50.7443L36.6613 51.5727L43.9505 45.9401L44.1576 40.2661L37.1169 42.2955Z" stroke="black" stroke-miterlimit="10"/>
<path d="M19.8879 40.2661L20.0536 45.9401L27.3842 51.5727L28.5438 50.7443L26.8872 42.2955L19.8879 40.2661Z" stroke="black" stroke-miterlimit="10"/>
<path d="M37.2826 59.3588L37.3655 57.0395L36.7028 56.5011H27.3014L26.7216 57.0395L26.763 59.3588L19.7057 56.1615L21.6274 57.8678L27.2186 61.7195H36.7856L42.3768 57.8678L44.4517 55.9461L37.2826 59.3588Z" stroke="black" stroke-miterlimit="10"/>
<path d="M36.6614 51.5726L35.4603 50.7443H28.5438L27.3842 51.5726L26.7215 57.0395L27.3014 56.5011H36.7028L37.3654 57.0395L36.6614 51.5726Z" fill="black" stroke="black" stroke-miterlimit="10"/>
<path d="M61.718 22.7057L63.7888 12.6002L60.6619 3.30652C60.6495 3.27339 60.6122 3.26096 60.5832 3.28167L36.9099 20.4817C36.9099 20.4817 36.8975 20.5065 36.9099 20.5148L45.8972 28.6282L58.9432 32.4385L61.8009 29.0838L60.5584 28.1726L62.5464 26.3917L61.014 25.1907L63.0019 23.6997L61.718 22.7057Z" stroke="black" stroke-miterlimit="10"/>
<path d="M0.215332 12.6002L2.32754 22.7057L1.00223 23.6996L2.9902 25.232L1.45781 26.3917L3.44577 28.1726L2.2033 29.0837L5.10241 32.4384L18.1484 28.6281L27.3842 20.8834L3.40436 3.27332C3.40436 3.27332 3.38779 3.27332 3.38779 3.27746L0.215332 12.6002Z" stroke="black" stroke-miterlimit="10"/>
<path d="M63.3332 45.8158L58.9431 32.4384L45.8971 28.6282" stroke="black" stroke-miterlimit="10"/>
<path d="M18.1485 28.6282L5.10249 32.4384L0.753815 45.8158" stroke="black" stroke-miterlimit="10"/>
<path d="M35.8331 35.1719L36.6614 20.8834L40.4302 10.7365H23.574L27.4836 20.7509L28.2125 35.1719L28.5439 39.6448V50.7443H35.4603L35.5017 39.6448L35.8331 35.1719Z" stroke="black" stroke-miterlimit="10"/>
</g>
<defs>
<clipPath id="clip0_76_4201">
<rect width="64" height="58.9266" fill="white" transform="translate(0 3)"/>
</clipPath>
</defs>
</svg>
