<svg width="64" height="64" viewBox="0 0 64 64" fill="none" xmlns="http://www.w3.org/2000/svg">
<path d="M23.0377 22.3385H40.9478C41.7093 22.3385 42.325 22.9148 42.325 23.6277V40.3851C42.325 41.0967 41.708 41.6743 40.9465 41.6743H23.0377C22.2763 41.6743 21.6592 41.0967 21.6592 40.3851V23.6277C21.6592 22.9161 22.2763 22.3385 23.0377 22.3385Z" fill="black"/>
<path d="M2.3785 3H20.2873C21.0487 3 21.6645 3.57766 21.6645 4.29055V21.0479C21.6645 21.7595 21.0474 22.3372 20.286 22.3372H2.3785C1.61704 22.3372 1 21.7595 1 21.0479V4.29055C1 3.57766 1.61704 3 2.3785 3Z" fill="black"/>
<path d="M43.7127 3H61.6228C62.3843 3 63 3.57766 63 4.29055V21.0479C63 21.7595 62.3829 22.3372 61.6215 22.3372H43.714C42.9526 22.3372 42.3355 21.7595 42.3355 21.0479V4.29055C42.3355 3.57766 42.9526 3 43.7127 3Z" fill="black"/>
<path d="M2.3785 41.673H20.2873C21.0487 41.673 21.6645 42.2507 21.6645 42.9623V59.721C21.6645 60.4312 21.0474 61.0089 20.286 61.0089H2.3785C1.61704 61.0089 1 60.4325 1 59.721V42.9623C1 42.2507 1.61704 41.673 2.3785 41.673Z" fill="black"/>
<path d="M43.7127 41.673H61.6228C62.3843 41.673 63 42.2507 63 42.9623V59.721C63 60.4312 62.3829 61.0089 61.6215 61.0089H43.714C42.9526 61.0089 42.3355 60.4325 42.3355 59.721V42.9623C42.3355 42.2507 42.9526 41.673 43.7127 41.673Z" fill="black"/>
</svg>
