<svg width="64" height="64" viewBox="0 0 64 64" fill="none" xmlns="http://www.w3.org/2000/svg">
<path d="M23.0377 22.8385H40.9478C41.4648 22.8385 41.825 23.2216 41.825 23.6277V40.3851C41.825 40.7897 41.4637 41.1743 40.9465 41.1743H23.0377C22.5205 41.1743 22.1592 40.7897 22.1592 40.3851V23.6277C22.1592 23.2231 22.5205 22.8385 23.0377 22.8385ZM2.3785 3.5H20.2873C20.8035 3.5 21.1645 3.88375 21.1645 4.29055V21.0479C21.1645 21.4525 20.8032 21.8372 20.286 21.8372H2.3785C1.86128 21.8372 1.5 21.4525 1.5 21.0479V4.29055C1.5 3.88435 1.86162 3.5 2.3785 3.5ZM43.7127 3.5H61.6228C62.1391 3.5 62.5 3.88375 62.5 4.29055V21.0479C62.5 21.4525 62.1387 21.8372 61.6215 21.8372H43.714C43.1968 21.8372 42.8355 21.4525 42.8355 21.0479V4.29055C42.8355 3.88405 43.1974 3.5 43.7127 3.5ZM2.3785 42.173H20.2873C20.8039 42.173 21.1645 42.5571 21.1645 42.9623V59.721C21.1645 60.1239 20.8035 60.5089 20.286 60.5089H2.3785C1.86059 60.5089 1.5 60.1249 1.5 59.721V42.9623C1.5 42.5577 1.86128 42.173 2.3785 42.173ZM43.7127 42.173H61.6228C62.1394 42.173 62.5 42.5571 62.5 42.9623V59.721C62.5 60.1239 62.1391 60.5089 61.6215 60.5089H43.714C43.1961 60.5089 42.8355 60.1249 42.8355 59.721V42.9623C42.8355 42.5574 43.1971 42.173 43.7127 42.173Z" stroke="black"/>
</svg>
