<svg width="64" height="64" viewBox="0 0 64 64" fill="none" xmlns="http://www.w3.org/2000/svg">
<g clip-path="url(#clip0_76_4213)">
<path d="M50.1934 0.431544L50.194 0.431543C53.7295 0.42971 57.1213 1.83053 59.6251 4.3266C62.1289 6.82268 63.5402 10.2101 63.5493 13.7456V50.2136C63.4921 53.7178 62.0602 57.0592 59.5622 59.5175C57.0633 61.9766 53.6979 63.3548 50.192 63.3548C46.6861 63.3548 43.3207 61.9766 40.8218 59.5175C38.3238 57.0592 36.8919 53.7178 36.8347 50.2136V34.6546V34.1762L36.3571 34.2047C34.9331 34.2897 33.4956 34.3497 32 34.3497C30.4804 34.3497 29.0158 34.4106 27.5856 34.5072L27.1653 34.5355V34.9568V50.2136C27.1081 53.7178 25.6762 57.0592 23.1782 59.5175C20.6793 61.9766 17.3139 63.3548 13.808 63.3548C10.3021 63.3548 6.93667 61.9766 4.4378 59.5175C1.93978 57.0592 0.507876 53.7178 0.450704 50.2136V13.748C0.507876 10.2439 1.93978 6.90245 4.4378 4.4442C6.93667 1.98511 10.3021 0.606903 13.808 0.606903C17.3139 0.606903 20.6793 1.98511 23.1782 4.4442C25.6762 6.90247 27.1081 10.2439 27.1653 13.7481V29.3071V29.7855L27.6429 29.757C29.0669 29.6719 30.5044 29.612 32 29.612C33.5196 29.612 34.9842 29.5511 36.4144 29.4545L36.8347 29.4261V29.0048V13.7456C36.8438 10.2095 38.2556 6.82156 40.7602 4.32539C43.2647 1.82922 46.6574 0.428798 50.1934 0.431544ZM13.806 5.16925L13.8056 5.16925C11.5316 5.17222 9.3513 6.07614 7.74222 7.6831C6.13315 9.29007 5.22636 11.4691 5.22041 13.7432V13.7444V35.9382V36.8616L5.94839 36.2935C7.31669 35.2257 8.81276 34.3327 10.402 33.635C14.1136 32.0345 18.02 30.9301 22.0202 30.3504L22.4063 30.2945V29.9044L22.4063 13.7444L22.4063 13.7432C22.4003 11.4665 21.4915 9.2852 19.8791 7.67781C18.2668 6.07041 16.0827 5.16824 13.806 5.16925ZM12.3299 37.9456L12.3255 37.9476C7.95662 39.8877 5.20619 43.0707 5.20619 46.5586V50.2173C5.20619 52.4981 6.11226 54.6856 7.72508 56.2984C9.3379 57.9112 11.5254 58.8173 13.8062 58.8173C16.0871 58.8173 18.2745 57.9112 19.8874 56.2984C21.5002 54.6856 22.4063 52.4981 22.4063 50.2173V35.5968V35.0667L21.883 35.152C18.5962 35.6882 15.3877 36.6264 12.3299 37.9456ZM50.194 58.7924H50.1944C52.4684 58.7895 54.6487 57.8855 56.2578 56.2786C57.8669 54.6716 58.7736 52.4925 58.7796 50.2185V50.2173V28.0235V27.1001L58.0516 27.6682C56.6833 28.736 55.1872 29.629 53.598 30.3267C49.8864 31.9272 45.98 33.0316 41.9798 33.6112L41.5937 33.6672V34.0573L41.5937 50.2173L41.5937 50.2185C41.5997 52.4951 42.5085 54.6765 44.1209 56.2839C45.7332 57.8913 47.9173 58.7934 50.194 58.7924ZM51.6701 25.9947L51.6739 25.993C56.0429 24.0601 58.7938 20.8771 58.7938 17.4031V13.7444C58.7938 11.4635 57.8877 9.27607 56.2749 7.66325C54.6621 6.05043 52.4747 5.14436 50.1938 5.14436C47.9129 5.14436 45.7255 6.05043 44.1126 7.66325C42.4998 9.27607 41.5937 11.4635 41.5937 13.7444V28.3435V28.8737L42.117 28.7883C45.4038 28.2522 48.6123 27.3139 51.6701 25.9947Z" stroke="black" stroke-width="0.901408"/>
</g>
<defs>
<clipPath id="clip0_76_4213">
<rect width="64" height="64" fill="white"/>
</clipPath>
</defs>
</svg>
