<svg width="64" height="64" viewBox="0 0 64 64" fill="none" xmlns="http://www.w3.org/2000/svg">
<path d="M18.0718 36.1001H4.26761L4.45339 35.808L4.45399 35.8071L17.9196 14.7418C19.028 17.2342 20.0544 20.0149 20.6943 22.6475C21.3429 25.316 21.5795 27.7735 21.151 29.6153C20.7795 31.1503 19.7454 33.2779 18.5518 35.2829L18.5451 35.2941L18.5391 35.3056C18.3966 35.576 18.2393 35.8424 18.0718 36.1001ZM17.8899 14.6751C17.8899 14.6751 17.8899 14.6751 17.8899 14.6751L17.8899 14.6751Z" stroke="black"/>
<path d="M22.9609 10.7696C22.8162 10.4535 22.6656 10.136 22.5143 9.83329C22.4694 9.73702 22.4212 9.64194 22.3782 9.55697C22.3668 9.53454 22.3558 9.51283 22.3453 9.49198C22.2914 9.38488 22.2477 9.2944 22.2135 9.20897L22.2028 9.18213L22.1891 9.15671L21.5004 7.88401L26.7493 9.30655L26.8135 9.32396H26.8299L27.5327 9.5183L27.536 9.51922L28.3595 9.75304L28.361 9.75348L28.665 9.83872L29.3 10.0168V9.35729V5.96534C29.3 4.59881 30.3934 3.5 31.7334 3.5C32.4055 3.5 33.014 3.77355 33.4509 4.21925C33.8923 4.66969 34.1666 5.28193 34.1666 5.96534V11.0001V11.3791L34.5316 11.4815L35.1233 11.6474C35.1712 11.6835 35.2325 11.7301 35.3032 11.784C35.4273 11.8785 35.5805 11.9951 35.7422 12.1157C35.8207 12.1787 35.9012 12.2467 35.992 12.3234C36.0146 12.3425 36.0378 12.3621 36.0618 12.3823C36.1806 12.4825 36.3126 12.5924 36.4586 12.7048C36.9963 13.1383 37.6427 13.7004 38.3566 14.351L38.3565 14.3511L38.3671 14.3603C38.5519 14.5194 38.7291 14.6816 38.8891 14.8416L38.8954 14.8479L38.902 14.854C39.8241 15.7124 40.8508 16.7132 41.8276 17.8159C42.1005 18.1256 42.3686 18.441 42.6425 18.7727C42.7494 18.9043 42.8533 19.0289 42.9543 19.15C43.1304 19.3611 43.2978 19.5618 43.4568 19.7705C43.521 19.8561 43.5853 19.9411 43.6494 20.0259C43.9287 20.3954 44.2039 20.7594 44.4498 21.1387L44.4503 21.1395C44.5188 21.2446 44.5914 21.3507 44.6602 21.4512C44.6705 21.4661 44.6806 21.481 44.6906 21.4956C44.77 21.6116 44.8437 21.7204 44.9099 21.8259L44.9098 21.826L44.9162 21.8357C45.3075 22.4277 45.6552 23.0442 45.9926 23.6713C46.1326 23.9568 46.2748 24.2622 46.3955 24.5591L46.3987 24.5669L46.4021 24.5745C46.7694 25.397 47.0563 26.229 47.2399 27.0551L47.2445 27.0761L47.251 27.0966C47.2972 27.2438 47.332 27.4046 47.3507 27.5483V27.5601V27.6216L47.3656 27.6813C47.4176 27.8894 47.4369 28.1188 47.4588 28.4036L47.4587 28.4036L47.4596 28.4133C47.5403 29.2501 47.4998 30.0836 47.3193 30.9213L47.3188 30.9233C47.2445 31.2749 47.1447 31.611 47.0208 31.978C47.0067 32.018 46.9927 32.0577 46.9788 32.0972C46.8636 32.425 46.7544 32.7357 46.6182 33.0301L46.6181 33.0301L46.613 33.0419C46.3015 33.7634 45.9353 34.4793 45.5054 35.1447L45.4971 35.1575L45.4895 35.1709C45.354 35.4119 45.1912 35.6717 45.0259 35.9198C44.9365 36.0499 44.8455 36.1769 44.7529 36.3061C44.6624 36.4324 44.5701 36.5613 44.4823 36.69C44.2495 37.0075 44.0104 37.3271 43.7697 37.608L43.7569 37.6229L43.7453 37.6389C43.5158 37.9538 43.2963 38.2471 43.062 38.5009L43.0549 38.5086L43.0481 38.5166C42.6903 38.9384 42.3558 39.3302 42.0073 39.7048L41.9997 39.7129L41.9925 39.7214C41.7841 39.9663 41.5659 40.2095 41.3466 40.4237L41.3346 40.4354L41.3235 40.4478C41.1372 40.6559 40.9475 40.8448 40.7595 41.0323C40.728 41.0637 40.6965 41.095 40.6651 41.1264L40.665 41.1265C40.3152 41.4765 40.0225 41.7482 39.7745 41.9751L39.7738 41.9757L39.2029 42.5H34.6666H34.1666V43V48.8294V49.3294H34.6666H40.384C41.7847 49.3294 43.1148 48.8325 44.1847 47.9254L44.1848 47.9254L44.1902 47.9207L44.2167 47.8975C44.6018 47.5617 46.0518 46.2968 47.7586 44.4127L63.5 39.8619V43.1442C62.9595 43.3764 61.7915 43.906 60.5652 44.6404C59.3395 45.3743 57.9997 46.345 57.1941 47.4655L57.194 47.4656L22.5067 10.9787M22.9609 10.7696C22.961 10.77 22.9612 10.7703 22.9613 10.7706L22.5067 10.9787M22.9609 10.7696C22.9608 10.7695 22.9607 10.7693 22.9606 10.7691L22.5067 10.9787M22.9609 10.7696C23.0878 11.0445 23.2133 11.3111 23.3592 11.6031L23.3641 11.6128L23.3685 11.6226C23.4302 11.7607 23.4935 11.9012 23.5579 12.0443C23.7965 12.574 24.0511 13.1395 24.3015 13.7464L24.3008 13.7447L23.84 13.9387C23.5927 13.3393 23.3421 12.7827 23.1037 12.2534C23.0388 12.1092 22.9748 11.9671 22.912 11.8267C22.7627 11.528 22.6347 11.256 22.5067 10.9787M28.8 9.35729L28.496 9.27205L28.3 9.2164V9.35729H28.4718H28.4721H28.8ZM28.8 9.35729L28.935 8.87586L28.8 8.838V9.35729ZM35.2747 11.1706L35.1204 11.6307L35.1134 11.64C35.1134 11.64 35.1134 11.6401 35.1135 11.6401C35.1145 11.6408 35.1155 11.6416 35.1165 11.6423M35.2747 11.1706L35.123 11.6473M35.2747 11.1706L35.1608 11.5768L35.4133 11.24L35.1607 11.5771M35.1165 11.6423L35.1157 11.6447C35.1188 11.6457 35.1212 11.6466 35.123 11.6473M35.1165 11.6423C35.1186 11.644 35.1208 11.6456 35.123 11.6473M35.1165 11.6423L35.1165 11.6423C35.1206 11.6452 35.1238 11.6471 35.1257 11.6481M35.123 11.6473C35.1234 11.6474 35.1238 11.6476 35.1241 11.6477M35.1257 11.6481L35.1241 11.6477M35.1257 11.6481L35.1397 11.652L35.1607 11.5771M35.1257 11.6481C35.1267 11.6487 35.1273 11.649 35.1275 11.6491C35.1278 11.6492 35.1267 11.6487 35.1241 11.6477M35.1241 11.6477L35.1607 11.5771" stroke="black"/>
</svg>
