<svg width="64" height="64" viewBox="0 0 64 64" fill="none" xmlns="http://www.w3.org/2000/svg">
<path d="M3.80817 35.8908L4.03211 35.5387L17.5361 14.4134C17.7335 14.1041 18.1975 14.136 18.3468 14.472C20.6028 19.528 22.5495 25.816 21.6375 29.7307C21.2482 31.3414 20.1815 33.5227 18.9814 35.5387C18.8268 35.8321 18.6562 36.1201 18.4748 36.3974C18.3894 36.5254 18.2454 36.6001 18.0908 36.6001H4.20279C3.82945 36.6001 3.6108 36.1947 3.80817 35.8908Z" fill="#0086FF"/>
<path d="M64 39.8161V43.16C64 43.352 63.8827 43.5227 63.712 43.5973C62.6667 44.0453 59.088 45.688 57.6 47.7573C53.8027 53.0427 50.9014 60.6 44.416 60.6H17.36C7.77071 60.6 0 52.8027 0 43.1813V42.872C0 42.616 0.207953 42.4081 0.463977 42.4081H15.5467C15.8453 42.4081 16.064 42.6854 16.0374 42.9787C15.9306 43.96 16.112 44.9627 16.576 45.8747C17.472 47.6934 19.328 48.8294 21.3333 48.8294H28.8V43.0001H21.4186C21.04 43.0001 20.8161 42.5627 21.0347 42.2534C21.1147 42.1307 21.2054 42.0027 21.3013 41.8587C22 40.8667 22.9973 39.3254 23.9894 37.5707C24.6667 36.3867 25.3226 35.1227 25.8507 33.8534C25.9574 33.6241 26.0426 33.3893 26.128 33.16C26.272 32.7547 26.4214 32.376 26.528 31.9974C26.6347 31.6773 26.72 31.3413 26.8053 31.0267C27.056 29.9493 27.1627 28.808 27.1627 27.624C27.1627 27.16 27.1414 26.6747 27.0987 26.2107C27.0773 25.704 27.0134 25.1973 26.9493 24.6906C26.9066 24.2427 26.8267 23.8 26.7413 23.336C26.6347 22.6587 26.4853 21.9867 26.3146 21.3093L26.256 21.0534C26.128 20.5893 26.0213 20.1467 25.8721 19.6827C25.4506 18.2266 24.9654 16.808 24.4533 15.48C24.2667 14.952 24.0533 14.4454 23.84 13.9387C23.5254 13.176 23.2053 12.4827 22.912 11.8267C22.7627 11.528 22.6347 11.256 22.5067 10.9787C22.3627 10.664 22.2134 10.3493 22.064 10.0507C21.9574 9.82137 21.8346 9.60802 21.7493 9.39466L20.8373 7.70933C20.7093 7.47999 20.9227 7.20798 21.1733 7.27733L26.8801 8.82396H26.896C26.9066 8.82396 26.912 8.82936 26.9173 8.82936L27.6693 9.03731L28.496 9.27205L28.8 9.35729V5.96534C28.8 4.32798 30.112 3 31.7334 3C32.544 3 33.28 3.33067 33.808 3.86929C34.336 4.40802 34.6666 5.14401 34.6666 5.96534V11.0001L35.2747 11.1706C35.3227 11.1867 35.3707 11.208 35.4133 11.24C35.5627 11.352 35.776 11.5173 36.048 11.7201C36.2613 11.8906 36.4907 12.0987 36.768 12.312C37.3173 12.7546 37.9734 13.3253 38.6934 13.9814C38.8853 14.1467 39.072 14.3173 39.2427 14.488C40.1707 15.352 41.2107 16.3653 42.2027 17.4854C42.48 17.8 42.752 18.12 43.0293 18.456C43.3067 18.7973 43.6001 19.1333 43.856 19.4694C44.192 19.9174 44.5547 20.3813 44.8694 20.8667C45.0187 21.096 45.1894 21.3307 45.3334 21.56C45.7387 22.1733 46.096 22.8081 46.4374 23.4427C46.5814 23.736 46.7307 24.056 46.8587 24.3707C47.2373 25.2187 47.536 26.0827 47.728 26.9467C47.7866 27.1334 47.8293 27.336 47.8507 27.5174V27.5601C47.9147 27.816 47.936 28.088 47.9573 28.3653C48.0427 29.2507 48 30.136 47.808 31.0267C47.728 31.4054 47.6214 31.7626 47.4933 32.1414C47.3653 32.504 47.2373 32.8827 47.072 33.24C46.7521 33.9813 46.3733 34.7227 45.9253 35.416C45.7813 35.672 45.6107 35.944 45.44 36.2001C45.2533 36.472 45.0613 36.728 44.8907 36.9787C44.656 37.2987 44.4054 37.6347 44.1494 37.9334C43.92 38.248 43.6854 38.5627 43.4294 38.84C43.072 39.2613 42.7307 39.6614 42.3733 40.0454C42.1601 40.296 41.9307 40.552 41.696 40.7814C41.4667 41.0373 41.232 41.2667 41.0186 41.48C40.6614 41.8374 40.3627 42.1147 40.112 42.344L39.5254 42.8827C39.44 42.9574 39.328 43.0001 39.2107 43.0001H34.6666V48.8294H40.384C41.664 48.8294 42.8801 48.376 43.8614 47.544C44.1973 47.2507 45.664 45.9814 47.3973 44.0667C47.456 44.0027 47.5307 43.9547 47.6161 43.9334L63.408 39.3681C63.7014 39.2827 64 39.5067 64 39.8161Z" fill="#0086FF"/>
</svg>
