<svg width="62" height="62" viewBox="0 0 62 62" fill="none" xmlns="http://www.w3.org/2000/svg">
<g clip-path="url(#clip0_29_476)">
<path d="M22.0894 39.9156C21.0999 39.9156 20.1811 39.782 19.3329 39.5151C18.4847 39.2481 17.7701 38.8476 17.1889 38.3135C16.6077 37.7794 16.1916 37.112 15.9403 36.3109C15.7047 35.5099 15.6733 34.5753 15.846 33.5073C15.9716 32.8318 16.1052 32.1565 16.2465 31.4811C16.4036 30.8057 16.5606 30.1224 16.7177 29.4314C17.2361 27.311 18.1706 25.7011 19.5214 24.6016C20.8721 23.5021 22.6942 22.9524 24.9873 22.9524C25.9768 22.9524 26.8878 23.0938 27.7203 23.3765C28.5684 23.6434 29.283 24.0519 29.8642 24.6016C30.461 25.1513 30.8773 25.8267 31.1129 26.6278C31.3642 27.4288 31.3956 28.3634 31.2071 29.4314C31.0971 30.1224 30.9637 30.8057 30.8066 31.4811C30.6653 32.1565 30.5161 32.8318 30.359 33.5073C29.8249 35.659 28.8825 37.2691 27.5318 38.3371C26.181 39.3895 24.3669 39.9156 22.0894 39.9156ZM22.3957 36.523C23.2439 36.523 23.99 36.2716 24.6339 35.769C25.2778 35.2665 25.7334 34.4654 26.0004 33.3659C26.1731 32.6749 26.3224 32.023 26.448 31.4104C26.5894 30.7979 26.715 30.1618 26.825 29.5021C27.0292 28.4026 26.935 27.6015 26.5423 27.099C26.1495 26.5964 25.5292 26.345 24.681 26.345C23.8329 26.345 23.0867 26.5964 22.4428 27.099C21.8145 27.6015 21.3669 28.4026 21.0999 29.5021C20.9272 30.1618 20.7701 30.7979 20.6287 31.4104C20.5031 32.023 20.3773 32.6749 20.2517 33.3659C20.0633 34.4654 20.1575 35.2665 20.5345 35.769C20.9114 36.2716 21.5318 36.523 22.3957 36.523ZM32.1711 39.68C32.014 39.68 31.8884 39.6251 31.7942 39.5151C31.6999 39.4051 31.6684 39.2637 31.6999 39.091L34.9512 23.777C34.9826 23.6043 35.069 23.4629 35.2104 23.3529C35.3517 23.2429 35.5009 23.188 35.658 23.188H41.9249C42.883 23.188 43.7469 23.298 44.5165 23.5178C45.3018 23.7377 45.9537 24.0755 46.472 24.5309C46.9904 24.9864 47.3516 25.5597 47.5558 26.2508C47.7599 26.9262 47.7678 27.7193 47.5794 28.6304C47.1866 30.4367 46.3856 31.7716 45.1762 32.6356C43.9825 33.4995 42.3726 33.9314 40.3464 33.9314H37.1658L36.0821 39.091C36.0506 39.2637 35.9643 39.4051 35.8229 39.5151C35.6972 39.6251 35.548 39.68 35.3753 39.68H32.1711ZM37.7784 30.6801H40.4878C41.1317 30.6801 41.705 30.5073 42.2077 30.1618C42.726 29.8162 43.0636 29.29 43.2208 28.5832C43.2992 28.1749 43.315 27.8136 43.2679 27.4995C43.2207 27.1854 43.0558 26.934 42.7731 26.7456C42.506 26.5571 42.0899 26.4628 41.5244 26.4628H38.6972L37.7784 30.6801Z" fill="black"/>
<path fill-rule="evenodd" clip-rule="evenodd" d="M31 62C48.1208 62 62 48.1208 62 31C62 13.8792 48.1208 0 31 0C13.8792 0 0 13.8792 0 31C0 48.1208 13.8792 62 31 62ZM19.3328 39.5151C20.181 39.7821 21.0998 39.9156 22.0894 39.9156C24.3669 39.9156 26.181 39.3895 27.5317 38.3371C28.8825 37.2691 29.8249 35.6591 30.3589 33.5073C30.516 32.8319 30.6652 32.1565 30.8066 31.4811C30.9637 30.8057 31.0971 30.1225 31.2071 29.4314C31.3956 28.3634 31.3642 27.4288 31.1128 26.6278C30.8772 25.8267 30.461 25.1513 29.8642 24.6016C29.283 24.0519 28.5684 23.6435 27.7202 23.3765C26.8878 23.0938 25.9768 22.9524 24.9872 22.9524C22.6941 22.9524 20.8721 23.5021 19.5213 24.6016C18.1706 25.7011 17.236 27.311 16.7177 29.4314C16.5606 30.1225 16.4036 30.8057 16.2465 31.4811C16.1051 32.1565 15.9716 32.8319 15.846 33.5073C15.6732 34.5753 15.7046 35.5099 15.9402 36.3109C16.1915 37.112 16.6077 37.7795 17.1889 38.3135C17.7701 38.8476 18.4847 39.2481 19.3328 39.5151ZM24.6338 35.769C23.9899 36.2716 23.2438 36.523 22.3956 36.523C21.5317 36.523 20.9114 36.2716 20.5344 35.769C20.1574 35.2665 20.0632 34.4654 20.2517 33.3659C20.3773 32.6749 20.503 32.023 20.6286 31.4104C20.77 30.7979 20.9271 30.1618 21.0998 29.5021C21.3668 28.4026 21.8145 27.6015 22.4428 27.099C23.0867 26.5964 23.8328 26.345 24.681 26.345C25.5291 26.345 26.1495 26.5964 26.5422 27.099C26.9349 27.6015 27.0291 28.4026 26.8249 29.5021C26.7149 30.1618 26.5893 30.7979 26.448 31.4104C26.3223 32.023 26.1731 32.6749 26.0003 33.3659C25.7333 34.4654 25.2778 35.2665 24.6338 35.769ZM31.7941 39.5151C31.8883 39.6251 32.0139 39.68 32.1711 39.68H35.3752C35.5479 39.68 35.6971 39.6251 35.8229 39.5151C35.9642 39.4051 36.0505 39.2637 36.082 39.091L37.1658 33.9314H40.3464C42.3725 33.9314 43.9824 33.4995 45.1762 32.6356C46.3855 31.7717 47.1866 30.4367 47.5793 28.6304C47.7678 27.7193 47.7598 26.9262 47.5557 26.2508C47.3515 25.5597 46.9903 24.9864 46.472 24.5309C45.9537 24.0755 45.3018 23.7377 44.5165 23.5178C43.7468 23.298 42.8829 23.188 41.9249 23.188H35.6579C35.5008 23.188 35.3517 23.2429 35.2103 23.3529C35.0689 23.4629 34.9825 23.6043 34.9511 23.777L31.6999 39.091C31.6684 39.2637 31.6999 39.4051 31.7941 39.5151ZM40.4877 30.6801H37.7783L38.6972 26.4628H41.5244C42.0898 26.4628 42.506 26.5571 42.7731 26.7456C43.0558 26.934 43.2207 27.1854 43.2678 27.4995C43.3149 27.8136 43.2992 28.1749 43.2207 28.5832C43.0636 29.29 42.7259 29.8162 42.2076 30.1618C41.7049 30.5073 41.1317 30.6801 40.4877 30.6801Z" fill="white"/>
</g>
<defs>
<clipPath id="clip0_29_476">
<rect width="62" height="62" fill="white"/>
</clipPath>
</defs>
</svg>
