<svg width="64" height="64" viewBox="0 0 64 64" fill="none" xmlns="http://www.w3.org/2000/svg">
<g clip-path="url(#clip0_97_6976)">
<path d="M28.7271 39.9682L28.73 39.966C30.2334 38.7772 31.2533 37.0061 31.8235 34.7086L31.8236 34.7086L31.8252 34.7014C31.9878 34.0024 32.1422 33.3036 32.2886 32.6046C32.4526 31.8988 32.5919 31.1852 32.7069 30.4636C32.9103 29.308 32.8827 28.2616 32.5949 27.3414C32.327 26.4331 31.851 25.6589 31.1687 25.0297C30.5096 24.407 29.7062 23.9508 28.7699 23.6553C27.8543 23.345 26.8606 23.1928 25.7933 23.1928C23.3479 23.1928 21.3437 23.7796 19.8354 25.0074C18.3372 26.227 17.3255 27.9947 16.7713 30.2621L16.7712 30.2621L16.7694 30.27C16.6074 30.9826 16.4455 31.687 16.2836 32.3834L16.2834 32.3833L16.2812 32.3942C16.1345 33.095 15.9959 33.7958 15.8655 34.4967L15.8654 34.4967L15.8635 34.5083C15.6767 35.6635 15.7052 36.7068 15.9747 37.6233L15.9746 37.6233L15.9773 37.6319C16.2613 38.537 16.7363 39.3031 17.405 39.9176C18.0654 40.5244 18.8698 40.9719 19.8064 41.2667C20.7356 41.5592 21.7352 41.7032 22.8019 41.7032C25.2275 41.7032 27.2199 41.1425 28.7271 39.9682ZM22.2642 30.5804L22.2643 30.5804L22.2664 30.5717C22.5258 29.5031 22.9447 28.7921 23.4768 28.3654C24.0495 27.9192 24.7096 27.6949 25.4771 27.6949C26.2534 27.6949 26.723 27.9208 27.0044 28.281C27.274 28.6259 27.4019 29.2684 27.1986 30.3624L27.1986 30.3624L27.197 30.3715C27.0851 31.043 26.9574 31.6896 26.8139 32.3112L26.8138 32.3112L26.8113 32.3232C26.6833 32.9477 26.5308 33.6136 26.354 34.321L26.3532 34.3243C26.0941 35.3913 25.668 36.1017 25.1208 36.5287C24.5476 36.9761 23.8867 37.2011 23.1181 37.2011C22.3204 37.2011 21.8591 36.9725 21.5968 36.6229C21.3351 36.274 21.2099 35.6246 21.3973 34.5292C21.5259 33.8223 21.6544 33.1559 21.7827 32.5301C21.927 31.9048 22.0876 31.2549 22.2642 30.5804ZM49.6027 29.6601L49.6037 29.6552L49.0898 27.0976L49.5693 26.9559C49.5691 26.9554 49.569 26.9549 49.5689 26.9544C49.3325 26.1555 48.91 25.4816 48.3011 24.9466C47.7008 24.4191 46.958 24.0389 46.0888 23.7954C45.2422 23.5537 44.3035 23.436 43.2773 23.436H36.8082C36.5196 23.436 36.2599 23.5398 36.0391 23.7116C35.8005 23.8973 35.6443 24.148 35.5881 24.4465L32.2333 40.2482L32.2318 40.2552L32.2305 40.2623C32.1773 40.5544 32.224 40.863 32.44 41.1151C32.6411 41.3498 32.9147 41.46 33.2088 41.46H36.5164C36.8065 41.46 37.0746 41.3654 37.2969 41.1754C37.5294 40.9904 37.6812 40.7427 37.7365 40.4491L38.7706 35.5259H41.6479C43.8053 35.5259 45.5811 35.0665 46.9252 34.0944C48.297 33.114 49.1778 31.6147 49.6027 29.6601ZM43.8645 28.0168L43.8644 28.017L43.8755 28.0243C44.0592 28.1468 44.1429 28.2865 44.1691 28.4607C44.2069 28.7131 44.1975 29.0248 44.1253 29.4037C43.9856 30.0256 43.7007 30.4461 43.2918 30.7187L43.2917 30.7187L43.2859 30.7227C42.8551 31.0188 42.3633 31.1698 41.7938 31.1698H39.6177L40.3483 27.8165H42.8639C43.4113 27.8165 43.715 27.9113 43.8645 28.0168ZM63.5 32C63.5 49.3969 49.3969 63.5 32 63.5C14.6031 63.5 0.5 49.3969 0.5 32C0.5 14.6031 14.6031 0.5 32 0.5C49.3969 0.5 63.5 14.6031 63.5 32Z" stroke="black"/>
</g>
<defs>
<clipPath id="clip0_97_6976">
<rect width="64" height="64" fill="white"/>
</clipPath>
</defs>
</svg>
