<svg width="64" height="64" viewBox="0 0 64 64" fill="none" xmlns="http://www.w3.org/2000/svg">
<g clip-path="url(#clip0_97_6979)">
<path fill-rule="evenodd" clip-rule="evenodd" d="M32 64C49.6731 64 64 49.6731 64 32C64 14.3269 49.6731 0 32 0C14.3269 0 0 14.3269 0 32C0 49.6731 14.3269 64 32 64ZM19.9565 40.7898C20.832 41.0653 21.7805 41.2032 22.8019 41.2032C25.1529 41.2032 27.0255 40.6601 28.4198 39.5738C29.8141 38.4713 30.7869 36.8093 31.3382 34.5882C31.5004 33.8909 31.6544 33.1939 31.8003 32.4966C31.9625 31.7994 32.1002 31.0941 32.2138 30.3808C32.4083 29.2783 32.3759 28.3136 32.1165 27.4867C31.8733 26.6598 31.4436 25.9626 30.8275 25.3952C30.2276 24.8278 29.4899 24.4061 28.6144 24.1306C27.7551 23.8387 26.8147 23.6928 25.7933 23.6928C23.4262 23.6928 21.5453 24.2602 20.151 25.3952C18.7567 26.5302 17.792 28.192 17.257 30.3808C17.0948 31.0941 16.9327 31.7994 16.7706 32.4966C16.6246 33.1939 16.4868 33.8909 16.3571 34.5882C16.1788 35.6906 16.2112 36.6554 16.4544 37.4822C16.7139 38.3091 17.1434 38.9981 17.7434 39.5494C18.3433 40.1007 19.081 40.5142 19.9565 40.7898ZM25.4285 36.9229C24.7638 37.4417 23.9936 37.7011 23.1181 37.7011C22.2263 37.7011 21.5859 37.4417 21.1968 36.9229C20.8077 36.4041 20.7104 35.5772 20.905 34.4422C21.0346 33.7289 21.1644 33.056 21.2941 32.4237C21.44 31.7914 21.6022 31.1347 21.7805 30.4538C22.0561 29.3188 22.5181 28.4919 23.1667 27.9731C23.8314 27.4543 24.6016 27.1949 25.4771 27.1949C26.3526 27.1949 26.993 27.4543 27.3984 27.9731C27.8038 28.4919 27.9011 29.3188 27.6902 30.4538C27.5767 31.1347 27.447 31.7914 27.3011 32.4237C27.1715 33.056 27.0173 33.7289 26.839 34.4422C26.5635 35.5772 26.0932 36.4041 25.4285 36.9229ZM32.8197 40.7898C32.917 40.9033 33.0467 40.96 33.2088 40.96H36.5164C36.6947 40.96 36.8486 40.9033 36.9784 40.7898C37.1244 40.6762 37.2134 40.5303 37.246 40.352L38.3647 35.0259H41.6479C43.7394 35.0259 45.4012 34.5801 46.6335 33.6883C47.8819 32.7965 48.7087 31.4185 49.1141 29.5539C49.3087 28.6135 49.3005 27.7948 49.0898 27.0976C48.879 26.3843 48.5061 25.7924 47.9711 25.3222C47.436 24.8521 46.7631 24.5034 45.9525 24.2765C45.158 24.0495 44.2662 23.936 43.2773 23.936H36.8082C36.646 23.936 36.492 23.9927 36.3461 24.1062C36.2002 24.2198 36.111 24.3657 36.0786 24.544L32.7224 40.352C32.6899 40.5303 32.7224 40.6762 32.8197 40.7898ZM41.7938 31.6698H38.997L39.9455 27.3165H42.8639C43.4476 27.3165 43.8771 27.4138 44.1528 27.6083C44.4447 27.8029 44.6149 28.0623 44.6635 28.3866C44.7122 28.7108 44.6959 29.0838 44.6149 29.5053C44.4527 30.2349 44.1042 30.778 43.5691 31.1347C43.0502 31.4915 42.4585 31.6698 41.7938 31.6698Z" fill="#0500FF"/>
</g>
<defs>
<clipPath id="clip0_97_6979">
<rect width="64" height="64" fill="white"/>
</clipPath>
</defs>
</svg>
