<svg width="64" height="64" viewBox="0 0 64 64" fill="none" xmlns="http://www.w3.org/2000/svg">
<path d="M15.1711 22.9903L15.5796 22.8043L15.4386 22.3782C15.0113 21.0866 14.4789 19.398 14.0032 17.656C13.362 15.3082 12.7515 12.6143 12.7515 10.6717C12.7515 8.34901 13.2668 6.07286 14.6023 4.32683C16.0029 2.49556 18.1152 1.5 20.7042 1.5C22.7036 1.5 24.3907 2.22693 25.717 3.48456L26.058 3.12497L25.717 3.48457C26.9926 4.69408 27.8592 6.31842 28.4665 8.05318L28.9167 7.89556L28.4665 8.05319C29.5342 11.1032 29.9581 14.9657 30.077 18.8658L30.0918 19.3505H30.5768H33.1886H33.6736L33.6884 18.8658C33.8075 14.9657 34.2313 11.1032 35.2991 8.05321L34.8272 7.88798L35.2991 8.05318C35.9064 6.31843 36.773 4.69409 38.0486 3.48457L38.0486 3.48454C39.3747 2.22693 41.0618 1.5 43.0613 1.5C45.6503 1.5 47.7626 2.49557 49.1632 4.32681L49.5575 4.02527L49.1632 4.32683C50.4987 6.07286 51.014 8.34901 51.014 10.6717C51.014 12.6143 50.4036 15.3082 49.7622 17.656L49.7622 17.656C49.2865 19.3981 48.7542 21.0867 48.3269 22.3782L48.186 22.8043L48.5944 22.9903C50.4604 23.8399 53.1321 25.3138 55.5476 27.6077C58.6237 30.5292 61.3263 34.8315 61.3263 40.8009C61.3263 47.0123 58.6114 52.4952 53.4753 56.369C48.3891 60.2049 41.0673 62.3708 31.9055 62.3776H31.86C22.6981 62.3708 15.3762 60.2049 10.2904 56.369C5.15422 52.4952 2.43935 47.0123 2.43935 40.8009C2.43935 34.8315 5.1418 30.5292 8.21803 27.6077C10.6335 25.3138 13.3051 23.8399 15.1711 22.9903Z" stroke="black"/>
<path d="M31.9039 59.9344V59.4344L31.9064 59.4344L31.9045 59.4344L31.8964 59.4342L31.8828 59.4341L31.8691 59.4342L31.8611 59.4344L31.8596 59.4344C23.0822 59.4274 16.3741 57.3498 11.8733 53.9551C7.38417 50.5691 5.05965 45.852 5.05965 40.4649C5.05965 35.368 7.33975 31.7097 10.0272 29.1574C12.7235 26.5968 15.8192 25.1623 17.3895 24.5462C18.1889 24.2327 18.6468 23.3384 18.3571 22.4985C17.9205 21.2331 17.1713 18.9778 16.5318 16.6361C15.8877 14.2775 15.3718 11.8901 15.3718 10.3354C15.3718 8.35065 15.8181 6.70606 16.6875 5.56942C17.5416 4.45268 18.8455 3.77087 20.7042 3.77087C22.0098 3.77087 23.0551 4.22569 23.9093 5.03563C24.7753 5.85679 25.462 7.06075 25.992 8.57447C27.0536 11.607 27.4375 15.739 27.4885 20.0757C27.4985 20.928 28.1911 21.6214 29.0505 21.6214H34.7148C35.5745 21.6214 36.2668 20.9279 36.277 20.0757V20.0757C36.328 15.739 36.712 11.607 37.7736 8.57447C38.3035 7.06074 38.9902 5.85679 39.8562 5.03562C40.7104 4.22569 41.7557 3.77087 43.0614 3.77087C44.9201 3.77087 46.224 4.45269 47.0782 5.56942C47.9475 6.70605 48.3937 8.35065 48.3937 10.3354C48.3937 11.8901 47.8779 14.2775 47.2338 16.6361C46.5943 18.9777 45.845 21.233 45.4085 22.4984C45.1185 23.3385 45.5769 24.2327 46.3761 24.5462C47.9463 25.1623 51.042 26.5968 53.7382 29.1574C56.4257 31.7097 58.7058 35.368 58.7058 40.4649C58.7058 45.852 56.3813 50.5691 51.8922 53.9551C47.391 57.3502 40.6822 59.4278 31.9035 59.4344L31.9039 59.9344ZM31.9039 59.9344C49.6064 59.921 59.2058 51.5572 59.2058 40.4649C59.2058 29.9345 49.7596 25.3366 46.5587 24.0808C45.9938 23.8592 45.6838 23.2331 45.8811 22.6616H17.8844C18.0816 23.2331 17.7718 23.8592 17.2069 24.0808C14.0059 25.3366 4.55965 29.9345 4.55965 40.4649C4.55965 51.5572 14.1592 59.921 31.8616 59.9344C31.8687 59.9344 31.8757 59.9341 31.8828 59.9341C31.8898 59.9341 31.8969 59.9344 31.9039 59.9344Z" stroke="black"/>
<path d="M24.177 37.7314C24.177 39.1717 23.8345 40.2067 23.3366 40.8685C22.8467 41.5197 22.1897 41.8359 21.465 41.8359C20.7402 41.8359 20.0832 41.5197 19.5933 40.8685C19.0954 40.2067 18.7529 39.1717 18.7529 37.7314C18.7529 36.2912 19.0954 35.2561 19.5933 34.5943C20.0832 33.9431 20.7402 33.6269 21.465 33.6269C22.1897 33.6269 22.8467 33.9431 23.3366 34.5943C23.8345 35.2561 24.177 36.2912 24.177 37.7314Z" stroke="black"/>
<path d="M45.0548 37.7314C45.0548 39.1717 44.7124 40.2067 44.2146 40.8685C43.7247 41.5197 43.0677 41.8359 42.3431 41.8359C41.6182 41.8359 40.9612 41.5197 40.4712 40.8685C39.9734 40.2067 39.631 39.1717 39.631 37.7314C39.631 36.2911 39.9734 35.2561 40.4712 34.5943C40.9612 33.9431 41.6182 33.6269 42.3431 33.6269C43.0677 33.6269 43.7247 33.9431 44.2146 34.5943C44.7124 35.2561 45.0548 36.2911 45.0548 37.7314Z" stroke="black"/>
</svg>
