<svg width="64" height="64" viewBox="0 0 64 64" fill="none" xmlns="http://www.w3.org/2000/svg">
<g clip-path="url(#clip0_88_6382)">
<path fill-rule="evenodd" clip-rule="evenodd" d="M31.6951 63.8736C22.2107 63.8665 14.5708 61.6137 9.2327 57.5672C3.83061 53.4722 0.964828 47.6607 0.964828 41.0848C0.964828 34.7488 3.82434 30.1801 7.05985 27.0918C9.59547 24.6716 12.3936 23.1216 14.342 22.23C13.9014 20.8915 13.3517 19.1392 12.8599 17.3293C12.2018 14.9074 11.5562 12.0659 11.5562 9.98365C11.5562 7.51904 12.099 5.04388 13.5627 3.12058C15.1091 1.08857 17.437 0 20.2376 0C22.4264 0 24.2847 0.803708 25.7395 2.19019C27.1302 3.51547 28.0557 5.27547 28.6947 7.11017C29.8177 10.3341 30.2549 14.3844 30.3775 18.4264H33.06C33.1829 14.3844 33.6199 10.3341 34.743 7.11017C35.382 5.27547 36.3076 3.51547 37.6983 2.19019C39.1529 0.803708 41.0111 0 43.2 0C46.0006 0 48.3287 1.08857 49.875 3.12058C51.3386 5.04388 51.8815 7.51904 51.8815 9.98365C51.8815 12.0659 51.236 14.9074 50.5777 17.3293C50.086 19.1392 49.5363 20.8915 49.0957 22.23C51.044 23.1216 53.8423 24.6716 56.3779 27.0918C59.6133 30.1801 62.473 34.7488 62.473 41.0848C62.473 47.6607 59.6072 53.4722 54.2051 57.5672C48.8667 61.6137 41.2269 63.8665 31.7426 63.8736H31.6951Z" fill="#633001"/>
<path d="M20.2376 2.34398C16.1356 2.34398 14.2474 5.4042 14.2474 9.6364C14.2474 13.0004 16.4413 19.7376 17.3415 22.3602C17.544 22.9501 17.2258 23.5964 16.6456 23.8252C13.358 25.1215 3.65601 29.8677 3.65601 40.7378C3.65601 52.188 13.5154 60.8215 31.6971 60.8354C31.7043 60.8354 31.7115 60.835 31.7188 60.835C31.726 60.835 31.7333 60.8354 31.7405 60.8354C49.9222 60.8215 59.7815 52.188 59.7815 40.7378C59.7815 29.8677 50.0795 25.1215 46.792 23.8252C46.2119 23.5964 45.8935 22.9501 46.0961 22.3602C46.9963 19.7376 49.1903 13.0004 49.1903 9.6364C49.1903 5.4042 47.3021 2.34398 43.2 2.34398C37.2953 2.34398 35.8236 10.7081 35.7184 19.6848C35.7114 20.2841 35.227 20.7703 34.6275 20.7703H28.8099C28.2106 20.7703 27.7261 20.2841 27.7191 19.6848C27.6141 10.7081 26.1422 2.34398 20.2376 2.34398Z" fill="#D1884F"/>
<path d="M31.7405 57.1674C18.3815 57.1674 3.6791 50.0165 3.65607 40.7596C3.65604 40.7738 3.65601 40.7883 3.65601 40.8027C3.65601 52.2623 13.5311 60.9003 31.7405 60.9003C49.9499 60.9003 59.8249 52.2623 59.8249 40.8027C59.8249 40.7883 59.8249 40.7738 59.8249 40.7596C59.8017 50.0165 45.0994 57.1674 31.7405 57.1674Z" fill="#FEDC90"/>
<path d="M24.3179 37.9163C24.3179 41.0417 22.8409 42.6693 21.0189 42.6693C19.197 42.6693 17.72 41.0417 17.72 37.9163C17.72 34.7909 19.197 33.1633 21.0189 33.1633C22.8409 33.1633 24.3179 34.7909 24.3179 37.9163Z" fill="#633001"/>
<path d="M45.761 37.9163C45.761 41.0417 44.2841 42.6693 42.4622 42.6693C40.64 42.6693 39.1632 41.0417 39.1632 37.9163C39.1632 34.7909 40.64 33.1633 42.4622 33.1633C44.2841 33.1633 45.761 34.7909 45.761 37.9163Z" fill="#633001"/>
</g>
<defs>
<clipPath id="clip0_88_6382">
<rect width="64" height="64" fill="white"/>
</clipPath>
</defs>
</svg>
