<svg width="64" height="64" viewBox="0 0 64 64" fill="none" xmlns="http://www.w3.org/2000/svg">
<g clip-path="url(#clip0_97_6994)">
<path d="M34.7585 40.1257V44.6057C34.7585 46.2918 35.6923 47.792 37.014 48.5481C37.0145 48.5484 37.0151 48.5487 37.0156 48.549L44.1978 52.7247L44.2114 52.7326L44.2255 52.7396C45.6926 53.4732 47.375 53.488 48.7076 52.7265L48.7076 52.7266L48.7153 52.7221L55.7336 48.5445L55.7336 48.5446L55.7428 48.5389C57.2271 47.6112 57.983 46.1135 57.983 44.6057V36.2507C57.983 34.5647 57.0493 33.0645 55.7277 32.3085C55.7271 32.3081 55.7265 32.3077 55.7259 32.3074L48.5437 28.1317L48.5301 28.1238L48.516 28.1168C47.0489 27.3832 45.3665 27.3684 44.0339 28.1298L44.0305 28.1318L34.8409 33.4785L34.8399 33.4791L28.491 37.1548L28.4901 37.1553L19.3135 42.4944C18.1112 43.0904 16.7928 43.0737 15.79 42.5014C15.7895 42.5012 15.789 42.5009 15.7885 42.5006L2.26345 34.6527C1.07864 33.9091 0.5 32.7355 0.5 31.5718V15.8642C0.5 14.6891 1.08486 13.5414 2.22883 12.9694L2.24358 12.962L2.25781 12.9537L15.9455 4.94137C17.1472 4.34588 18.4649 4.36236 19.4674 4.93399C19.4683 4.93447 19.4691 4.93495 19.4699 4.93543L32.8268 12.7826C34.0124 13.5262 34.5914 14.7002 34.5914 15.8642V21.2574L29.2415 24.3547V19.7076C29.2415 18.0232 28.3095 16.5242 26.9899 15.7675L19.8096 11.4259L19.7925 11.4155L19.7745 11.4066C18.3074 10.673 16.625 10.6582 15.2924 11.4197L15.2924 11.4197L15.2892 11.4215L8.10378 15.5991L8.09687 15.6031L8.09009 15.6073C6.60584 16.535 5.84987 18.0327 5.84987 19.5405V27.8956C5.84987 29.5799 6.78185 31.0789 8.10145 31.8356L15.2818 36.1772L15.2989 36.1876L15.3169 36.1966C16.784 36.9301 18.4664 36.945 19.799 36.1835L19.799 36.1836L19.8082 36.1781L28.9911 30.6683L35.3332 27.1635L35.3333 27.1636L35.3452 27.1566L44.6877 21.6512C45.8897 21.0558 47.2076 21.0727 48.2101 21.6448C48.2105 21.6451 48.211 21.6453 48.2115 21.6456L61.7365 29.4935C62.9214 30.2371 63.5 31.4107 63.5 32.5744V48.4491C63.5 49.7702 62.7636 50.943 61.7467 51.5241L61.7438 51.5258L48.2224 59.3715C47.02 59.9677 45.7014 59.9511 44.6986 59.3787C44.6981 59.3784 44.6976 59.3782 44.6972 59.3779L31.1721 51.53C29.9873 50.7864 29.4086 49.6128 29.4086 48.4491V43.223L34.7585 40.1257Z" stroke="black"/>
</g>
<defs>
<clipPath id="clip0_97_6994">
<rect width="64" height="64" fill="white"/>
</clipPath>
</defs>
</svg>
