<svg width="64" height="64" viewBox="0 0 64 64" fill="none" xmlns="http://www.w3.org/2000/svg">
<g clip-path="url(#clip0_97_7002)">
<path d="M48.4595 21.2115C47.2898 20.5431 45.7859 20.5431 44.4491 21.2115L35.0914 26.7258L28.7415 30.235L19.5509 35.7493C18.3812 36.4178 16.8773 36.4178 15.5405 35.7493L8.35509 31.4047C7.18538 30.7363 6.34987 29.3995 6.34987 27.8956V19.5405C6.34987 18.2037 7.01828 16.8668 8.35509 16.0313L15.5405 11.8538C16.7102 11.1854 18.2141 11.1854 19.5509 11.8538L26.7363 16.1984C27.906 16.8668 28.7415 18.2037 28.7415 19.7076V25.2219L35.0914 21.5457V15.8642C35.0914 14.5274 34.423 13.1906 33.0862 12.3551L19.718 4.50131C18.5483 3.8329 17.0444 3.8329 15.7076 4.50131L2.00522 12.5222C0.668407 13.1906 0 14.5274 0 15.8642V31.5718C0 32.9086 0.668407 34.2454 2.00522 35.0809L15.5405 42.9347C16.7102 43.6031 18.2141 43.6031 19.5509 42.9347L28.7415 37.5875L35.0914 33.9112L44.282 28.564C45.4517 27.8956 46.9556 27.8956 48.2924 28.564L55.4778 32.7415C56.6475 33.4099 57.483 34.7467 57.483 36.2507V44.6057C57.483 45.9426 56.8146 47.2794 55.4778 48.1149L48.4595 52.2924C47.2898 52.9608 45.7859 52.9608 44.4491 52.2924L37.2637 48.1149C36.094 47.4465 35.2585 46.1097 35.2585 44.6057V39.2585L28.9086 42.9347V48.4491C28.9086 49.7859 29.577 51.1227 30.9138 51.9582L44.4491 59.812C45.6188 60.4804 47.1227 60.4804 48.4595 59.812L61.9948 51.9582C63.1645 51.2898 64 49.953 64 48.4491V32.5744C64 31.2376 63.3316 29.9008 61.9948 29.0653L48.4595 21.2115Z" fill="#8247E5"/>
</g>
<defs>
<clipPath id="clip0_97_7002">
<rect width="64" height="64" fill="white"/>
</clipPath>
</defs>
</svg>
