<svg width="64" height="64" viewBox="0 0 64 64" fill="none" xmlns="http://www.w3.org/2000/svg">
<g clip-path="url(#clip0_76_4205)">
<path d="M63.5 32C63.5 49.397 49.397 63.5 32 63.5C14.603 63.5 0.5 49.397 0.5 32C0.5 14.603 14.603 0.5 32 0.5C49.397 0.5 63.5 14.603 63.5 32Z" stroke="black"/>
<path d="M21.583 15.476H41.7768L44.9399 18.6391V24.844H35.5719V21.888V21.388H35.0719H28.1599H27.6599V21.888V28.8V29.3H28.1599H41.6488L44.8119 32.4631V45.8729L41.6488 49.036H21.455L18.2919 45.8729V39.668H27.6599V42.624V43.124H28.1599H34.9439H35.4439V42.624V35.712V35.212H34.9439H21.455L18.2919 32.0489V18.7671L21.583 15.476Z" fill="white" stroke="black"/>
</g>
<defs>
<clipPath id="clip0_76_4205">
<rect width="64" height="64" fill="white"/>
</clipPath>
</defs>
</svg>
