<svg width="64" height="64" viewBox="0 0 64 64" fill="none" xmlns="http://www.w3.org/2000/svg">
<path d="M11.4277 45.4411C11.7089 45.1599 12.0965 44.9951 12.5084 44.9951H61.9899C62.4489 44.9951 62.6775 45.548 62.3535 45.872L52.5788 55.6467C52.2976 55.9279 51.91 56.0927 51.4981 56.0927H2.01659C1.55762 56.0927 1.32899 55.5398 1.65302 55.2158L11.4277 45.4411Z" stroke="black"/>
<path d="M1.6529 18.7207L11.4238 8.94979C11.7261 8.66118 12.1171 8.5 12.5083 8.5H61.9898C62.4488 8.5 62.6774 9.05286 62.3534 9.3769L52.5787 19.1516C52.2975 19.4328 51.9099 19.5976 51.498 19.5976H2.01647C1.5575 19.5976 1.32887 19.0447 1.6529 18.7207Z" stroke="black"/>
<path d="M51.4981 26.6306C51.91 26.6306 52.2976 26.7954 52.5788 27.0766L62.3535 36.8513C62.6775 37.1753 62.4489 37.7282 61.9899 37.7282H12.5084C12.0965 37.7282 11.7089 37.5634 11.4277 37.2822L1.65302 27.5075C1.32899 27.1835 1.55762 26.6306 2.01659 26.6306H51.4981Z" stroke="black"/>
</svg>
