<?xml version="1.0" encoding="UTF-8"?>
<svg id="Layer_1" data-name="Layer 1" xmlns="http://www.w3.org/2000/svg" viewBox="0 0 64 64">
  <defs>
    <style>
      .cls-1, .cls-2 {
        stroke-width: 0px;
      }

      .cls-2 {
        fill: #fff;
      }
    </style>
  </defs>
  <path class="cls-2" d="M51.34,64H12.66c0-21.33,0-42.67,0-64C25.55,0,38.45,0,51.34,0v64ZM24.88,7.63c-.02-.06-.03-.11-.04-.15-.25-.91-.5-1.81-.75-2.72-.06-.21-.19-.25-.35-.11-.23.21-.46.41-.68.63-.93.92-1.78,1.91-2.58,2.94-1.83,2.35-3.36,4.89-4.71,7.55-1.05,2.08-1.72,4.25-1.84,6.59-.05,1.07,0,2.12.19,3.17.34,1.88,1.05,3.61,2.13,5.18.55.8,1.14,1.56,1.89,2.19,1.29,1.08,2.74,1.91,4.27,2.58.93.41,1.87.81,2.79,1.25,1.41.68,2.51,1.7,3.23,3.11.53,1.03.9,2.13,1.18,3.25.34,1.34.39,2.7.14,4.06-.23,1.25-.49,2.49-.62,3.76-.08.77-.11,1.55.01,2.32.15.96.64,1.71,1.39,2.3.55.43,1.21.52,1.88.48,1.02-.06,1.79-.54,2.29-1.44.29-.53.44-1.1.51-1.7.12-1,.06-2-.11-2.99-.22-1.26-.48-2.51-.7-3.77-.12-.7-.22-1.4-.28-2.1-.08-1,.13-1.97.46-2.92.42-1.22.97-2.39,1.52-3.56.02-.05.09-.09.14-.1.69-.25,1.39-.46,2.07-.74,2.13-.87,4.11-2.01,5.98-3.35,1.6-1.15,2.85-2.61,3.73-4.38.86-1.73,1.24-3.57,1.25-5.49,0-.77-.06-1.54-.16-2.3-.19-1.42-.54-2.79-1.07-4.12-.71-1.76-1.63-3.4-2.67-4.97-1.1-1.66-2.32-3.24-3.64-4.73-.73-.83-1.5-1.62-2.26-2.42-.07-.07-.14-.13-.24-.09-.1.03-.11.12-.12.21-.12.98-.24,1.97-.36,2.95-.01.09-.03.18-.05.3-.05-.09-.09-.14-.12-.19-1.03-1.71-2.06-3.41-3.19-5.05-.32-.47-.68-.91-1.04-1.35-.17-.21-.39-.17-.51.08-.58,1.23-1.15,2.46-1.72,3.69-.16.35-.29.72-.44,1.08-.02-.03-.03-.05-.04-.07-.21-.5-.41-1-.64-1.49-.5-1.11-1.07-2.18-1.73-3.21-.15-.23-.36-.24-.51-.04-1.15,1.6-2.27,3.21-3.29,4.89-.2.33-.39.66-.59,1.01ZM25.99,52.57s.04.09.06.12c.06.12.15.2.28.25.4.13.74-.14.69-.57-.04-.27-.11-.54-.18-.81-.02-.09-.02-.13.07-.17.26-.12.42-.34.48-.62.07-.28.04-.56-.04-.84-.14-.54-.42-1-.79-1.41-.03-.04-.06-.09-.06-.13.04-.29-.06-.52-.31-.69-.37-.26-.79-.35-1.23-.28-.33.05-.63.18-.86.44-.14.16-.22.34-.18.55.02.1,0,.15-.09.19-.09.05-.16.11-.14.23.03.15,0,.29-.04.43-.14.48-.19.96.06,1.43.04.07.03.13.01.2-.14.45-.21.91-.19,1.39.02.38.2.58.56.63.22.03.43,0,.55-.25,0,.05,0,.06.01.08.06.46.32.77.73.86.34.08.59-.11.59-.47,0-.18,0-.35,0-.55ZM38.97,52.89s.01.02.02.03c.15.31.32.42.62.39.32-.04.49-.2.56-.53.02-.11.03-.23.02-.35,0-.09.02-.13.09-.17.38-.25.63-.58.53-1.07-.08-.38-.18-.75-.28-1.12-.13-.44-.34-.86-.35-1.33,0-.19-.09-.39-.26-.49-.15-.08-.16-.19-.17-.33,0-.39-.12-.58-.45-.67-.51-.14-.99-.06-1.43.23-.27.18-.34.45-.24.75.02.07.01.1-.05.14-.15.11-.29.25-.32.43-.04.27-.18.48-.31.7-.02.02-.03.05-.04.08-.13.31-.16.62.03.91.18.28.41.51.69.7.04.03.08.09.09.14.02.32.03.64.04.96,0,.09.02.17.04.26.08.43.78.72,1.17.34ZM34.49,57.27c-.29.02-.5.02-.7.06-.19.04-.39.1-.56.19-.18.09-.2.28-.07.42.15.17.22.37.25.59.04.34-.09.65-.21.95-.09.22-.19.43-.27.66-.08.21-.09.43.02.64.13.27.38.4.66.44.37.05.75.06,1.12.11.56.08,1.11.17,1.66.27.35.06.7.13,1.05.11.55-.03.76-.41.49-.89-.2-.35-.48-.6-.88-.71-.47-.13-.93-.28-1.4-.42-.2-.07-.2-.07-.17-.28.08-.52.15-1.05.22-1.57.02-.14-.04-.25-.15-.32-.07-.04-.16-.09-.24-.1-.3-.06-.61-.1-.83-.13ZM30.12,57.25s0,.02,0,.03c-.14,0-.29,0-.42.03-.24.05-.47.09-.7.18-.19.07-.23.21-.18.41.08.37.17.74.23,1.11.08.41.06.42-.34.53-.5.13-.99.28-1.42.56-.32.21-.58.47-.7.85-.08.26,0,.5.24.63.16.08.33.13.51.16.55.08,1.09.03,1.63-.07.46-.08.89-.2,1.25-.52.04-.04.09-.08.14-.1.15-.06.3-.13.45-.16.21-.04.43-.06.62-.17.44-.23.56-.65.34-1.09-.08-.15-.14-.31-.19-.47-.12-.43-.16-.88-.15-1.32,0-.13-.04-.23-.15-.3-.08-.05-.16-.1-.25-.12-.3-.06-.61-.1-.91-.15Z"/>
  <path class="cls-1" d="M24.88,7.63c.21-.35.39-.69.59-1.01,1.02-1.68,2.15-3.3,3.29-4.89.15-.21.37-.19.51.04.66,1.02,1.23,2.1,1.73,3.21.22.49.43.99.64,1.49,0,.02.02.04.04.07.15-.37.28-.73.44-1.08.57-1.23,1.14-2.46,1.72-3.69.11-.24.34-.28.51-.08.36.44.72.89,1.04,1.35,1.13,1.64,2.16,3.34,3.19,5.05.03.05.07.11.12.19.02-.12.03-.21.05-.3.12-.98.24-1.97.36-2.95.01-.09.02-.18.12-.21.1-.04.17.02.24.09.75.81,1.53,1.6,2.26,2.42,1.32,1.49,2.54,3.07,3.64,4.73,1.04,1.58,1.97,3.22,2.67,4.97.53,1.33.88,2.7,1.07,4.12.1.77.16,1.53.16,2.3,0,1.92-.39,3.76-1.25,5.49-.88,1.77-2.13,3.23-3.73,4.38-1.87,1.34-3.85,2.48-5.98,3.35-.68.28-1.38.49-2.07.74-.05.02-.12.06-.14.1-.55,1.17-1.1,2.33-1.52,3.56-.33.95-.53,1.91-.46,2.92.06.7.16,1.41.28,2.1.22,1.26.48,2.51.7,3.77.17.99.23,1.99.11,2.99-.07.6-.21,1.17-.51,1.7-.5.9-1.27,1.38-2.29,1.44-.67.04-1.33-.05-1.88-.48-.75-.59-1.24-1.34-1.39-2.3-.12-.77-.09-1.55-.01-2.32.13-1.27.39-2.51.62-3.76.25-1.37.2-2.72-.14-4.06-.28-1.12-.65-2.22-1.18-3.25-.72-1.4-1.82-2.43-3.23-3.11-.92-.44-1.86-.84-2.79-1.25-1.54-.67-2.98-1.5-4.27-2.58-.75-.63-1.34-1.39-1.89-2.19-1.08-1.57-1.79-3.3-2.13-5.18-.19-1.05-.25-2.11-.19-3.17.12-2.33.79-4.51,1.84-6.59,1.35-2.66,2.88-5.19,4.71-7.55.8-1.03,1.65-2.02,2.58-2.94.22-.22.45-.42.68-.63.16-.14.29-.1.35.11.25.91.5,1.81.75,2.72.01.04.03.09.04.15ZM23.81,5.06c-.16.15-.3.28-.44.42-1.19,1.18-2.26,2.46-3.25,3.81-1.59,2.17-2.95,4.48-4.15,6.88-.87,1.74-1.44,3.57-1.63,5.51-.12,1.23-.09,2.45.12,3.66.32,1.85,1,3.56,2.06,5.12.57.84,1.2,1.64,2,2.29,1.27,1.02,2.67,1.81,4.16,2.46.95.41,1.91.82,2.84,1.28,1.55.76,2.68,1.96,3.41,3.52.44.94.77,1.92,1.02,2.93.33,1.32.42,2.66.2,4-.17,1-.36,1.99-.53,2.99-.16.96-.26,1.92-.17,2.89.05.53.17,1.04.47,1.5.28.42.6.81,1.05,1.07.38.21.79.27,1.22.27.84,0,1.53-.28,2.03-.97.41-.56.57-1.22.65-1.89.12-.96.05-1.93-.11-2.88-.22-1.26-.48-2.5-.7-3.76-.12-.7-.22-1.42-.28-2.13-.08-1.05.13-2.07.47-3.07.37-1.08.85-2.12,1.32-3.15.03-.07.06-.14.1-.22-.04,0-.07,0-.08.01-.8.2-1.6.35-2.42.41-.29.02-.59.03-.89.04-.13,0-.2-.07-.2-.17,0-.11.07-.18.21-.18.03,0,.05,0,.08,0,.71-.01,1.41-.08,2.11-.21,1.17-.22,2.29-.56,3.4-1,1.88-.75,3.64-1.72,5.33-2.83,1.01-.66,1.96-1.4,2.77-2.31,1.76-1.98,2.7-4.3,2.91-6.92.08-1.01.03-2.01-.09-3.02-.19-1.55-.57-3.04-1.17-4.48-.76-1.81-1.74-3.5-2.84-5.11-1.46-2.13-3.1-4.11-4.88-5.98-.15-.16-.3-.31-.46-.47-.02.03-.02.04-.03.05-.07.57-.14,1.13-.21,1.7-.06.47-.11.94-.17,1.41-.03.21-.26.32-.43.2-.05-.03-.09-.09-.12-.14-.68-1.1-1.35-2.21-2.03-3.31-.63-1.01-1.27-2.01-2-2.95-.1-.12-.2-.24-.31-.37-.11.22-.2.41-.3.61-.68,1.39-1.34,2.79-1.87,4.24-.06.15-.15.23-.28.23-.13,0-.23-.07-.29-.23-.6-1.56-1.33-3.06-2.19-4.5-.06-.1-.13-.2-.2-.31-.03.04-.06.07-.08.1-.48.69-.97,1.37-1.44,2.06-.83,1.22-1.66,2.45-2.35,3.76-.07.13-.16.21-.31.2-.13-.01-.21-.09-.26-.26-.11-.4-.22-.8-.33-1.2-.14-.52-.29-1.04-.43-1.58Z"/>
  <path class="cls-1" d="M25.99,52.57c0,.2,0,.37,0,.55,0,.36-.25.55-.59.47-.41-.1-.67-.4-.73-.86,0-.02,0-.03-.01-.08-.12.26-.33.28-.55.25-.37-.05-.54-.25-.56-.63-.02-.47.04-.94.19-1.39.02-.07.03-.13-.01-.2-.25-.47-.2-.95-.06-1.43.04-.14.08-.28.04-.43-.02-.11.06-.18.14-.23.08-.04.1-.09.09-.19-.04-.21.04-.39.18-.55.23-.26.53-.39.86-.44.45-.07.86.02,1.23.28.24.17.34.39.31.69,0,.04.03.1.06.13.36.42.65.88.79,1.41.07.28.1.56.04.84-.07.28-.22.49-.48.62-.09.04-.1.08-.07.17.07.27.15.54.18.81.06.43-.29.7-.69.57-.13-.04-.22-.13-.28-.25-.02-.04-.03-.07-.06-.12ZM26.73,51.12c.09-.09.19-.16.25-.26.12-.18.11-.39.08-.59-.09-.62-.41-1.13-.83-1.58-.03-.03-.07-.06-.11-.07-.7-.26-1.36-.15-1.98.22-.03.02-.07.06-.06.08.03.22-.08.41-.12.62-.07.39-.09.78.17,1.13.03.04.02.11,0,.16-.07.34-.16.67-.22,1.01-.03.18,0,.37.02.56.01.12.17.19.31.16.11-.02.07-.12.08-.18.02-.25.03-.51.06-.76.02-.2.13-.3.3-.31.14,0,.25.09.27.27.03.23.02.46.04.68.01.18.02.36.06.53.04.21.16.37.38.44.16.05.22.02.22-.15,0-.13,0-.26-.01-.39-.01-.41-.03-.82-.04-1.24,0-.06.02-.16.07-.19.07-.05.17-.08.25-.07.1.01.14.11.16.21.09.36.18.72.28,1.08.03.1.1.13.2.11.1-.02.13-.08.12-.17,0-.07,0-.13-.02-.2-.11-.41-.23-.83-.35-1.24-.04-.12-.02-.21.07-.3.12-.11.22-.24.18-.43,0-.05.05-.13.11-.16.07-.04.17-.01.2.07.03.08.07.18.04.26-.04.13-.1.26-.18.38-.06.09-.09.16,0,.29ZM26.15,48.25s.02-.02.02-.04c-.05-.07-.09-.14-.15-.2-.42-.34-1.1-.36-1.54-.03-.12.09-.22.2-.21.38.62-.26,1.24-.31,1.87-.11Z"/>
  <path class="cls-1" d="M38.97,52.89c-.39.38-1.09.09-1.17-.34-.02-.09-.03-.17-.04-.26-.02-.32-.02-.64-.04-.96,0-.05-.04-.11-.09-.14-.28-.18-.51-.42-.69-.7-.19-.29-.16-.6-.03-.91.01-.03.02-.05.04-.08.13-.22.27-.43.31-.7.02-.18.16-.32.32-.43.06-.04.07-.07.05-.14-.11-.3-.03-.56.24-.75.44-.3.92-.38,1.43-.23.33.09.45.28.45.67,0,.15.02.25.17.33.17.1.26.29.26.49.01.47.23.89.35,1.33.11.37.21.74.28,1.12.1.48-.15.81-.53,1.07-.07.05-.1.09-.09.17.01.11,0,.23-.02.35-.06.33-.24.49-.56.53-.3.03-.48-.08-.62-.39,0,0,0-.01-.02-.03ZM40.19,51.89c.19-.18.33-.36.27-.61-.1-.42-.21-.85-.34-1.26-.12-.39-.3-.77-.3-1.19,0-.22-.14-.36-.36-.39-.28-.03-.56-.05-.84-.05-.26,0-.51.06-.74.2-.17.1-.31.23-.31.42,0,.21-.09.35-.21.5-.02.03-.04.06-.06.1-.08.16-.16.32-.13.5.06.31.3.48.52.7,0-.22,0-.41-.14-.57-.02-.02-.05-.06-.05-.08,0-.07.02-.16.06-.2.04-.03.16-.04.19,0,.12.14.27.27.28.47.03.59.05,1.18.08,1.77,0,.08,0,.17.03.25.04.17.23.29.42.27.13-.01.21-.11.23-.3,0-.07.02-.14.02-.21,0-.39-.01-.77-.02-1.16,0-.13.05-.2.15-.21.1,0,.18.06.19.18.04.37.07.75.11,1.12.02.21.05.43.09.64.02.1.08.18.21.18.17,0,.25-.06.28-.19.02-.07.03-.14.03-.21-.02-.26-.05-.51-.09-.77-.05-.32-.13-.63-.19-.94-.02-.12.02-.2.12-.22.1-.02.17.02.21.14,0,.03.02.06.02.08.09.34.19.67.29,1.03ZM39.38,48.06c0-.06,0-.11,0-.16,0-.22-.05-.28-.26-.33-.12-.03-.26-.04-.38-.03-.24.01-.47.08-.67.22-.16.12-.19.26-.08.4.45-.13.91-.15,1.39-.11Z"/>
  <path class="cls-1" d="M34.49,57.27c.22.04.53.08.83.13.08.02.16.06.24.1.12.07.17.18.15.32-.07.52-.14,1.05-.22,1.57-.03.21-.04.22.17.28.46.15.93.29,1.4.42.4.11.68.36.88.71.27.48.06.86-.49.89-.36.02-.7-.04-1.05-.11-.55-.1-1.11-.19-1.66-.27-.37-.05-.75-.05-1.12-.11-.28-.04-.53-.16-.66-.44-.1-.21-.09-.43-.02-.64.08-.22.18-.44.27-.66.13-.3.25-.61.21-.95-.02-.22-.09-.42-.25-.59-.13-.14-.11-.33.07-.42.17-.09.37-.15.56-.19.2-.04.41-.04.7-.06ZM33.71,58.22c.06.23.1.49.02.74-.12.38-.27.75-.42,1.12-.2.49-.05.75.47.81.39.04.79.05,1.18.1.49.07.99.15,1.47.24.33.06.66.13,1,.1.19-.01.27-.11.21-.25-.12-.29-.32-.51-.62-.61-.26-.08-.52-.15-.78-.23-.31-.1-.62-.2-.93-.32-.19-.08-.25-.19-.23-.38,0-.09.02-.17.04-.26.05-.34.11-.67.16-1.01.01-.09,0-.14-.12-.11-.15.03-.3.05-.46.05-.33,0-.66,0-1.01,0ZM33.57,57.75c.33.16,1.42.15,1.64,0-.54-.13-1.08-.12-1.64,0Z"/>
  <path class="cls-1" d="M30.12,57.25c.3.05.61.09.91.15.09.02.17.07.25.12.1.07.15.17.15.3,0,.45.03.89.15,1.32.05.16.11.32.19.47.23.44.1.85-.34,1.09-.2.11-.41.13-.62.17-.16.03-.3.1-.45.16-.05.02-.1.06-.14.1-.36.32-.79.45-1.25.52-.54.09-1.08.15-1.63.07-.17-.03-.35-.08-.51-.16-.25-.12-.33-.36-.24-.63.12-.38.38-.64.7-.85.44-.28.93-.43,1.42-.56.41-.11.42-.12.34-.53-.07-.37-.15-.74-.23-1.11-.04-.2,0-.34.18-.41.22-.08.46-.13.7-.18.14-.03.28-.02.42-.03,0,0,0-.02,0-.03ZM29.25,58.15s0,.08,0,.11c.05.26.11.52.16.78.08.43-.05.65-.46.78-.09.03-.19.05-.29.08-.46.13-.91.27-1.3.56-.2.15-.37.32-.45.57-.04.11,0,.19.09.24.11.04.23.1.34.1.32.01.64.02.96,0,.63-.05,1.26-.14,1.76-.59.18-.16.41-.24.65-.27.17-.02.34-.05.49-.11.23-.09.38-.28.22-.62-.12-.24-.2-.5-.26-.76-.07-.28-.09-.57-.13-.87-.58.12-1.18.12-1.79,0ZM30.93,57.77c-.3-.16-1.4-.15-1.64,0,.55.13,1.08.13,1.64,0Z"/>
  <path class="cls-2" d="M23.81,5.06c.15.54.29,1.06.43,1.58.11.4.22.8.33,1.2.05.17.13.25.26.26.16.01.24-.07.31-.2.7-1.31,1.52-2.54,2.35-3.76.47-.69.96-1.37,1.44-2.06.02-.03.04-.06.08-.1.07.11.14.21.2.31.86,1.43,1.59,2.94,2.19,4.5.06.16.16.23.29.23.13,0,.22-.08.28-.23.53-1.45,1.19-2.85,1.87-4.24.09-.19.19-.39.3-.61.11.13.22.25.31.37.73.94,1.37,1.94,2,2.95.69,1.1,1.36,2.21,2.03,3.31.03.05.07.11.12.14.17.12.4.02.43-.2.06-.47.12-.94.17-1.41.07-.57.14-1.13.21-1.7,0-.01,0-.02.03-.05.16.16.31.31.46.47,1.78,1.87,3.42,3.85,4.88,5.98,1.11,1.62,2.09,3.3,2.84,5.11.6,1.44.98,2.93,1.17,4.48.12,1,.17,2.01.09,3.02-.21,2.63-1.15,4.95-2.91,6.92-.81.91-1.75,1.65-2.77,2.31-1.69,1.11-3.45,2.08-5.33,2.83-1.1.44-2.23.79-3.4,1-.7.13-1.4.2-2.11.21-.03,0-.05,0-.08,0-.13,0-.21.07-.21.18,0,.11.07.18.2.17.3,0,.59-.01.89-.04.82-.06,1.63-.21,2.42-.41.02,0,.04,0,.08-.01-.04.08-.07.15-.1.22-.48,1.04-.95,2.07-1.32,3.15-.34.99-.55,2.01-.47,3.07.05.71.16,1.42.28,2.13.22,1.25.48,2.5.7,3.76.16.95.23,1.91.11,2.88-.08.68-.24,1.33-.65,1.89-.5.69-1.2.98-2.03.97-.42,0-.84-.06-1.22-.27-.45-.26-.77-.64-1.05-1.07-.3-.45-.42-.97-.47-1.5-.09-.97,0-1.93.17-2.89.16-1,.36-1.99.53-2.99.22-1.35.13-2.68-.2-4-.25-1.01-.58-1.99-1.02-2.93-.73-1.57-1.86-2.76-3.41-3.52-.93-.46-1.89-.87-2.84-1.28-1.49-.65-2.89-1.44-4.16-2.46-.8-.65-1.43-1.44-2-2.29-1.06-1.55-1.74-3.26-2.06-5.12-.21-1.21-.24-2.44-.12-3.66.19-1.94.77-3.77,1.63-5.51,1.2-2.41,2.56-4.72,4.15-6.88.99-1.35,2.06-2.63,3.25-3.81.14-.14.29-.27.44-.42ZM24.4,24.11c0-1.7-1.37-3.08-3.05-3.1-1.7-.02-3.11,1.35-3.14,3.03-.03,1.77,1.41,3.14,3.06,3.16,1.69.02,3.13-1.35,3.12-3.1ZM41.4,27.2c1.7,0,3.09-1.37,3.09-3.06,0-1.73-1.36-3.11-3.06-3.13-1.72-.02-3.1,1.38-3.13,3.04-.03,1.74,1.39,3.17,3.1,3.15ZM18.29,28.65c.15-.06.29-.12.42-.18.04-.02.07-.08.11-.12-.04-.03-.07-.07-.11-.08-.43-.09-.83,0-1.2.21-.14.08-.19.21-.15.37.05.21.17.38.35.5.12.08.2.05.24-.09.03-.09.06-.17.1-.28.03.04.04.06.04.07.35.7.86,1.27,1.46,1.76,1.04.86,2.23,1.42,3.5,1.83,1.44.48,2.93.74,4.43.9,1.24.13,2.49.19,3.74.16,1.02-.02,2.03-.07,3.05-.13,1.15-.08,2.29-.25,3.42-.5,1.42-.32,2.8-.76,4.08-1.45.99-.53,1.89-1.17,2.59-2.06.12-.16.24-.33.37-.51.03.08.05.14.07.2.05.14.12.17.24.09.18-.12.3-.29.35-.5.03-.12,0-.24-.1-.32-.1-.07-.21-.13-.32-.18-.3-.12-.61-.15-.92-.08-.04,0-.08.05-.12.08.04.04.07.09.11.12.02.02.06.02.08.03.13.06.26.13.39.2-.03.06-.05.11-.08.15-.27.47-.63.87-1.03,1.23-.88.79-1.9,1.35-2.98,1.79-1.64.67-3.35,1.03-5.1,1.25-1.21.15-2.42.23-3.64.24-.93,0-1.87-.02-2.8-.06-1.25-.05-2.48-.21-3.7-.45-1.33-.27-2.62-.66-3.83-1.28-.91-.47-1.73-1.04-2.39-1.84-.26-.31-.49-.65-.66-1.07ZM33.73,52.66c0-.89-.7-1.6-1.58-1.6-.88,0-1.59.71-1.59,1.59,0,.87.71,1.59,1.57,1.59.9,0,1.61-.69,1.61-1.58ZM31.59,34.95c0-.11-.08-.19-.2-.18-.2.01-.4.02-.6.06-.53.11-.96.38-1.22.87-.06.11-.03.21.06.26.09.05.19.01.25-.1.17-.32.44-.54.79-.63.24-.07.49-.09.74-.12.11-.01.17-.06.19-.16Z"/>
  <path class="cls-2" d="M26.73,51.12c-.09-.13-.07-.2,0-.29.08-.11.14-.24.18-.38.02-.08-.01-.18-.04-.26-.03-.08-.13-.11-.2-.07-.05.03-.11.11-.11.16.04.19-.06.31-.18.43-.09.09-.11.18-.07.3.12.41.24.82.35,1.24.02.06.02.13.02.2,0,.09-.03.15-.12.17-.1.02-.17-.02-.2-.11-.1-.36-.19-.72-.28-1.08-.02-.1-.06-.2-.16-.21-.08,0-.18.02-.25.07-.04.03-.07.12-.07.19,0,.41.02.82.04,1.24,0,.13.01.26.01.39,0,.17-.05.2-.22.15-.22-.07-.34-.23-.38-.44-.04-.17-.05-.35-.06-.53-.02-.23-.01-.46-.04-.68-.02-.18-.14-.28-.27-.27-.17,0-.28.11-.3.31-.02.25-.04.51-.06.76,0,.07.03.16-.08.18-.14.03-.3-.04-.31-.16-.02-.18-.05-.38-.02-.56.05-.34.15-.67.22-1.01.01-.05.02-.13,0-.16-.25-.35-.24-.73-.17-1.13.04-.21.16-.4.12-.62,0-.02.03-.06.06-.08.63-.38,1.29-.48,1.98-.22.04.02.08.04.11.07.42.45.74.96.83,1.58.03.2.04.41-.08.59-.06.1-.16.17-.25.26ZM25.52,49.32c0-.06-.07-.14-.17-.15-.1,0-.17.06-.18.17,0,.06-.01.12-.01.19-.01.36.02.71.12,1.05.03.11.12.16.22.13.09-.03.14-.11.11-.21-.11-.37-.14-.75-.09-1.18ZM24.81,49.67c.03-.12-.04-.2-.13-.2-.1,0-.17.06-.18.18,0,.15-.02.3,0,.45.04.18.1.36.17.53.04.1.16.11.24.06.08-.06.1-.14.05-.23-.03-.06-.07-.12-.08-.18-.03-.2-.05-.4-.08-.6Z"/>
  <path class="cls-2" d="M26.15,48.25c-.64-.2-1.26-.14-1.87.11,0-.18.09-.29.21-.38.44-.32,1.12-.31,1.54.03.06.05.1.13.15.2,0,.01-.02.02-.02.04Z"/>
  <path class="cls-2" d="M40.19,51.89c-.1-.36-.19-.7-.29-1.03,0-.03-.02-.06-.02-.08-.04-.12-.11-.17-.21-.14-.1.03-.15.1-.12.22.06.31.14.63.19.94.04.25.07.51.09.77,0,.07,0,.14-.03.21-.03.13-.12.19-.28.19-.13,0-.19-.08-.21-.18-.04-.21-.06-.43-.09-.64-.04-.37-.07-.75-.11-1.12-.01-.13-.09-.19-.19-.18-.1,0-.15.08-.15.21,0,.39.01.77.02,1.16,0,.07,0,.14-.02.21-.02.19-.1.29-.23.3-.2.02-.39-.1-.42-.27-.02-.08-.02-.16-.03-.25-.03-.59-.05-1.18-.08-1.77-.01-.2-.16-.34-.28-.47-.03-.03-.15-.03-.19,0-.04.04-.05.13-.06.2,0,.03.03.06.05.08.15.15.15.34.14.57-.22-.22-.46-.4-.52-.7-.04-.18.04-.34.13-.5.02-.03.03-.07.06-.1.12-.14.21-.29.21-.5,0-.19.15-.33.31-.42.23-.13.48-.19.74-.2.28,0,.56.01.84.05.22.02.35.17.36.39,0,.42.18.8.3,1.19.13.42.23.84.34,1.26.06.25-.08.43-.27.61ZM38.99,49.54c-.02-.22-.04-.44-.07-.65-.02-.14-.1-.21-.2-.19-.11.01-.17.1-.14.25.06.36.08.73,0,1.09-.02.1.02.17.12.2.1.03.19-.03.21-.14.03-.18.05-.37.07-.55ZM39.69,49.49s-.02,0-.03,0c-.01-.13-.02-.26-.04-.38-.02-.12-.09-.18-.19-.17-.1,0-.16.09-.15.21,0,.03.01.07.01.1.02.23.04.46-.05.68-.05.12-.03.22.07.26.09.04.19,0,.23-.12.06-.18.1-.37.14-.56Z"/>
  <path class="cls-2" d="M39.38,48.06c-.48-.04-.94-.03-1.39.11-.11-.14-.09-.29.08-.4.2-.14.43-.21.67-.22.13,0,.26,0,.38.03.21.04.26.11.26.33,0,.05,0,.1,0,.16Z"/>
  <path class="cls-2" d="M33.71,58.22c.34,0,.68,0,1.01,0,.15,0,.31-.02.46-.05.12-.03.13.02.12.11-.05.34-.11.67-.16,1.01-.01.09-.03.17-.04.26-.02.19.04.31.23.38.3.12.62.22.93.32.26.08.52.15.78.23.3.1.5.32.62.61.06.14-.02.24-.21.25-.34.02-.67-.04-1-.1-.49-.09-.98-.18-1.47-.24-.39-.05-.79-.06-1.18-.1-.53-.05-.67-.32-.47-.81.15-.37.3-.74.42-1.12.08-.25.04-.51-.02-.74Z"/>
  <path class="cls-2" d="M33.57,57.75c.57-.13,1.1-.13,1.64,0-.22.15-1.31.16-1.64,0Z"/>
  <path class="cls-2" d="M29.25,58.15c.61.12,1.2.12,1.79,0,.04.29.06.59.13.87.06.26.14.52.26.76.17.33.02.52-.22.62-.15.06-.33.09-.49.11-.24.03-.47.11-.65.27-.51.45-1.13.54-1.76.59-.32.02-.64.02-.96,0-.12,0-.23-.06-.34-.1-.1-.04-.13-.12-.09-.24.08-.24.25-.42.45-.57.39-.29.84-.43,1.3-.56.1-.03.19-.05.29-.08.41-.13.54-.35.46-.78-.05-.26-.1-.52-.16-.78,0-.03,0-.06,0-.11Z"/>
  <path class="cls-2" d="M30.93,57.77c-.56.13-1.09.13-1.64,0,.24-.15,1.34-.16,1.64,0Z"/>
  <path class="cls-1" d="M24.4,24.11c0,1.74-1.44,3.11-3.12,3.1-1.66-.02-3.1-1.39-3.06-3.16.03-1.69,1.44-3.05,3.14-3.03,1.68.02,3.05,1.4,3.05,3.1ZM21.59,22.63c0-.26-.14-.46-.38-.55-.23-.09-.47-.09-.7-.03-.86.21-1.45.74-1.79,1.56-.07.17-.1.36-.06.55.05.25.19.43.43.5.24.07.45,0,.6-.2.09-.11.17-.25.24-.38.25-.51.65-.82,1.21-.92.26-.05.45-.27.45-.54ZM23.02,22.68c0-.32-.27-.59-.59-.58-.32,0-.58.27-.58.58,0,.32.27.59.59.59.33,0,.59-.26.58-.59Z"/>
  <path class="cls-1" d="M41.4,27.2c-1.7.02-3.13-1.41-3.1-3.15.03-1.66,1.41-3.06,3.13-3.04,1.69.02,3.06,1.4,3.06,3.13,0,1.69-1.39,3.06-3.09,3.06ZM38.73,23.91c0,.41.18.66.44.75.25.08.51-.02.69-.29.07-.1.12-.21.17-.32.24-.48.63-.78,1.16-.88.29-.06.48-.25.49-.5.01-.28-.15-.52-.43-.6-.22-.07-.44-.06-.65-.01-.8.19-1.36.67-1.72,1.4-.09.17-.12.37-.15.46ZM42.52,23.27c.32,0,.59-.27.59-.59,0-.32-.27-.58-.58-.58-.32,0-.59.27-.59.59,0,.32.27.59.59.59Z"/>
  <path class="cls-1" d="M18.29,28.65c.17.41.39.75.66,1.07.66.79,1.48,1.37,2.39,1.84,1.21.62,2.5,1.01,3.83,1.28,1.22.25,2.46.4,3.7.45.93.04,1.87.06,2.8.06,1.22,0,2.43-.09,3.64-.24,1.75-.22,3.46-.58,5.1-1.25,1.09-.44,2.11-1,2.98-1.79.4-.36.76-.76,1.03-1.23.02-.04.05-.09.08-.15-.14-.07-.27-.13-.39-.2-.03-.01-.06-.01-.08-.03-.04-.04-.07-.08-.11-.12.04-.03.07-.07.12-.08.31-.07.62-.04.92.08.11.04.22.11.32.18.1.07.13.2.1.32-.05.21-.16.38-.35.5-.13.08-.2.05-.24-.09-.02-.06-.04-.12-.07-.2-.13.18-.24.35-.37.51-.7.89-1.6,1.53-2.59,2.06-1.29.69-2.66,1.13-4.08,1.45-1.13.25-2.27.42-3.42.5-1.01.07-2.03.11-3.05.13-1.25.03-2.5-.03-3.74-.16-1.51-.16-2.99-.42-4.43-.9-1.27-.42-2.46-.98-3.5-1.83-.6-.49-1.11-1.06-1.46-1.76,0-.01-.02-.03-.04-.07-.04.11-.07.2-.1.28-.05.14-.12.17-.24.09-.18-.12-.3-.29-.35-.5-.03-.15.02-.29.15-.37.37-.22.77-.3,1.2-.21.04,0,.08.05.11.08-.04.04-.06.1-.11.12-.13.07-.27.12-.42.18Z"/>
  <path class="cls-1" d="M33.73,52.66c0,.89-.71,1.58-1.61,1.58-.86,0-1.57-.72-1.57-1.59,0-.88.71-1.59,1.59-1.59.88,0,1.58.71,1.58,1.6ZM32.05,53.39c.64,0,1.06-.25,1.28-.72.03-.06.04-.14.03-.2-.09-.59-.59-1.04-1.17-1.06-.6-.02-1.13.39-1.27.98-.03.12-.03.23.03.35.25.46.65.64,1.09.65Z"/>
  <path class="cls-1" d="M31.59,34.95c-.02.1-.08.15-.19.16-.25.03-.5.05-.74.12-.35.1-.61.31-.79.63-.06.11-.15.14-.25.1-.09-.05-.12-.15-.06-.26.26-.49.69-.76,1.22-.87.19-.04.4-.05.6-.06.12,0,.2.07.2.18Z"/>
  <path class="cls-1" d="M25.52,49.32c-.04.43-.02.81.09,1.18.03.1-.02.17-.11.21-.09.04-.19-.02-.22-.13-.1-.34-.13-.69-.12-1.05,0-.06,0-.12.01-.19.01-.11.08-.18.18-.17.1,0,.17.08.17.15Z"/>
  <path class="cls-1" d="M24.81,49.67c.03.2.05.4.08.6.01.06.05.12.08.18.05.09.03.17-.05.23-.08.06-.19.04-.24-.06-.07-.17-.14-.35-.17-.53-.03-.14-.01-.3,0-.45,0-.12.08-.19.18-.18.1,0,.17.09.13.2Z"/>
  <path class="cls-1" d="M38.99,49.54c-.02.18-.04.37-.07.55-.02.11-.11.17-.21.14-.1-.03-.14-.1-.12-.2.07-.37.06-.73,0-1.09-.03-.14.03-.23.14-.25.1-.01.18.06.2.19.03.21.05.43.07.65Z"/>
  <path class="cls-1" d="M39.69,49.49c-.05.19-.08.38-.14.56-.04.12-.14.16-.23.12-.1-.05-.13-.14-.07-.26.1-.22.07-.45.05-.68,0-.03-.01-.07-.01-.1,0-.12.05-.2.15-.21.1,0,.18.05.19.17.02.13.03.26.04.38,0,0,.02,0,.03,0Z"/>
  <path class="cls-2" d="M21.59,22.63c0,.27-.18.49-.45.54-.56.1-.96.41-1.21.92-.07.13-.14.27-.24.38-.15.19-.36.27-.6.2-.24-.07-.38-.25-.43-.5-.04-.19,0-.38.06-.55.34-.81.93-1.34,1.79-1.56.23-.06.47-.06.7.03.24.09.38.29.38.55Z"/>
  <path class="cls-2" d="M23.02,22.68c0,.33-.26.59-.58.59-.32,0-.59-.27-.59-.59,0-.32.27-.58.58-.58.32,0,.59.26.59.58Z"/>
  <path class="cls-2" d="M38.73,23.91c.03-.09.07-.29.15-.46.36-.72.93-1.21,1.72-1.4.22-.05.44-.06.65.01.28.09.44.32.43.6-.01.26-.2.45-.49.5-.53.11-.91.4-1.16.88-.05.11-.11.22-.17.32-.18.27-.44.37-.69.29-.26-.09-.44-.34-.44-.75Z"/>
  <path class="cls-2" d="M42.52,23.27c-.32,0-.59-.27-.59-.59,0-.32.27-.59.59-.59.31,0,.58.27.58.58,0,.32-.26.59-.59.59Z"/>
  <path class="cls-2" d="M32.05,53.39c-.44,0-.84-.19-1.09-.65-.06-.12-.06-.23-.03-.35.13-.59.67-1,1.27-.98.58.02,1.08.47,1.17,1.06,0,.06,0,.14-.03.2-.23.47-.65.72-1.28.72Z"/>
</svg>