<svg width="64" height="64" viewBox="0 0 64 64" fill="none" xmlns="http://www.w3.org/2000/svg">
<g clip-path="url(#clip0_97_6732)">
<path d="M26.7798 14.8836C26.1187 14.7891 26.0872 14.7577 26.402 14.7262C27.0002 14.6317 28.3854 14.7577 29.3614 14.978C31.6281 15.5132 33.6744 16.8985 35.8467 19.3226L36.4134 19.9837L37.2319 19.8578C40.7264 19.2911 44.3154 19.7318 47.3062 21.1171C48.1247 21.4948 49.4155 22.2504 49.5729 22.4393C49.6359 22.5023 49.7303 22.9115 49.7933 23.3208C50.0137 24.8005 49.9192 25.9023 49.447 26.7524C49.1951 27.2246 49.1951 27.3505 49.3525 27.7598C49.4785 28.0746 49.8562 28.295 50.2026 28.295C50.9581 28.295 51.7452 27.0987 52.123 25.4301L52.2804 24.769L52.5637 25.0838C54.1693 26.8783 55.4286 29.3654 55.6175 31.1284L55.6805 31.6006L55.3971 31.1914C54.9249 30.4673 54.4841 29.995 53.886 29.5858C52.8156 28.8617 51.6822 28.6413 48.6914 28.4839C45.9839 28.3265 44.4413 28.1061 42.9302 27.6024C40.3486 26.7524 39.0264 25.6505 35.9726 21.5893C34.6189 19.7948 33.7689 18.8189 32.9189 18.0003C31.0614 16.2058 29.204 15.2614 26.7798 14.8836Z" fill="#FF007A"/>
<path d="M50.234 18.8818C50.2969 17.6855 50.4543 16.8984 50.8006 16.1744C50.9266 15.891 51.0525 15.6392 51.084 15.6392C51.1155 15.6392 51.0525 15.8595 50.9581 16.1114C50.7062 16.804 50.6747 17.7799 50.8321 18.8818C51.0525 20.2985 51.1469 20.4874 52.6581 22.03C53.3507 22.7541 54.1692 23.6671 54.4841 24.0449L55.0193 24.7375L54.4841 24.2338C53.8229 23.6041 52.3118 22.4078 51.9655 22.2504C51.7451 22.1245 51.7136 22.1245 51.5562 22.2819C51.4303 22.4078 51.3988 22.5967 51.3988 23.5097C51.3673 24.9264 51.1784 25.8079 50.7062 26.7209C50.4543 27.1931 50.4229 27.0987 50.6432 26.5635C50.8006 26.1542 50.8321 25.9653 50.8321 24.6116C50.8321 21.8726 50.5173 21.2115 48.5969 20.1096C48.1247 19.8263 47.3061 19.417 46.8339 19.1966C46.3302 18.9763 45.9524 18.7874 45.9839 18.7874C46.0468 18.7244 47.9043 19.2596 48.6284 19.5744C49.7302 20.0152 49.9191 20.0467 50.0451 20.0152C50.1395 19.9207 50.2025 19.6689 50.234 18.8818Z" fill="#FF007A"/>
<path d="M28.0706 23.5727C26.7483 21.7468 25.8983 18.9134 26.0872 16.8041L26.1502 16.1429L26.465 16.2059C27.0317 16.3004 28.0076 16.6781 28.4799 16.9615C29.7392 17.7171 30.3058 18.756 30.841 21.3375C30.9984 22.0931 31.2188 22.9746 31.3133 23.2579C31.4707 23.7301 32.0688 24.832 32.5725 25.5246C32.9188 26.0283 32.6985 26.2802 31.9114 26.2172C30.7151 26.0913 29.1095 24.9894 28.0706 23.5727Z" fill="#FF007A"/>
<path d="M48.6283 37.2674C42.3949 34.7489 40.1911 32.5766 40.1911 28.8932C40.1911 28.358 40.2226 27.9172 40.2226 27.9172C40.2541 27.9172 40.4745 28.1061 40.7578 28.3265C42.0171 29.3339 43.4338 29.7747 47.3691 30.3414C49.6673 30.6877 50.9895 30.9395 52.1858 31.3488C55.9952 32.6081 58.3563 35.1896 58.923 38.6841C59.0804 39.6916 58.986 41.612 58.7341 42.6194C58.5137 43.4065 57.8841 44.8546 57.7267 44.8861C57.6952 44.8861 57.6322 44.7287 57.6322 44.4768C57.5693 43.1546 56.9082 41.8953 55.8063 40.9194C54.484 39.786 52.784 38.936 48.6283 37.2674Z" fill="#FF007A"/>
<path d="M44.2207 38.3064C44.1578 37.8342 44.0004 37.2361 43.9059 36.9842L43.7485 36.512L44.0319 36.8583C44.4411 37.3305 44.7559 37.8972 45.0393 38.6842C45.2597 39.2824 45.2597 39.4713 45.2597 40.4472C45.2597 41.3917 45.2282 41.6121 45.0393 42.1473C44.7245 42.9973 44.3467 43.5954 43.717 44.2566C42.5837 45.4214 41.104 46.0511 38.9947 46.3344C38.6169 46.3659 37.5465 46.4603 36.6021 46.5233C34.2409 46.6492 32.6668 46.9011 31.2501 47.4048C31.0612 47.4677 30.8723 47.5307 30.8408 47.4992C30.7779 47.4363 31.7538 46.8696 32.5409 46.4918C33.6427 45.9566 34.7761 45.6733 37.2632 45.2325C38.491 45.0436 39.7503 44.7918 40.0651 44.6658C43.1818 43.6899 44.7245 41.2658 44.2207 38.3064Z" fill="#FF007A"/>
<path d="M47.0857 43.375C46.2671 41.5805 46.0782 39.8805 46.519 38.2749C46.5819 38.1175 46.6449 37.9601 46.7079 37.9601C46.7708 37.9601 46.9597 38.0545 47.1486 38.1805C47.5264 38.4323 48.3135 38.8731 50.3283 39.9749C52.8784 41.3602 54.3265 42.4305 55.334 43.6584C56.2155 44.7287 56.7507 45.9565 57.0025 47.4677C57.1599 48.3177 57.0655 50.364 56.8451 51.2141C56.1525 53.89 54.5784 56.0308 52.2802 57.2586C51.9339 57.4475 51.6506 57.5735 51.6191 57.5735C51.5876 57.5735 51.7135 57.2586 51.9024 56.8809C52.658 55.2753 52.7524 53.7326 52.1858 52.0011C51.8395 50.9307 51.1154 49.64 49.6672 47.4677C47.9357 44.9491 47.5264 44.288 47.0857 43.375Z" fill="#FF007A"/>
<path d="M23.6316 53.0086C25.9612 51.0567 28.8261 49.6715 31.4706 49.2308C32.604 49.0419 34.4929 49.1048 35.5318 49.3882C37.2004 49.8289 38.7115 50.7734 39.4986 51.9382C40.2541 53.0716 40.6004 54.0475 40.9467 56.2198C41.0727 57.0698 41.2301 57.9513 41.2616 58.1402C41.5134 59.2736 42.0171 60.1551 42.6468 60.6273C43.6227 61.3514 45.3228 61.3829 46.9913 60.7532C47.2746 60.6588 47.5265 60.5644 47.5265 60.5958C47.5895 60.6588 46.7395 61.2255 46.1728 61.5088C45.3857 61.9181 44.7561 62.044 43.9061 62.044C42.3949 62.044 41.1041 61.257 40.0652 59.6828C39.8449 59.368 39.4041 58.455 39.0263 57.605C37.9245 55.055 37.3578 54.2994 36.067 53.4494C34.9336 52.7253 33.4855 52.5679 32.3836 53.1031C30.9354 53.7957 30.5576 55.6531 31.5651 56.7865C31.9743 57.2587 32.7299 57.6365 33.3595 57.731C34.5244 57.8884 35.5318 56.9754 35.5318 55.8105C35.5318 55.055 35.2485 54.6142 34.4929 54.2679C33.4855 53.8272 32.3836 54.3309 32.4151 55.3068C32.4151 55.7161 32.604 55.968 33.0132 56.1568C33.2651 56.2828 33.2651 56.2828 33.0762 56.2513C32.1632 56.0624 31.9428 54.929 32.6669 54.205C33.5484 53.3235 35.4059 53.7012 36.0355 54.929C36.2874 55.4328 36.3189 56.4402 36.0985 57.0698C35.5633 58.455 34.0521 59.1791 32.5095 58.7699C31.4706 58.4865 31.0299 58.2032 29.7706 56.9124C27.5668 54.6457 26.7168 54.205 23.5686 53.7327L22.9704 53.6383L23.6316 53.0086Z" fill="#FF007A"/>
<path fill-rule="evenodd" clip-rule="evenodd" d="M7.07179 2.35373C14.4071 11.2632 25.7092 25.1153 26.2759 25.8709C26.7481 26.5005 26.5592 27.0987 25.7722 27.5395C25.3314 27.7913 24.4185 28.0432 23.9777 28.0432C23.474 28.0432 22.8758 27.7913 22.4666 27.382C22.1832 27.0987 20.9554 25.3042 18.185 20.9912C16.0757 17.6855 14.2812 14.9466 14.2497 14.9151C14.1238 14.8521 14.1238 14.8521 17.9646 21.7153C20.3887 26.0283 21.1758 27.5709 21.1758 27.7598C21.1758 28.1691 21.0499 28.3895 20.5462 28.9562C19.6961 29.9006 19.3183 30.971 19.035 33.2062C18.7202 35.6933 17.8702 37.4563 15.446 40.4471C14.0293 42.2101 13.809 42.525 13.4627 43.249C13.0219 44.1305 12.896 44.6343 12.833 45.7676C12.7701 46.9639 12.896 47.7195 13.2423 48.8529C13.5571 49.8603 13.9034 50.5214 14.7534 51.8122C15.4775 52.9455 15.9183 53.7956 15.9183 54.1104C15.9183 54.3622 15.9812 54.3622 17.1146 54.1104C19.8221 53.4807 22.0573 52.4104 23.2851 51.0881C24.0407 50.2696 24.2296 49.8288 24.2296 48.6955C24.2296 47.9714 24.1981 47.814 24.0092 47.3732C23.6944 46.6806 23.0962 46.1139 21.8054 45.2324C20.1054 44.0676 19.3813 43.1231 19.1924 41.8638C19.035 40.7934 19.2239 40.0694 20.1684 38.086C21.1443 36.0396 21.3962 35.1896 21.5536 33.1118C21.648 31.7895 21.8054 31.2543 22.1832 30.8451C22.5925 30.4043 22.9388 30.2469 23.9147 30.121C25.5203 29.9006 26.5592 29.4913 27.3778 28.7043C28.1019 28.0432 28.4167 27.382 28.4482 26.4061L28.4797 25.682L28.0704 25.2413C26.5907 23.5412 6.09585 1 6.0014 1C5.96992 1 6.47363 1.59816 7.07179 2.35373ZM16.7368 47.1214C17.0831 46.5232 16.8942 45.7676 16.3275 45.3898C15.7923 45.0435 14.9738 45.2009 14.9738 45.6732C14.9738 45.7991 15.0368 45.925 15.2257 45.988C15.509 46.1454 15.5405 46.3028 15.3201 46.6491C15.0997 46.9954 15.0997 47.3102 15.3831 47.5306C15.8238 47.8769 16.422 47.688 16.7368 47.1214Z" fill="#FF007A"/>
<path fill-rule="evenodd" clip-rule="evenodd" d="M29.4872 30.5617C28.7316 30.7821 28.0075 31.6006 27.7871 32.4191C27.6612 32.9229 27.7242 33.8358 27.9445 34.1192C28.2908 34.5599 28.6057 34.6859 29.4872 34.6859C31.2187 34.6859 32.6983 33.9303 32.8558 33.0173C33.0132 32.2617 32.352 31.2228 31.4391 30.7506C30.9668 30.4987 29.9909 30.4043 29.4872 30.5617ZM31.502 32.1358C31.7539 31.758 31.6594 31.3488 31.1872 31.0654C30.3372 30.5302 29.0464 30.971 29.0464 31.7895C29.0464 32.1988 29.7075 32.6395 30.3372 32.6395C30.7465 32.6395 31.3131 32.3877 31.502 32.1358Z" fill="#FF007A"/>
</g>
<defs>
<clipPath id="clip0_97_6732">
<rect width="64" height="64" fill="white"/>
</clipPath>
</defs>
</svg>
