<svg width="64" height="64" viewBox="0 0 64 64" fill="none" xmlns="http://www.w3.org/2000/svg">
<g clip-path="url(#clip0_97_6719)">
<path d="M48.9557 27.9185C48.9774 27.9729 49.0033 28.025 49.0328 28.0745C48.9291 28.0686 48.8233 28.0628 48.7151 28.0571C46.0193 27.9004 44.522 27.6825 43.0653 27.1969L43.0639 27.1964C41.8132 26.7846 40.8902 26.3207 39.9071 25.4759C38.9098 24.6189 37.8392 23.3605 36.3142 21.3324L36.3138 21.3319C34.9535 19.5286 34.0882 18.533 33.2155 17.6927C32.6046 17.1024 31.9916 16.6 31.3585 16.1767C32.7424 16.8943 34.0974 18.0116 35.5252 19.6043L36.0888 20.2619L36.2435 20.4423L36.4784 20.4062L37.2969 20.2802L37.2969 20.2802L37.3003 20.2797C40.7182 19.7254 44.2199 20.1587 47.1266 21.5049L47.1271 21.5051C47.5199 21.6865 48.0346 21.9627 48.4719 22.2181C48.6901 22.3455 48.8844 22.4651 49.0314 22.5625C49.1052 22.6113 49.1634 22.6522 49.2053 22.6841C49.2134 22.6902 49.2202 22.6955 49.226 22.7001C49.2376 22.7355 49.2519 22.7861 49.2679 22.8515C49.3035 22.9978 49.3406 23.1895 49.3707 23.3848C49.5852 24.826 49.4786 25.8154 49.0734 26.5448L49.0733 26.5448L49.0698 26.5512C48.9446 26.7862 48.8402 27.0055 48.8203 27.2442C48.7997 27.4924 48.8746 27.7078 48.9536 27.9132L48.9536 27.9132L48.9557 27.9185ZM52.5057 25.6699C53.5764 26.9489 54.4494 28.5119 54.8945 29.8684C54.6613 29.634 54.4108 29.427 54.1273 29.233L54.1255 29.2317C53.3463 28.7046 52.5378 28.43 51.2194 28.2589C51.3834 28.1031 51.5309 27.9191 51.6601 27.7254C52.0139 27.1946 52.3081 26.4802 52.5057 25.6699Z" stroke="black" stroke-width="0.854839"/>
<path d="M50.3473 20.3174C50.481 20.1837 50.5401 20.0036 50.5754 19.8279C50.6475 20.1109 50.7421 20.3639 50.8906 20.6219C51.0842 20.9582 51.3645 21.2943 51.7773 21.733C51.7547 21.7318 51.7312 21.7318 51.7068 21.7336C51.5774 21.7428 51.478 21.795 51.4089 21.8438C51.3473 21.8873 51.293 21.9407 51.254 21.9797C51.1678 22.0659 51.1101 22.1609 51.0708 22.2678C51.008 22.0103 50.9255 21.7754 50.8179 21.5574C50.6015 21.1193 50.2941 20.7702 49.889 20.4475C49.9784 20.4559 50.0627 20.4513 50.1487 20.4298L50.2636 20.4011L50.3473 20.3174Z" stroke="black" stroke-width="0.854839"/>
<path d="M26.5308 16.6544C26.7614 16.7061 27.0564 16.7989 27.3564 16.9125C27.7184 17.0497 28.0544 17.2046 28.26 17.328C28.8297 17.6698 29.2295 18.0643 29.556 18.668C29.8915 19.2886 30.1571 20.144 30.4225 21.4243L30.4226 21.4247C30.5805 22.1824 30.8049 23.0846 30.9078 23.3931C30.9995 23.6682 31.2045 24.0901 31.4387 24.515C31.6754 24.9442 31.9588 25.4068 32.2232 25.771C32.229 25.7795 32.2345 25.7877 32.2395 25.7956C32.1675 25.8011 32.0724 25.8011 31.9509 25.7916C31.4509 25.7376 30.8207 25.4716 30.1742 25.0269C29.5321 24.5852 28.9062 23.9892 28.416 23.321C27.1483 21.5697 26.3346 18.8387 26.5128 16.8434L26.5308 16.6544Z" stroke="black" stroke-width="0.854839"/>
<path d="M40.6186 28.8932C40.6186 28.8483 40.6188 28.804 40.6192 28.7607C41.9484 29.7763 43.4991 30.2159 47.3068 30.7642C49.6041 31.1104 50.8917 31.3578 52.0475 31.7532L52.0475 31.7532L52.0517 31.7546C55.7329 32.9715 57.9632 35.4379 58.5009 38.7514C58.573 39.2137 58.5899 39.9122 58.5551 40.6311C58.5205 41.347 58.4364 42.0448 58.3209 42.5099C58.2386 42.8022 58.0931 43.2014 57.9366 43.5801C57.6751 42.4593 57.0242 41.4271 56.0897 40.5994L56.0897 40.5994L56.0844 40.5948C54.7012 39.4092 52.9367 38.5368 48.7883 36.8711C45.683 35.6164 43.6402 34.4694 42.3731 33.2135C41.1303 31.9818 40.6186 30.6302 40.6186 28.8932Z" stroke="black" stroke-width="0.854839"/>
<path d="M43.8592 42.4625C44.4876 41.4939 44.7868 40.3558 44.7366 39.1236C44.7734 39.2494 44.7941 39.3543 44.8074 39.472C44.8316 39.6863 44.8322 39.9489 44.8322 40.4472C44.8322 40.9209 44.8239 41.1862 44.7965 41.3951C44.7707 41.592 44.7266 41.7486 44.6373 42.0019C44.3438 42.7935 43.9981 43.3414 43.4091 43.9602C42.3656 45.0318 40.9912 45.6335 38.9484 45.9094C38.8877 45.9144 38.8109 45.921 38.721 45.9286C38.2339 45.97 37.3618 46.0442 36.5764 46.0966C35.744 46.1411 35.0045 46.2012 34.3317 46.2831C35.0679 46.0801 35.9975 45.891 37.333 45.6542C37.9512 45.559 38.5775 45.448 39.091 45.3446C39.5742 45.2472 39.9991 45.1486 40.2068 45.0693C41.8358 44.5563 43.0857 43.6548 43.8592 42.4625Z" stroke="black" stroke-width="0.854839"/>
<path d="M50.1232 40.3499L50.1243 40.3505C52.6584 41.7271 54.0487 42.7658 55.0036 43.9295L55.004 43.9301C55.8325 44.936 56.34 46.0921 56.5809 47.538L56.5809 47.538L56.5823 47.5455C56.6517 47.9203 56.6697 48.6039 56.6385 49.3223C56.6073 50.039 56.53 50.7266 56.4314 51.1068L56.4313 51.107C55.8051 53.5266 54.4375 55.4698 52.4653 56.6619C53.1032 55.0961 53.1449 53.5581 52.5922 51.8689C52.2257 50.7364 51.4703 49.4019 50.0228 47.2306L50.0229 47.2306L50.0194 47.2255C48.2888 44.7083 47.8963 44.0706 47.4726 43.1934C46.7132 41.5267 46.5328 39.9765 46.8952 38.5253C46.9006 38.5288 46.9061 38.5324 46.9115 38.5361C47.3092 38.8012 48.1185 39.2536 50.1232 40.3499ZM46.9946 38.2524C46.9952 38.2514 46.9954 38.251 46.9955 38.251C46.9955 38.251 46.9952 38.2515 46.9946 38.2524Z" stroke="black" stroke-width="0.854839"/>
<path d="M27.219 54.2694C26.3241 53.81 25.3301 53.5742 23.8929 53.3499L23.9164 53.3276C26.1942 51.4222 28.9857 50.0782 31.5409 49.6524C32.0698 49.5642 32.7946 49.5326 33.5208 49.5595C34.249 49.5865 34.9445 49.671 35.4193 49.8005L35.4193 49.8006L35.4226 49.8014C37.0217 50.2238 38.43 51.1211 39.1436 52.1764C39.8515 53.2385 40.1834 54.1476 40.5243 56.2848C40.627 56.9781 40.751 57.6949 40.8102 58.0374C40.824 58.1169 40.8343 58.1763 40.84 58.2105L40.8418 58.2218L40.8443 58.2329C41.1095 59.4261 41.6515 60.4151 42.3903 60.9693L42.3921 60.9706C42.8937 61.3427 43.5353 61.5491 44.2434 61.6087C44.1352 61.6141 44.0231 61.6166 43.9061 61.6166C42.5732 61.6166 41.403 60.9338 40.422 59.4474L40.4221 59.4473L40.4154 59.4377C40.3264 59.3106 40.1742 59.0317 39.9879 58.6551C39.8065 58.2884 39.6047 57.854 39.4178 57.4335C38.8657 56.1558 38.4338 55.2938 37.9647 54.6404C37.4857 53.9732 36.9784 53.5378 36.3021 53.0924L36.3021 53.0924L36.2971 53.0892C35.0615 52.2998 33.4559 52.1077 32.198 52.7181C30.5068 53.5278 30.0414 55.7131 31.2438 57.0685C31.7296 57.6275 32.5818 58.0465 33.2961 58.1536L33.2961 58.1537L33.3023 58.1545C34.351 58.2962 35.291 57.7302 35.7173 56.8598C35.7109 56.8812 35.7042 56.9021 35.6973 56.9222C35.2461 58.0802 33.9702 58.7145 32.6205 58.3571C32.1263 58.2222 31.8055 58.096 31.4614 57.8644C31.1038 57.6236 30.7053 57.2585 30.0767 56.6141C28.9713 55.4772 28.1669 54.7561 27.219 54.2694Z" stroke="black" stroke-width="0.854839"/>
<path d="M20.8574 26.0848C20.6911 25.7693 20.4917 25.3975 20.2554 24.963C20.4965 25.3279 20.7121 25.6515 20.9039 25.9364C21.2493 26.4496 21.5187 26.8394 21.7207 27.1201C21.915 27.3902 22.0648 27.5847 22.1643 27.6843C22.6467 28.1667 23.3511 28.4706 23.9777 28.4706C24.2567 28.4706 24.6397 28.3952 24.9898 28.2974C25.3425 28.199 25.7184 28.0621 25.9827 27.9114C26.4249 27.6635 26.7736 27.331 26.905 26.9009C27.0424 26.4513 26.9105 26.0046 26.6178 25.6144C26.2437 25.1155 21.3113 19.0565 15.892 12.4319C15.9947 12.5448 16.0975 12.6577 16.2003 12.7708C21.5234 18.6215 27.0122 24.6765 27.748 25.5219L27.7478 25.522L27.7572 25.5321L28.0449 25.8419L28.0212 26.3875L28.0211 26.3875L28.021 26.3923C28.0067 26.836 27.929 27.1858 27.7856 27.4921C27.642 27.7989 27.4214 28.0857 27.0896 28.3887L27.0895 28.3885L27.0815 28.3962C26.354 29.0958 25.4163 29.4833 23.8583 29.6973C23.3624 29.7614 22.9846 29.8378 22.6695 29.9715C22.3393 30.1116 22.1028 30.3035 21.87 30.5542L21.8692 30.5552C21.3813 31.0836 21.2218 31.7584 21.1273 33.0805C21.0495 34.1067 20.95 34.8065 20.7565 35.495C20.5621 36.1866 20.2681 36.8839 19.7826 37.902L19.7825 37.9022C19.3097 38.895 19.0102 39.6042 18.8534 40.2102C18.6918 40.8349 18.6836 41.3416 18.7695 41.926L18.7697 41.9272C18.9843 43.3577 19.8224 44.3918 21.5638 45.585L21.5644 45.5854C22.8473 46.4616 23.3558 46.9715 23.6182 47.5459C23.7076 47.7549 23.7462 47.8665 23.7689 47.9998C23.7936 48.1449 23.8021 48.3321 23.8021 48.6955C23.8021 49.2426 23.7555 49.572 23.6438 49.8511C23.5317 50.1313 23.3388 50.3998 22.9714 50.7977C21.8277 52.0292 19.6899 53.0724 17.0198 53.6936C16.7364 53.7566 16.527 53.8022 16.3696 53.8322C16.3473 53.8364 16.3267 53.8402 16.3075 53.8437C16.2885 53.77 16.2642 53.6975 16.2388 53.629C16.1783 53.4662 16.0927 53.279 15.9882 53.0741C15.7787 52.6635 15.4795 52.1548 15.1136 51.5821L15.1137 51.5821L15.1104 51.5771C14.2716 50.3034 13.9487 49.68 13.6506 48.7266C13.3164 47.6324 13.2001 46.9274 13.2598 45.7908C13.2907 45.2346 13.3361 44.8566 13.4208 44.5176C13.5049 44.1813 13.6321 43.8658 13.845 43.4402L13.845 43.4402L13.8483 43.4335C14.1701 42.7606 14.3592 42.4821 15.7783 40.716C18.2301 37.691 19.1306 35.8549 19.459 33.26C19.739 31.0516 20.1024 30.0882 20.8639 29.2421L20.8656 29.2401C21.1166 28.9578 21.3059 28.7271 21.427 28.5001C21.5605 28.2499 21.6032 28.0207 21.6032 27.7598C21.6032 27.688 21.587 27.6253 21.578 27.5931C21.5668 27.553 21.5522 27.5113 21.5365 27.4701C21.5049 27.3875 21.4597 27.2843 21.4021 27.161C21.2861 26.9133 21.1083 26.561 20.8574 26.0848ZM16.082 53.8715C16.0822 53.8714 16.0843 53.8714 16.0881 53.8718C16.0838 53.8718 16.0819 53.8716 16.082 53.8715ZM16.5646 45.0342L16.5647 45.0342L16.5597 45.031C16.1912 44.7925 15.7374 44.7301 15.365 44.8057C15.0188 44.8759 14.5464 45.1291 14.5464 45.6732C14.5464 45.808 14.5808 45.9622 14.6811 46.1026C14.7625 46.2166 14.8721 46.3002 14.9973 46.357C14.9869 46.3755 14.9744 46.3963 14.9595 46.4196C14.8217 46.6363 14.7217 46.89 14.7359 47.1596C14.751 47.4469 14.8926 47.6903 15.1198 47.8674C15.4532 48.1289 15.8587 48.1915 16.2324 48.077C16.5971 47.9652 16.9063 47.6946 17.1087 47.3321C17.5681 46.5346 17.3134 45.5333 16.5646 45.0342Z" stroke="black" stroke-width="0.854839"/>
<path d="M31.8577 32.3729C31.969 32.2059 32.0421 32.019 32.0608 31.8239C32.1061 31.8831 32.1483 31.9437 32.1869 32.0052C32.4139 32.3662 32.4852 32.7006 32.4373 32.9301L32.4358 32.9374L32.4346 32.9447C32.3902 33.2022 32.1296 33.5321 31.5706 33.8117C31.0311 34.0814 30.2951 34.2584 29.4872 34.2584C29.0559 34.2584 28.8213 34.2258 28.6645 34.1673C28.5294 34.117 28.4239 34.037 28.2822 33.8571C28.2819 33.8566 28.2743 33.8456 28.2627 33.8182C28.2501 33.7886 28.2363 33.7482 28.2227 33.6965C28.1955 33.5926 28.1741 33.4614 28.1619 33.3159C28.1369 33.0202 28.1537 32.7183 28.2009 32.5264C28.2757 32.2508 28.4241 31.965 28.6215 31.7102C28.6198 31.7363 28.619 31.7627 28.619 31.7895C28.619 32.2137 28.938 32.5381 29.2199 32.7245C29.5263 32.9271 29.9299 33.0669 30.3372 33.0669C30.6179 33.0669 30.9213 32.9838 31.1732 32.8739C31.4157 32.768 31.6842 32.6053 31.844 32.3923L31.8511 32.3828L31.8577 32.3729Z" stroke="black" stroke-width="0.854839"/>
</g>
<defs>
<clipPath id="clip0_97_6719">
<rect width="64" height="64" fill="white"/>
</clipPath>
</defs>
</svg>
